<svg data-name="Layer 1" xmlns="http://www.w3.org/2000/svg" width="1077.9" height="757.3"><defs><linearGradient id="a" x1="2507" y1="696.2" x2="2507" y2="413.6" gradientTransform="matrix(-1 0 0 1 2766 0)" gradientUnits="userSpaceOnUse"><stop offset="0" stop-color="gray" stop-opacity=".3"/><stop offset=".5" stop-color="gray" stop-opacity=".1"/><stop offset="1" stop-color="gray" stop-opacity=".1"/></linearGradient></defs><path d="M663.8 91.8c-46.2 32.4-106.2 30.3-158.8 13.5S404.2 58.4 353 37A494.2 494.2 0 0 0 219.2 2.3C154-5.2 81.1 3.9 35.7 56.3c-50.7 58.3-46.8 163.4 8 217 27.8 27.2 64.3 40.6 96.1 61.8s61.3 56.5 58.6 97.5c-2.5 38-31.6 67.1-61.8 85.4-23.4 14.2-52.1 29.6-55 58.9-2.6 28.3 21.5 50.5 44.6 63.1a252.8 252.8 0 0 0 243-1c26.7-15 51.3-34.8 79.4-46.4 73.6-30.5 154.8.2 232.8 11.5a465.4 465.4 0 0 0 198-14.4c38.6-11.4 77.3-28.9 104.5-61.4 19.5-23.4 31.7-53 43.2-82.3q18.3-46.9 35.2-94.4c6.7-19 13.4-38.3 15.1-58.7 3.2-36.8-10.2-73.3-28.3-104.4-43-73.9-115.6-125.8-194.2-139s-161.6 12.6-222.6 69" fill="#5d97f7" opacity=".1"/><path d="M540.7 103.4l-3.9 221s138 0 255.3 38.1l2.3-223.3s-188.2-45-253.7-35.8z" opacity=".1"/><path d="M537.7 99.4l-3.9 221s138 0 255.3 38.1l2.3-223.3s-188.2-45-253.7-35.8z" fill="#f7f7fd"/><path d="M471.4 109.7l3.8 221s-137.9 0-255.2 38.1l-2.3-223.2s188.2-45 253.7-35.9z" opacity=".1"/><path d="M474.4 104.7l3.8 221s-137.9 0-255.2 38.1l-2.3-223.2s188.2-45 253.7-35.9z" fill="#f7f7fd"/><path d="M412.5 130.5l2 118.5s-74 0-136.9 20.4l-1.2-119.7s101-24 136-19.2z" fill="#5d97f7" opacity=".2"/><path d="M875.7 184.7v218.7s45-5.4 139.4 111.2l8.4-218.7S925.2 190 875.7 184.7z" opacity=".1"/><path d="M873.7 181.7v218.7s45-5.4 139.4 111.2l8.4-218.7S923.2 187 873.7 181.7z" fill="#f7f7fd"/><path d="M148.3 185.7v218.7S103.3 399 9 515.6L.5 297s98.3-106 147.8-111.3z" opacity=".1"/><path d="M151.3 181.7v218.7S106.3 395 12 511.6L3.5 293s98.3-106 147.8-111.3z" fill="#f7f7fd"/><path fill="#5d97f7" d="M574.5 145.4l93.4 16.7v13.6l-93.4-18v-12.3z" opacity=".2"/><path fill="#fff" d="M394.5 276.9l-93.4 16.7v13.6l93.4-18V277zm181.2-106.2L746.5 206v13.6l-170.8-36.5v-12.4zm0 25.4l170.8 35.3V245l-170.8-36.5V196z"/><path fill="#5d97f7" d="M913.5 252.3v12l36.6 29.8 1.8-10.3-38.4-31.5z" opacity=".2"/><path fill="#fff" d="M913.5 368.3v12l36.6 29.8 1.8-10.3-38.4-31.5zm.5-95.3l-.5 12 69.3 65.2-1.2-13.8-67.5-63.5zm-.5 22.2v11.5l69.3 66.4v-15l-69.3-62.9z"/><path fill="#5d97f7" d="M111 255l.5 12-69.2 65.2 1.1-13.8 67.5-63.5zm.5 22.2v11.5L42.3 355v-15l69.2-62.9z" opacity=".2"/><ellipse cx="204.6" cy="621.9" rx="57" ry="10.3" fill="#5d97f7" opacity=".1"/><path d="M69.4 565.5s5.5 7.2-2.5 18-14.7 20-12 26.7c0 0 12.1-20.1 22-20.4s3.4-12.2-7.5-24.3z" fill="#5d97f7"/><path d="M69.4 565.5a8.6 8.6 0 0 1 1.2 2.2c9.6 11.3 14.7 21.9 5.5 22.1-8.7.3-19 15.7-21.5 19.6l.3.9S67 590 77 589.8s3.4-12.2-7.5-24.3z" opacity=".1"/><path d="M79.6 574.6c0 2.6-.2 4.6-.6 4.6s-.6-2-.6-4.6.3-1.3.7-1.3.5-1.2.5 1.3z" fill="#ffd037"/><path d="M83.2 577.6c-2.3 1.2-4.2 2-4.4 1.7s1.5-1.6 3.7-2.8 1.4-.3 1.6 0 1.3 0-1 1.1z" fill="#ffd037"/><path d="M40.4 565.5s-5.5 7.1 2.5 18 14.7 20 12 26.8c0 0-12-20.2-22-20.5s-3.3-12.2 7.5-24.3z" fill="#5d97f7"/><path d="M40.4 565.5a9 9 0 0 0-1.1 2.2c-9.6 11.3-14.8 21.9-5.5 22.1 8.6.3 19 15.7 21.4 19.6a7.5 7.5 0 0 1-.3.9S43 590 33 589.8s-3.3-12.2 7.5-24.3z" opacity=".1"/><path d="M30.2 574.6c0 2.6.3 4.6.6 4.6s.7-2 .7-4.6-.4-1.3-.7-1.3-.6-1.2-.6 1.3z" fill="#ffd037"/><path d="M26.7 577.6c2.2 1.2 4.2 2 4.3 1.7s-1.5-1.6-3.7-2.8-1.3-.3-1.5 0-1.3 0 .9 1.1z" fill="#ffd037"/><path d="M32 609.3s15.3-.4 20-3.7 23.6-7.3 24.7-2 23 26.3 5.7 26.4-40.2-2.7-44.9-5.5-5.6-15.2-5.6-15.2z" fill="#a8a8a8"/><path d="M82.8 628.2c-17.4.1-40.3-2.7-45-5.5-3.5-2.2-4.9-9.8-5.3-13.4h-.6s1 12.4 5.6 15.2 27.6 5.7 45 5.5c5 0 6.7-1.8 6.6-4.4-.7 1.6-2.6 2.6-6.3 2.6z" opacity=".2"/><ellipse cx="600.5" cy="470.7" rx="94" ry="16.1" fill="#5d97f7" opacity=".1"/><path d="M581.5 253.4a13 13 0 0 0-1 3l-.1 1c-.6 3-1 6.8-1.2 9l-.2 2s-21.7-1.5-18-5.2a8 8 0 0 0 2-3.6l.4-1.2a20.3 20.3 0 0 0 .3-2.7v-.7a28.4 28.4 0 0 0-.2-4.5s7 0 12.4.6c3.5.4 6.3 1.1 5.6 2.3zM544 356.6c-7.4-.2-2-15.6-1.1-17.7s-1.3-7.1-1.3-7.1-2.5-14.7-2.5-15.6a39.1 39.1 0 0 0-.8-6 10 10 0 0 1 1-5.8c.8-1.3.7-6.6.7-6.6v-7l1.6-2.1 4.2 4 1.2 1 2 7.8-.7 11-.4 10.8 2.6 15s.9 18.6-6.6 18.3z" fill="#d38884"/><path opacity=".1" d="M546.3 294.5l-6.3-2.6v-1l1.6-2.2 4.2 4 .5 1.8z"/><path d="M543.4 278.7a29 29 0 0 0-1.8 6.2 27.4 27.4 0 0 1-1.6 6l7 2.9z" fill="#4c4981"/><path d="M543.4 278.7a29 29 0 0 0-1.8 6.2 27.4 27.4 0 0 1-1.6 6l7 2.9z" opacity=".1"/><path d="M599.1 431.7l-.5 1.3-.7 4.2c0 .2-1.8 2.8-1.8 2.8l-4.6 1-1.9-.2a27.3 27.3 0 0 0-.5-3.4l-.3-1a25.7 25.7 0 0 0-3.1-7.2s-3.4-8.3-4.6-9.4-5.9-12.1-5.4-14.8c.3-1.5 0-6.4-.2-10.4l-.4-6.2 11.5-6.8 1.4 2.1.8 1.3v.8a21.3 21.3 0 0 1-1 5s-1 6.2 0 7.2 3.5 15.7 4.1 22.4v.7c.3 3 2.2 5.8 4.1 7.8l.4.4a26.4 26.4 0 0 0 2.7 2.4z" fill="#d38884"/><path d="M589.6 440.8l2 .2 4.5-1 1.8-2.8.7-4.2.5-1.3.1-.1a24.3 24.3 0 0 1-3.1-2.6l-.3-.3c-.1-.1.6 4-2.9 5.8l-4 2z" opacity=".1"/><path d="M600 432.3l-.7 1.4-.6 4.2-1.9 2.8-4.5 1-2.7-.3a17.4 17.4 0 0 0-.5-4 96 96 0 0 0 4.5-2.2c3.5-1.8 2.8-5.8 2.8-5.8a27.6 27.6 0 0 0 2.4 2.1c.5.4 1 .6 1.1.8z" fill="#ceddf9"/><path d="M600 432.3l-.7 1.4-.6 4.2-1.9 2.8-4.5 1-2.7-.3c0-.5 0-1.2-.2-2.2a9.1 9.1 0 0 1 1.7.3s6.2 1.3 6.5-3.6c.2-2.8.8-4 1.2-4.4.5.4 1 .6 1.1.8z" opacity=".1"/><path d="M599.5 432s-1.6-.4-1.9 4.6-6.5 3.6-6.5 3.6-3-.8-3.1.5a11.9 11.9 0 0 0 .8 3.4s.2 3 .8 3.6.2 3.4.2 3.4.2 1.9 5 0c0 0 4.3-1 8-6.3 0-.2-.5-.7 2.6-1.8s12-8.3 11.4-11.9a3 3 0 0 0-2.1-2.5 3.6 3.6 0 0 0-2.8.4 22 22 0 0 1-2.6 1.2 12.8 12.8 0 0 1-3.8.9 14.3 14.3 0 0 0-2.9.5 6 6 0 0 1-3.1.4z" fill="#cc8294"/><path d="M564.2 398a8.5 8.5 0 0 0-1.8 2c-1.8 2.7-2.8 6.5-4 8.1a16 16 0 0 0-2 6.2c-.4 2.7-6 17-7.6 19.5s-3.7 9.5-3.7 9.5c-1.3 1.6-1.2 4-1.1 5.2v.7l-2 3.6-6.7-1-3.5-2.2a11.7 11.7 0 0 0 .8-1.5c1.8-4.1 3.1-11.5 3.1-11.5s1.9-8.4 1.7-10.3a78.5 78.5 0 0 1 .6-8s5.3-16 7-18.7a7.5 7.5 0 0 0 1.2-3.4 2.9 2.9 0 0 0 0-.8l2.3-2.2s18.6 2.5 15.7 4.8z" fill="#d38884"/><path d="M544.1 448.5v.8l-2 3.5-6.8-.9-3.4-2.3a11.7 11.7 0 0 0 .7-1.5c1.7-.4 5.6 1 5.6 1s4.1.7 5.9-.6z" opacity=".1"/><path d="M542.5 458l-6.8 1.6-6.2-4.6.3-2.6a4.5 4.5 0 0 0 1.2-1 4.1 4.1 0 0 0 .9-1.8c.3-2 6.2.2 6.2.2s4.3.8 6-.6a10.5 10.5 0 0 0 .3 3.7 2.8 2.8 0 0 0 1 1.5c1.8 1.2-3 3.6-3 3.6z" fill="#ceddf9"/><path d="M542.5 458l-6.8 1.6-6.2-4.6.3-2.6a4.5 4.5 0 0 0 1.2-1h1.3c1 .1 3.5 4.6 3.5 4.6 6.2.4 8-1.6 8.6-3a2.8 2.8 0 0 0 1 1.4c1.8 1.2-3 3.6-3 3.6z" opacity=".1"/><path d="M535.8 456.7s-2.5-4.4-3.5-4.5a23.5 23.5 0 0 0-2.6 0s-2.8 6.5-3.8 7-2.4 3.6-2.4 3.6 7.2 7 14.1 5.7a14.4 14.4 0 0 1 6.4 1.6c3.2 1.6 16.7.4 18.3-2.6 1.3-2.2 1.7-3.8.7-5a3 3 0 0 0-2.6-.8c-1.7.2-5.5.1-8.8-4 0 0-6.1-5.6-6.6-5.6s.4 5.3-9.2 4.6z" fill="#cc8294"/><path d="M588.8 385.7c-.5.5-3.4 3.8-4.3 4a42.8 42.8 0 0 0-4.4 2s-1.8 2.4-3.3 2.5a5.7 5.7 0 0 0-1.3.3l-.4-6 11.5-6.9 1.4 2.1.7 2z" opacity=".1"/><path d="M547 339s-4.5 5.8 0 13.5a45.3 45.3 0 0 0 9.2 11.6l15.2 31.7s4-2.2 5.5-2.3 3.2-2.6 3.2-2.6a42.4 42.4 0 0 1 4.4-2c1-.2 4.3-4 4.3-4s-1.6-3.5-1.3-4.5-1-3.4-1-3.4a20 20 0 0 1-1-3.8c0-1-1.6-3.2-1.6-3.2s-1.6-2.5-1.6-3.8-2.4-6.6-2.4-6.6l-.6-23z" fill="#ceddf9"/><path d="M588.8 385s-3.4 3.7-4.3 4a42.4 42.4 0 0 0-4.4 2s-1.8 2.4-3.3 2.5a11.6 11.6 0 0 0-3 1l-2.5 1.3-15.2-31.6a33 33 0 0 1-3.7-3.8 52.5 52.5 0 0 1-5.5-7.9 13.1 13.1 0 0 1-1.8-9.4 10.8 10.8 0 0 1 1.8-4.2l10.8-.7 21.7-1.6.1 6.8.4 16.2.8 2a20.6 20.6 0 0 1 1.5 4.6c0 1.3 1.6 3.7 1.6 3.7s1.6 2.3 1.6 3.3a20.3 20.3 0 0 0 1 3.8s1.5 2.4 1 3.3 1.4 4.7 1.4 4.7zm-24.6 13a8.5 8.5 0 0 0-1.8 2c-6.6.5-14.2-3-16.2-3.9a2.9 2.9 0 0 0 0-.7l2.2-2.3s18.7 2.6 15.8 5z" opacity=".1"/><path d="M583.6 346.1l-1.3 4.8c-.3 1.4-1.1 8.7-1.1 8.7l-.4 2-7 33-1.5 7.1c-2.6 1.5-9.3-2.4-9.3-2.4-7.8.9-17.3-4.1-17.3-4.1s1.5-5.1 1.2-7.6 2.2-4.7 2.2-4.7c-.6-2.3 1.5-12.3 1.5-12.3s.5-3.8 2.3-4.7-.2-2.5-.7-3.3a3.7 3.7 0 0 1 .2-2.2 16.4 16.4 0 0 1 .5-1.7c-4.6-4.6-5.3-11.8-5.3-15.8a25.6 25.6 0 0 1 .1-3l10-1.7 21.9-3.8 2.2 6.8.6 1.7z" fill="#ceddf9"/><path d="M581.5 253.4a13 13 0 0 0-1 3l-.1 1c-2.1 1.3-3.4 1.3-6.1 1.3-1 0-1.5-1.8-2.4-2 0 0-1.3-4.8-1.7-.7-2.5-.6-4.7 1.4-6.5-.3v-.7a28.4 28.4 0 0 0-.2-4.5s7 0 12.4.6c3.5.4 6.3 1.1 5.6 2.3z" opacity=".1"/><path d="M586.5 245.3a13.5 13.5 0 0 1-16.2 13.2 13.5 13.5 0 1 1 14.5-19.9 13.3 13.3 0 0 1 1.7 6.7z" fill="#d38884"/><path d="M579.2 266.5l-.2 1.8s-21.7-1.4-18-5a8 8 0 0 0 2-3.7l9.5 1.6s2.6 2 4.7 4a8.6 8.6 0 0 0 2 1.3zm3.2 77.1a7 7 0 0 1-2.9-.2 5.8 5.8 0 0 1-1.1-.5c-1.8-1-7.9.3-7.9.3s-16.5 1-17.2 0c-.4-.7-3.3-.6-5.7-.4l-2.5.2a10.8 10.8 0 0 1 1.8-4.1l10.9-.8 21.8-3.8 2.2 6.9a24.6 24.6 0 0 0 .6 2.4z" opacity=".1"/><path d="M572.5 261.9l-11.9-2a3.5 3.5 0 0 1-2.2 2 29 29 0 0 0-11.8 8.4l-3.1 4.3s-2.5 3.2-1.7 5.7 1.8 11.2 1.8 11.2l1.2 9.5s2.3 7 1.6 10 .4 15.7.4 15.7l-2.4 15.8s8.2-1.1 9 0 17.2 0 17.2 0 6-1.4 7.8-.3a6.6 6.6 0 0 0 4 .8s-1.4-5-.6-7.8.6-7.9.6-7.9 1.2-7.4.6-8.7 1.4-6.2 1.4-6.2l6.4-33.8s-.8-6-4.2-8-7.3-2.8-9.4-4.7-4.8-4-4.8-4z" fill="#4c4981"/><path d="M578 295.2v4l3.7 10 1.3 9.4s2.5 6.7 2.5 9 5.9 13.5 5.9 13.5 1.6 3.7.8 4.4-7.8 16.8 1 16.3 6-17.2 6-17.2l-1.2-7.3s-1.7-18.2-1.7-19.5c0 0-2.1-7.8-2.4-9.4l-1.8-10.3-1.3-5.6z" fill="#d38884"/><path opacity=".1" d="M573.7 307.8l-13.2 7.6-4 6.1 5.4-5.5 11.8-8.2zm-4 14.5s-6 3.9-8.8 3.9-9.4 6.7-9.4 6.7 9.3-6 10-5.8 8.2-4.8 8.2-4.8zm-15.4 2.1s-5.6 5-4.1 5.6 9-5.6 9-5.6zm24.9-18.2s-4.3 5.9-3.1 5.8 4.5-3.5 4.5-3.5zm.7 5.8s-4.8 5.4-4.6 6.7 4.6-6.7 4.6-6.7zm1.1 2.7s-3.1 5.7-1.8 6.8 1.9-6.8 1.9-6.8zm-4-14.7s-2.4 4-.7 4.4 1.9 0 1.9 0zm.6-14.5a41.8 41.8 0 0 1-2.4 7 33 33 0 0 1-1-3.5 24.4 24.4 0 0 1 3.4-3.5zm7.2-46.9a5.9 5.9 0 0 1-.9 1.4 10.4 10.4 0 0 0-1.6 2 10 10 0 0 0-.6 3.1c-.2 1.1-.9 2.3-2 2.3a4 4 0 0 1-1.6-.4 1.6 1.6 0 0 0-1.6 0 1.8 1.8 0 0 0-.5 1.2 15.9 15.9 0 0 0-.2 2.9v1a6.3 6.3 0 0 1-.1 3.7 4.4 4.4 0 0 1-2.3 1.8 13.8 13.8 0 0 1-3.1.9 34.5 34.5 0 0 1-6.2.2 1.5 1.5 0 0 1-.6-.1.8.8 0 0 1-.2-.2 19 19 0 0 0 .4-3.4 13.5 13.5 0 1 1 21.1-16.4z"/><path d="M579.2 227.2c-1.3-.1-2.4.5-3.7.8-2.5.6-5-.6-7.6-.6a14.2 14.2 0 0 0-6.3 1.9 15.2 15.2 0 0 0-4.2 3 6.8 6.8 0 0 0-2 4.6 7.6 7.6 0 0 1-.1 3 8.4 8.4 0 0 1-1 1.4 4.2 4.2 0 0 0-.4 3.4 11.5 11.5 0 0 0 2.1 3.1c1.7 2.2 2.7 4.7 4.2 7a21.6 21.6 0 0 0 2.2 2.7 1.5 1.5 0 0 0 .5.4 1.4 1.4 0 0 0 .5 0c3.2.2 6.4.2 9.3-1a4.3 4.3 0 0 0 2.3-1.8 6.3 6.3 0 0 0 .2-3.6 16.5 16.5 0 0 1 0-4 1.8 1.8 0 0 1 .6-1.2 1.6 1.6 0 0 1 1.6 0 4.4 4.4 0 0 0 1.6.4c1 0 1.8-1.2 2-2.3a5.4 5.4 0 0 1 2.2-5 7.7 7.7 0 0 0 1.4-6.9c-.7-2.2-3-5-5.4-5.3z" fill="#1e1637"/><path d="M592.1 284.6a15.7 15.7 0 0 0 0 5v8.8c-4-1.3-14.1 1.2-14.1 1.2l-1.2-3.7a9 9 0 0 1-1.6-3 33.3 33.3 0 0 1-.9-3.5 74.3 74.3 0 0 1-1.2-7.6c-.5-3.9 5.2-8 9.6-10.4s8.1 7.6 8.1 7.6 1.8 3.7 1.3 5.6z" opacity=".1"/><path d="M592.1 284a15.8 15.8 0 0 0 0 5v8.7a42 42 0 0 0-14.1 1.2l-1.2-3.7a8.9 8.9 0 0 1-1.6-3 33 33 0 0 1-.9-3.5 74.7 74.7 0 0 1-1.2-7.6c-.5-3.9 5.2-8 9.6-10.4s8.1 7.6 8.1 7.6 1.8 3.7 1.3 5.6z" fill="#4c4981"/><path d="M584.5 232.5a8 8 0 0 0-1-2l.2.6a7.7 7.7 0 0 1-1.3 6.8 5.4 5.4 0 0 0-2.3 5c-.1 1.2-.8 2.4-2 2.4a4 4 0 0 1-1.6-.5 1.6 1.6 0 0 0-1.6 0 1.8 1.8 0 0 0-.5 1.3 16.4 16.4 0 0 0 0 4c0 1.2.3 2.5-.3 3.6a4.5 4.5 0 0 1-2.2 1.8 22 22 0 0 1-9.4 1 1.4 1.4 0 0 1-.5 0 1.3 1.3 0 0 1-.5-.4 19.4 19.4 0 0 1-2.2-2.8c-1.5-2.2-2.5-4.8-4.2-7-.4-.5-1-1-1.3-1.7v.1a11 11 0 0 0 2 3.1c1.7 2.2 2.7 4.7 4.2 7a20.8 20.8 0 0 0 2.2 2.8 1.5 1.5 0 0 0 .5.3 1.5 1.5 0 0 0 .5.1c3.2 0 6.5.2 9.4-1a4.3 4.3 0 0 0 2.2-1.9 6.3 6.3 0 0 0 .2-3.6 17.6 17.6 0 0 1 .1-4 1.9 1.9 0 0 1 .5-1.2 1.6 1.6 0 0 1 1.6 0 4.4 4.4 0 0 0 1.6.5c1.1 0 1.8-1.3 2-2.4a9.8 9.8 0 0 1 .6-3.2 10 10 0 0 1 1.7-1.8 7.7 7.7 0 0 0 1.4-6.9z" opacity=".2"/><path d="M682 235.1l-8.7 18.4s-1.3 3.5-2 4-4.5 11.6-4.5 11.6l-9.3 14.3-.6 1-3.7-1-2.5-9.5.1-2.8v-.3s5.8-6 7-6.5c0 0 1 .1 3-4.5s3.6-5.7 3.6-5.7l1-3.3 10.7-17.1s9-12.9 11.4-7.2-5.6 8.6-5.6 8.6zm-36 130.5a2 2 0 0 1-.2.8c-1 1.5-6.7 31.2-6.7 31.2.5 2-.8 6-1.6 7.8s-2.6 11.3-2.6 11.3-.5 20.4-1.7 23.5.4 10 .4 10c-.1 3.2 1.8 6.5 2.9 8.2l.2.3.6.8a4.8 4.8 0 0 0 1.3 1.6l.3.2a14.7 14.7 0 0 0 5 2.1h.2l1.2.2.5 2.5-4.8 1-9.2.6s-10.8.9-8.4-4a7.7 7.7 0 0 0 .5-1 7.6 7.6 0 0 0 .2-.7c1.5-4.6.5-10.2.5-10.2l-2.1-16.5c-3.4-15.3 2.7-32.2 2.7-32.2s-.5-1.4.7-4.9 0-11 0-11-.7-9.7-1.5-14.5a29.5 29.5 0 0 1-.3-6.1 30.5 30.5 0 0 1 .3-3.6l20.7-2.7s1.2 3.3 1 5.3z" fill="#ffd2c6"/><path d="M645.8 466.1l-4.8 1-9.2.7s-10.8.8-8.4-4a7.7 7.7 0 0 0 .5-1 7.6 7.6 0 0 0 .2-.8 17 17 0 0 1 5.5 1.1c3 1.2 5.4-1.9 5.4-1.9l1.5-2.8.2-.4.6.8a5 5 0 0 0 1.5 1.7l-.2.6-1.5 3 4.4.6a2 2 0 0 0 2.4-1.3h.2l1.2.3z" opacity=".1"/><path d="M650.2 468.4c-.3 1.6-10.5 2.1-10.5 2.1s-5.6-.5-7.2.8-6.2 1-6.4 1-2.6 0-3.6-4.5 1.3-5 1.4-5a16.6 16.6 0 0 1 5.7 1c3 1.2 5.4-1.9 5.4-1.9l1.7-3.2.6.8a5 5 0 0 0 1.5 1.8l-1.7 3.5 4.4.6a2.1 2.1 0 0 0 2.6-2 2.4 2.4 0 0 0 0-.2l3.5 1a3.6 3.6 0 0 1 2.6 4.2z" fill="#626696"/><path d="M669.3 387.2l-.5 5.2c.9 3.2-1.3 10.7-1.3 10.7l-1.1 4.2c.5 5.5-3 18.8-3 18.8s-2.3 12.4-3.5 17.7a14.6 14.6 0 0 0 .6 9v.1l.1.3a3 3 0 0 0 .2.5 6.4 6.4 0 0 0 1.2 2 5.9 5.9 0 0 0 .6.6 13.2 13.2 0 0 0 3.9 2.4l.6.2a18.9 18.9 0 0 0 2 .7h.1l-.4 2.8-6.5-1.6-8.6-2.8-4.1-2.4.1-.6a.2.2 0 0 0 0-.1l.1-.7a90 90 0 0 0 1.5-22c-1-9.6 3-22.8 4-26a15.7 15.7 0 0 0 .7-5.5c-1.6-2.3-2-11.5-2-11.5s-2.9-6-5.3-12.2a31.3 31.3 0 0 1-1.7-6.4 21.6 21.6 0 0 1-.4-4.7s19.5-17.8 21.7-.5l.2 1.7c1.9 15.8 1 18.7.8 20.1z" fill="#ffd2c6"/><path d="M669.3 459.6l-.5 2.9-6.4-1.7-8.6-2.7-4.2-2.5.1-.6a.2.2 0 0 0 0-.1l.1-.7h.6a7.9 7.9 0 0 1 3.6.5c1.4.5 3.3 1.1 3.6.9a4.6 4.6 0 0 1 2.1-.4l.9-2 .1-.3a6.3 6.3 0 0 0 1.2 2 7.7 7.7 0 0 0 .7.7v1.7a12.5 12.5 0 0 0 3 1.4 1.8 1.8 0 0 0 1 0l.5.3a18.9 18.9 0 0 0 2 .6z" opacity=".1"/><path d="M666 465.8c-1.7-.6-6-1.4-6.7-.7s-6.7 0-6.7 0a3.6 3.6 0 0 1-3.1-1.9c-1.3-1.9-.2-8.2-.2-8.2h1.1a8 8 0 0 1 3.6.4c1.4.6 3.3 1.2 3.6 1a4.5 4.5 0 0 1 2.1-.4l1-2.3a6.4 6.4 0 0 0 1.2 2 6.5 6.5 0 0 0 .7.7l-.1 1.7a12.8 12.8 0 0 0 3 1.4 1.3 1.3 0 0 0 1.6-.5 1.2 1.2 0 0 0 0-.2 11 11 0 0 0 2.6.8 4.6 4.6 0 0 1 5 3.6c1 2.8-6.8 3-8.6 2.6z" fill="#626696"/><path d="M646 365.6l-1 .3a15.5 15.5 0 0 1-2.7.6c-5.8.8-15.2.3-18.2 0a30.5 30.5 0 0 1 .3-3.5l20.7-2.7s1.2 3.3 1 5.3z" opacity=".1"/><path d="M664.1 360.5s-7.6 1.2-13.8 2.6l-5.3 1.3a16.4 16.4 0 0 1-2.7.6c-7 1-19.1 0-19.1 0-3.4-10.8 4-24.6 4-24.6-.1-1 1.6-4.4 1.6-4.4v-.1l1-3.9h28.3l.3 1.7.8 3.4 4.4 21z" fill="#626696"/><path d="M668.5 367.1l-.2.1-3.3 1.5c-3.5 1.6-14.3 2-18 2a21.6 21.6 0 0 1-.3-4.7s19.5-17.8 21.6-.5l.2 1.6z" opacity=".1"/><path d="M669 365.4l-.7.4-3.3 1.4a68 68 0 0 1-18.2 2h-1c-1.6 0-3.2-1.5-3.2-2l-.3-2.2-.2-1.4a87.5 87.5 0 0 1-11-5.7c-2.8-1.8-2.1-15.3-1.6-22l.4-3.9 28.6 1.7 4 .2 2.3.5.6.2s1.6 12 2.4 13 .3 4.3.2 6.2a11.4 11.4 0 0 1-.3 2.5s1.2 3.3 1 5.2a10.5 10.5 0 0 0 .3 4z" fill="#626696"/><circle cx="638.4" cy="254.1" r="11.7" fill="#ffd2c6"/><path d="M632.7 259s.8 11.1-1.5 13.7a103.4 103.4 0 0 1-8.2 7.3l1.9 7.6 10.2 1.1 12-12.8-2.7-3.3s-2-7-.4-10.6-11.3-3-11.3-3z" fill="#ffd2c6"/><path d="M657.5 283.4l-.6 1-3.7-1-2.5-9.5.1-2.8.8-1s4 0 3.8 3.7c-.2 3.2 1.7 8.4 2 9.6zm7.9 52.6s-2.9.6-6.2 1-7.1.7-8.7-.2c-2.6-1.5-16.9-1-21-1h-.7l1-3.8h28.3l.3 1.7 4 .2 2.3.5.7 1.6z" opacity=".1"/><path d="M650.9 270.8s4 0 3.8 3.7 2.2 9.9 2.2 9.9l-1 2s-1.2 5.2-.2 6.4 4.6 1.3 2.5 11.8c0 0-.4 7.8.7 10.3s1 8.7 2.7 11.2a60.3 60.3 0 0 1 3.8 8.4s-11.8 2.7-14.9.9-22-1-22-1V331a3 3 0 0 1 .4-2.3c.6-.9 1.6-2.3 1-3.6s1.4-3.1.4-5.1-2.2-2.4-2-3.4a4.6 4.6 0 0 0-1.1-3.5 242 242 0 0 1-5.6-10.5l-.8-4.5s-6.4-4.6-6.2-6.8 2.3-5.2 2.3-5.2l6.1-6s3.4 3.6 6.7 2.4S640 275 640 275s2.5-1.4 2.6-2.4 1.8 0 1.8 0 2.3-1.3 2.7-.9a8 8 0 0 0 2.5.9z" fill="#ffcde5"/><path d="M616.5 289.7l-2 1.5a25.6 25.6 0 0 0-2.3 10 130.6 130.6 0 0 1-2.5 15.2l-3.8 6.9s-6.3 13.1-7.1 16.6-4.5 9.5-4.5 9.5-12.7 11.3-3.9 13.4 9.1-9 9.1-9 2-2.3 2.4-3.9 11.5-21.3 11.5-21.3 4-5.3 3.1-8.1c0 0 5.1-12 5.1-15a52.7 52.7 0 0 0-.8-7.5l.8-6.3z" fill="#ffd2c6"/><path d="M642.7 314.7s-9 4.7-10.6 5l7.5-1zm7.3 3.7s-11.9 4-17 3.3c0 0 12.9 2.4 17-3.3z" opacity=".1"/><path d="M650.7 319.7s-10.7 6.7-17 5.6c0 0 14.7 2.9 17 1.3l-6.6-1.8s7.3-3.8 6.6-5.1zm-12.3-86.2a11 11 0 0 0-9 1.7c-1.8 1.4-3 3.6-5 4.7a27.2 27.2 0 0 1-3.4 1.2 9.6 9.6 0 0 0-5.8 10.3c.3 1.8 1.1 3.4 1.6 5.2.7 3.2 0 6.5-.8 9.7a101.7 101.7 0 0 1-10 25 2.7 2.7 0 0 0-.6 1.7 2.5 2.5 0 0 0 .7 1c4.2 5 11 6.6 17.4 6.8a13.5 13.5 0 0 0 7-1.1 10.5 10.5 0 0 0 3.3-3.1 16.4 16.4 0 0 0 3.1-10.6c-.1-3-1.1-6.1-.4-9a2.3 2.3 0 0 1 .6-1.2c.7-.7 1.8-.5 2.8-.6 2.7-.3 4.4-3.1 4.7-5.8s-.4-5.4-.4-8a16.9 16.9 0 0 1 3.2-9.9c.9-1.2 2-2.4 2.3-4 .4-1.9-.7-3.3-1.7-4.8-1.5-2.4-2.2-5.1-4.5-6.9a12.1 12.1 0 0 0-5-2.3z" opacity=".1"/><path d="M637.7 232.8a11 11 0 0 0-9 1.7c-1.8 1.4-3 3.6-5 4.7a29 29 0 0 1-3.4 1.1 9.6 9.6 0 0 0-5.8 10.3c.3 1.8 1.2 3.5 1.6 5.3.7 3.1 0 6.5-.7 9.6a101.5 101.5 0 0 1-10.1 25 2.6 2.6 0 0 0-.5 1.7 2.3 2.3 0 0 0 .6 1c4.2 5 11 6.6 17.4 6.8a13.6 13.6 0 0 0 7-1.1 10.6 10.6 0 0 0 3.3-3.1 16.4 16.4 0 0 0 3.1-10.6c-.1-3-1.2-6.1-.4-9a2.5 2.5 0 0 1 .6-1.2c.7-.7 1.8-.5 2.8-.6 2.7-.3 4.4-3.1 4.7-5.8s-.4-5.4-.4-8a16.8 16.8 0 0 1 3.2-9.9c.9-1.2 2-2.4 2.3-4 .4-1.9-.7-3.3-1.7-4.8-1.5-2.4-2.2-5.1-4.5-7a12.1 12.1 0 0 0-5.1-2.1z" fill="#985c7e"/><path d="M633.8 346.4s2.3 10.9 6.2 13.9zM615.2 253l-.4-1.2.4 1.3zm33.1-9.4a4 4 0 0 1 0 1c-.3 1.6-1.4 2.8-2.3 4a16.9 16.9 0 0 0-3.2 9.9c0 2.7.7 5.3.4 8s-2 5.4-4.7 5.7c-1 .2-2.1 0-2.8.7a2.5 2.5 0 0 0-.6 1.1c-.7 3 .3 6 .5 9a16.4 16.4 0 0 1-3.2 10.6 10.4 10.4 0 0 1-3.4 3.1 13.4 13.4 0 0 1-6.9 1.2c-6.3-.2-13-1.9-17.2-6.5a1.7 1.7 0 0 0-.1.8 2.3 2.3 0 0 0 .6 1.1c4.2 4.9 11 6.5 17.4 6.7a13.6 13.6 0 0 0 7-1 10.6 10.6 0 0 0 3.3-3.2 16.4 16.4 0 0 0 3.1-10.6c-.1-3-1.2-6-.4-9a2.5 2.5 0 0 1 .6-1.1c.7-.8 1.8-.6 2.8-.7 2.7-.3 4.4-3.1 4.7-5.8s-.4-5.3-.4-8a16.8 16.8 0 0 1 3.2-9.8c.9-1.3 2-2.5 2.3-4a4.5 4.5 0 0 0-.7-3.2z" opacity=".1"/><ellipse cx="129.2" cy="500.1" rx="21.2" ry="2.1" fill="#5d97f7" opacity=".1"/><path d="M136.6 464.7s-27.6 14.3-13.4 31a5.3 5.3 0 0 0 5.3 3.4s-.8-1.4 2.1-2.5a14.4 14.4 0 0 0 3-1.6 7 7 0 0 0 2.7-3.6s5.7-7.5 1.3-21.5c0 0 .6-4 0-4.6l-3.3 4.6s3.5 2.3 3.9 5.8c0 0-3.6-5.8-4.4-5.1-.2.1-1.7 2.5-1.7 2.5s6 4 6.5 9.4c0 0-3.4-7.5-7-8.5l-2 3.7s6.5 4 7.2 10c0 0-3.8-7.6-7.7-9.1l-1.5 3.9s6.3 4 6.9 9c0 0-5.3-8.4-7.2-8 0 0-1.2 3.6-1 4.8 0 0 4.5 3 4.5 5.9 0 0-4-5.2-4.7-4.9 0 0-.3 5.3 1 8a15.9 15.9 0 0 1-1.8-8 8.7 8.7 0 0 0-2.7 4.3s-1.2-3 2.7-5.6c0 0 .4-4 .9-4.5 0 0-4.3 2-6 4.6 0 0 .6-3.8 6.3-5.7l1.5-4s-5.7 2.4-7.5 4.6c0 0 1.3-3.8 8-5.6l2-3.7s-5.1 1.8-7.6 3.7c0 0 2-3.2 8.2-4.7l1.6-2.3-4.7 1.8c-1 .5-1.3.2-1.3.2a13.3 13.3 0 0 1 6.7-3s3.4-4.4 3.2-4.7z" fill="#5d97f7"/><path d="M224.8 561.5c3 1.7 7.4 2.8 13.1-.9v8.1c.4 5.6 7.2 25.9 7.2 25.9l4.9 16.6a130.4 130.4 0 0 1 5.3 36.3A34.7 34.7 0 0 0 257 659c2.6 7-1 16-2.6 19.4a77 77 0 0 1-8 2.2 5.5 5.5 0 0 0-.7.2s-7.3 2.9-10.5 2.5c-2.4-.3-4 2.7-2 4.9a14.7 14.7 0 0 1-4.9.6c-3.2-.4-4.8 5.2 1.2 6.8s40.5 0 40.5 0a4.9 4.9 0 0 0 2.6-5.4l4.3-.2s6-2.8 0-10.3l-.4.2-1.2-3.8v-5.2s7.6-37 5.2-41.3-3.6-26.6-3.6-26.6l.8-24.2a57.5 57.5 0 0 0 3.9-17.2 36.6 36.6 0 0 0 1.5-8.2l.2-4a27.4 27.4 0 0 0-1.4-9.2 90.4 90.4 0 0 1 9.1-11.5 11.8 11.8 0 0 0 3.7-10.3l-2-13.5-4.9-23c.6-6.4-.7-10.1-2.2-12.2l1-6.2a79.3 79.3 0 0 0-1.5-27c-.7-3-1.6-6.3-3.8-8.6-2.5-2.7-6.4-4.3-7.3-7.7a25.2 25.2 0 0 0-.6-2.7c-.9-2.2-3.7-3-6.2-3.4a34 34 0 0 0-14.9.8 18 18 0 0 0-8.6 8 7 7 0 0 0-1 5 6.6 6.6 0 0 0 .7 1.8 15.2 15.2 0 0 0-1 5.3 15.5 15.5 0 0 0 10 14.4l.2.9a15 15 0 0 1 .4 2.1l-.3 4.3a4.7 4.7 0 0 1-.1.5 103.8 103.8 0 0 0-10.2 5.2c2.4 3.6-.4 18.7-.4 18.7-6 3.6-12.1 12.7-5.7 22.2s2.9 19.8 2.9 19.8l-1 15.5-.2 3.1v1.2h.2v1.3c-2.9 1-7 3.1-9.5 7a25 25 0 0 1-4.3 5.2 3.1 3.1 0 0 0 .5 5.2zm48.9-41.3a14.8 14.8 0 0 1 1.4-7.8h2.9c0 .7.2 1.3.3 1.9.8 3.5-2.4 5.2-4.6 5.9z" transform="translate(-61 -71.4)" fill="url(#a)"/><path d="M213.4 602.8l1.6 4.7-5 5-16.8 4-12-1.2.7-4.3a5.2 5.2 0 0 1 3.8-3.8c5-1.1 14.5-3.8 16.5-7.5z" fill="#db8b8b"/><path d="M213.4 602.8l1.6 4.7-5 5-16.8 4-12-1.2.7-4.3a5.2 5.2 0 0 1 3.8-3.8c5-1.1 14.5-3.8 16.5-7.5z" opacity=".1"/><path d="M185 614.1l2.3-3.1-2.3-3.6s-7 2.8-10.1 2.4-4.7 5.1 1.1 6.6 39 0 39 0 5.8-2.7 0-10l-5 3.8s-8.6 4.7-13 4z" fill="#2e3037"/><path d="M174.5 620.7l12 1.2 16.8-3.9 5-5-.3-1.3-.6-1.7-.6-1.7-11.3-3.1a7 7 0 0 1-2.3 2.3 48.8 48.8 0 0 1-14 5.2l-.6.1a5.2 5.2 0 0 0-2 1.2 5.1 5.1 0 0 0-1.4 2.4z" fill="#db8b8b"/><path d="M174.5 620.7l12 1.2 16.8-3.9 5-5-.3-1.3-4.7 3.6s-8.6 4.7-12.8 3.9h-12.1l2.3-3.1-2-3.3a5.2 5.2 0 0 0-2 1.2 5.1 5.1 0 0 0-1.5 2.5z" opacity=".1"/><path d="M178.4 619.6l2.3-3.1-2.3-3.6s-7 2.8-10.1 2.4-4.7 5 1.1 6.6 39 0 39 0 5.8-2.7 0-10.1l-5.1 3.8s-8.6 4.7-12.8 4z" fill="#2e3037"/><path d="M188.1 393.8s18.7 2 16-5.9a14.2 14.2 0 0 1-.6-6.8 19.1 19.1 0 0 1 3.3-8l-17.5 2.8a22.1 22.1 0 0 1 2.4 5.6c2 8.2-3.6 12.3-3.6 12.3z" fill="#db8b8b"/><path d="M220 482.5s-.3 16.8-4.2 25l-.9 23.7s1.2 21.8 3.5 26-5 40.6-5 40.6v6.2s-12.5 4.7-16-.8l3.5-46.3-1.5-64.3z" fill="#474463"/><path d="M220 482.5s-.3 16.8-4.2 25l-.9 23.7s1.2 21.8 3.5 26-5 40.6-5 40.6v6.2s-12.5 4.7-16-.8l3.5-46.3-1.5-64.3z" opacity=".1"/><path d="M227.8 428.8l2.4 6.2 2 13.3a11.7 11.7 0 0 1-3.6 10c-4.7 4.8-10.9 14.5-10.9 14.5l-7.4-22.2s7.4-1.1 6.2-6.2-.7-14.4-.7-14.4z" fill="#fc6681"/><path d="M227.8 428.8l2.4 6.2 2 13.3a11.7 11.7 0 0 1-3.6 10c-4.7 4.8-10.9 14.5-10.9 14.5l-7.4-22.2s7.4-1.1 6.2-6.2-.7-14.4-.7-14.4zm-34.6 178.7c5 7.8 12.8 3.4 14.2 2.5l-.6-1.7-11.3-3.1a7 7 0 0 1-2.3 2.3z" opacity=".1"/><path d="M177.6 497.7c.4 5.5 7 25.3 7 25.3l4.7 16.4a129.6 129.6 0 0 1 5.1 35.5 35 35 0 0 0 1.5 11.2c3.2 8.6-3 20.2-3 20.2 5.4 9.8 14.7 3.2 14.7 3.2v-6.3s7.4-33.9 5.5-40.5-2.8-24.5-2.8-24.5v-32.3a36.7 36.7 0 0 0 10.7-23.3l.2-4c.3-8.8-5.7-19-8-22.7-.5-1-.9-1.4-.9-1.4L177.9 468h-.1v4.4z" fill="#474463"/><path d="M189.3 375.9a22.1 22.1 0 0 1 2.4 5.6 15.2 15.2 0 0 0 11.8-.4 19.1 19.1 0 0 1 3.3-8z" opacity=".1"/><circle cx="197.1" cy="366.5" r="15.2" fill="#db8b8b"/><path d="M177.6 472.4h.2c16.3 3.4 36.8-13.7 36.8-13.7a20.9 20.9 0 0 1-1.4-2.9l-1-1.3L178 468l-.1 1.4z" opacity=".1"/><path d="M182 393.4s21.7-13.3 28.7-7.8l9.8 12.4s6.2 2 5 14.4l4.7 22.6-14 3.5s-8.3 7.8-1.6 19.1c0 0-20.6 17.2-37 13.7l1.1-18.3s3.6-10.2-2.7-19.5-.4-18.3 5.5-21.8c0 0 2.7-14.8.4-18.3z" fill="#fc6681"/><path d="M180.7 472.8s-8.1 1.5-12 7.8a24 24 0 0 1-4.1 5 3 3 0 0 0 .5 5c3 1.8 8 3 14.5-2.2 10.8-9 1.1-15.6 1.1-15.6z" fill="#db8b8b"/><path d="M192.8 400.8s7.8-.8 9.7 19.4 5 25 5 25 2 10.5-2.6 16.7-13.7 19.5-13.7 19.5-9.7 2.7-11.6-7l12-22.6s2-7.8-2.7-13.2-8.2-41.7 3.9-37.8z" opacity=".1"/><path d="M192 399.6s7.8-.8 9.7 19.5 5.1 25 5.1 25 2 10.4-2.7 16.6-13.7 19.5-13.7 19.5-9.7 2.7-11.6-7l12-22.6s2-7.8-2.7-13.2-8.2-41.7 4-37.8z" fill="#fc6681"/><path d="M185.6 414.2s-.8 12 2.7 18.7 3.5 15.2 0 19.9m-4.7-53.4s3.2-3.1 12.1-3.5 12.9-3.1 12.9-3.1" opacity=".1"/><path d="M205.3 346.9c2.4.3 5 1 6 3.3a24.8 24.8 0 0 1 .5 2.6c.8 3.4 4.7 5 7 7.6 2.1 2.3 3 5.4 3.7 8.4a79.2 79.2 0 0 1 1.4 26.4c-.8 6.5-2.3 12.9-2.8 19.3s.4 13.3 4 18.8c1.5 2.3 3.5 4.4 4.5 7-2.2 1.8-5.3 2-8.1 2.2h-10a10.7 10.7 0 0 1-5.1-1 7.8 7.8 0 0 1-2.7-3c-2-3.2-2.4-7.1-2.3-10.9s.6-7.5.7-11.3c0-2-.1-4.2-1.3-6a19.2 19.2 0 0 0-3.3-3c-4.1-3.6-5.6-9.5-5.7-15s.8-11.2.3-16.8c-.2-2.2-1-4.8-3.1-5.2a13.6 13.6 0 0 1-2-.2c-1.7-.7-1.6-3.1-2-4.9-.6-2-2.3-3.5-2.7-5.5-1.2-4.7 4.8-10.4 8.8-12s10-1.3 14.2-.8z" opacity=".1"/><path d="M205.7 346.1c2.4.3 5 1.1 6 3.3a24.4 24.4 0 0 1 .4 2.6c1 3.4 4.8 5 7.1 7.6 2.1 2.3 3 5.4 3.7 8.4a79.2 79.2 0 0 1 1.4 26.5c-.8 6.4-2.3 12.8-2.8 19.3s.4 13.3 4 18.7c1.4 2.4 3.5 4.4 4.5 7-2.2 1.8-5.3 2-8.1 2.2q-5 .2-10 0a10.7 10.7 0 0 1-5.2-1 7.9 7.9 0 0 1-2.7-3c-1.9-3.2-2.4-7.1-2.3-10.9s.7-7.5.7-11.3c0-2 0-4.2-1.3-5.9a19.6 19.6 0 0 0-3.2-3c-4.2-3.7-5.6-9.6-5.8-15.2s.8-11.1.3-16.7c-.1-2.1-1-4.7-3-5.2a13.6 13.6 0 0 1-2-.2c-1.8-.7-1.6-3.1-2-4.9-.6-2-2.3-3.5-2.8-5.5-1.1-4.7 4.9-10.3 8.8-12s10-1.3 14.3-.8z" fill="#472727"/><ellipse cx="961.1" cy="692.7" rx="24" ry="3.3" fill="#5d97f7" opacity=".1"/><ellipse cx="869.2" cy="702" rx="24" ry="3.3" fill="#5d97f7" opacity=".1"/><ellipse cx="760.9" cy="689.4" rx="24" ry="3.3" fill="#5d97f7" opacity=".1"/><ellipse cx="906" cy="728.5" rx="17.1" ry="2.3" fill="#5d97f7" opacity=".1"/><ellipse cx="810.6" cy="726.2" rx="17.1" ry="2.3" fill="#5d97f7" opacity=".1"/><path d="M868.7 701.3s33.7-110.4-5.3-154.6c-29.1-33-62.1-29.1-77-25a27.4 27.4 0 0 0-17.6 14.7c-5.2 11.2-4.3 29.3 32.3 50.4 61.1 35.4 65 84 65 84z" fill="#5d97f7"/><path d="M791.7 537.3s99.2 31 77 164m-19-152.8s-13.7 9.2-9.3 23m-38.7-14.9s8.3-8.5 18.5-3.8m20.8 46.6s14.6-7.4 18.4 1.9m17.8 13.7s-11-1-11.2 4.3" fill="none" stroke="#565987" stroke-miterlimit="10"/><path d="M870 702.1s-39.4-80.2-50.2-78.4c-5.1.8-7.5 5.9-8.6 11a32.3 32.3 0 0 0 2.2 19.5 86.4 86.4 0 0 0 56.6 48z" fill="#5d97f7"/><path d="M820 639s41.5 60 49.5 62.5m-53.2-53.2h9.6m2 21.9l15.1.7m-5.9-18.2l-1.7 7.9m17.8 16.1l-.3 7.1" fill="none" stroke="#565987" stroke-miterlimit="10"/><path d="M868.9 702.1s39.4-80.2 50.2-78.4c5.2.8 7.6 5.9 8.6 11a32.3 32.3 0 0 1-2.1 19.5 86.7 86.7 0 0 1-56.7 48z" fill="#5d97f7"/><path d="M918.8 639s-41.3 60-49.3 62.5m53.1-53.2H913m-1.9 21.9l-15.2.7m6-18.2l1.6 7.9m-17.7 16.1l.2 7.1" fill="none" stroke="#565987" stroke-miterlimit="10"/><path d="M801.2 720.9a6.8 6.8 0 0 1-2.2-3.4 3 3 0 0 1 1.5-3.5c1.5-.5 3 .5 4.2 1.5s2.5 2.1 4 2a6.2 6.2 0 0 1-2-5.8 2.4 2.4 0 0 1 .6-1.2c.8-.8 2.2-.5 3.2.2 3 2.1 3.9 6.3 4 10a18.9 18.9 0 0 0 0-4.1 4.2 4.2 0 0 1 1.5-3.7 4.7 4.7 0 0 1 2.3-.5 4.9 4.9 0 0 1 3.9 1c1.1 1.3.8 3.4-.2 4.8a14.7 14.7 0 0 1-4 3.1 8.9 8.9 0 0 0-2.8 2.7 3.5 3.5 0 0 0-.2.5h-8.6a23.7 23.7 0 0 1-5.2-3.6zm150.2-32.3a6.8 6.8 0 0 1-2.2-3.4 3 3 0 0 1 1.5-3.5c1.5-.5 3 .5 4.2 1.5s2.5 2.1 4 2a6.2 6.2 0 0 1-2-5.8 2.4 2.4 0 0 1 .6-1.1c.8-.9 2.3-.5 3.2.2 3 2 4 6.2 4 10a18.9 18.9 0 0 0 0-4.2 4.2 4.2 0 0 1 1.5-3.6 4.7 4.7 0 0 1 2.3-.6 4.9 4.9 0 0 1 3.9 1.1c1.1 1.3.8 3.3-.2 4.7a14.6 14.6 0 0 1-4 3.2 8.9 8.9 0 0 0-2.8 2.7 3.5 3.5 0 0 0-.2.5h-8.6a23.7 23.7 0 0 1-5.2-3.7zm-50.1 32.3a6.8 6.8 0 0 1-2.2-3.4 3 3 0 0 1 1.6-3.5c1.4-.5 3 .5 4.1 1.5s2.5 2.1 4 2a6.1 6.1 0 0 1-1.9-5.8 2.3 2.3 0 0 1 .5-1.2c.8-.8 2.3-.5 3.2.2 3 2.1 4 6.3 4 10a18.9 18.9 0 0 0 0-4.1 4.2 4.2 0 0 1 1.6-3.7 4.7 4.7 0 0 1 2.3-.5 4.9 4.9 0 0 1 3.8 1c1.2 1.3 1 3.4-.1 4.8a14.8 14.8 0 0 1-4 3.1 8.7 8.7 0 0 0-2.8 2.7 2.6 2.6 0 0 0-.2.5h-8.6a23.6 23.6 0 0 1-5.3-3.6zm-141.9-65.3s-3.3 4.2 1.4 10.5 8.6 11.7 7 15.7c0 0-7-11.8-12.8-12s-2-7.2 4.4-14.2z" fill="#5d97f7"/><path d="M759.4 655.6a5 5 0 0 0-.7 1.3c-5.6 6.6-8.6 12.8-3.2 13 5 0 11 9.1 12.5 11.4a3.2 3.2 0 0 1-.2.5s-7-11.8-12.8-12-2-7.2 4.4-14.2z" opacity=".1"/><path d="M753.4 661c0 1.4.2 2.6.4 2.6s.3-1.2.3-2.7-.2-.8-.4-.8-.3-.6-.3.8z" fill="#ffd037"/><path d="M751.3 662.7c1.3.7 2.5 1.1 2.6 1s-1-1-2.2-1.7-.8-.1-.9 0-.8 0 .5.7z" fill="#ffd037"/><path d="M776.3 655.6s3.3 4.2-1.4 10.5-8.6 11.7-7 15.7c0 0 7-11.8 12.8-12s2-7.2-4.4-14.2z" fill="#5d97f7"/><path d="M776.3 655.6a5.2 5.2 0 0 1 .7 1.3c5.6 6.6 8.6 12.8 3.2 13-5 0-11 9.1-12.5 11.4l.1.5s7.1-11.8 13-12 1.9-7.2-4.5-14.2z" opacity=".1"/><path d="M782.3 661c0 1.4-.1 2.6-.4 2.6s-.3-1.2-.3-2.7.2-.8.4-.8.3-.6.3.8z" fill="#ffd037"/><path d="M784.4 662.7c-1.3.7-2.5 1.1-2.5 1s.8-1 2.1-1.7.8-.1 1 0 .7 0-.6.7z" fill="#ffd037"/><path d="M781.3 681.2s-9-.2-11.7-2.2-13.8-4.2-14.5-1.1-13.5 15.4-3.4 15.5 23.6-1.6 26.3-3.3 3.3-8.9 3.3-8.9z" fill="#a8a8a8"/><path d="M751.5 692.3a86 86 0 0 0 26.3-3.2c2.1-1.3 3-5.8 3.2-7.9h.3s-.6 7.3-3.3 9-16.1 3.2-26.3 3.2c-2.9 0-4-1.1-3.9-2.7.5 1 1.6 1.6 3.8 1.6z" opacity=".2"/><ellipse cx="167.3" cy="706.1" rx="34.7" ry="5.1" fill="#5d97f7" opacity=".1"/><ellipse cx="251.4" cy="752.1" rx="34.7" ry="5.1" fill="#5d97f7" opacity=".1"/><ellipse cx="622.3" cy="632.1" rx="23" ry="2.6" fill="#5d97f7" opacity=".1"/><ellipse cx="514.8" cy="706.1" rx="23" ry="2.6" fill="#5d97f7" opacity=".1"/><ellipse cx="466.3" cy="752.1" rx="23" ry="2.6" fill="#5d97f7" opacity=".1"/></svg>