<svg data-name="Layer 1" xmlns="http://www.w3.org/2000/svg" xmlns:xlink="http://www.w3.org/1999/xlink" width="1097.1" height="845.4"><defs><linearGradient id="a" x1="710.5" y1="844.2" x2="710.5" y2="713.1" gradientUnits="userSpaceOnUse"><stop offset="0" stop-color="gray" stop-opacity=".3"/><stop offset=".5" stop-color="gray" stop-opacity=".1"/><stop offset="1" stop-color="gray" stop-opacity=".1"/></linearGradient><linearGradient id="b" x1="527.5" y1="850.6" x2="527.5" y2="206.3" xlink:href="#a"/><linearGradient id="c" x1="465.7" y1="168.5" x2="652.9" y2="168.5" xlink:href="#a"/></defs><path d="M870.2 694.8c16 8 35.5 3.1 53.7 3.7 2.5 0 5.1.3 7.1 1.7s3 3.7 4.4 5.6c5 7.2 15.5 9.5 24.6 8.3s17.5-5.3 26.1-8.4c15-5.3 32-7.7 46.6-1.9a8.5 8.5 0 0 0 4.2 1c3.2-.5 4.2-4.4 6.4-6.6 4.1-4 13-3 14.7-8.2 1-3-1.3-6.2-4-8.3-10-8-24.4-9.4-37.5-8.2s-26 4.7-39.2 4.7c-16.5 0-32.4-5.3-48.6-7.4a67.2 67.2 0 0 0-34.2 3c-11.4 4.9-14 15.5-24.3 21zM11.8 430C29.2 504.2 66 568.3 124 599.4c120.7 64.6 393 31.3 596.1-7a465.2 465.2 0 0 0 264.5-151.2zM1077.2 80.7H965.7a9.6 9.6 0 0 1 0-19.3H985a9.6 9.6 0 0 1 0-19.2h-13.8a9.6 9.6 0 0 1 0-19.3h58.2c-12.9-6-28-10.3-45.4-12.5-158.6-20.4-215.3-7-235.2 7A222.2 222.2 0 0 1 667.2 53c-97.9 20.2-280.9 44.5-446.8-7.7-82.5-26-143.8 17.9-180.5 91.2h1056.6c-1.3-21.3-5.5-41-13-58.2a9.6 9.6 0 0 1-6.3 2.3zM2.4 275.1a491.1 491.1 0 0 0 4.3 129.4l978.7 35.9a460 460 0 0 0 68-103.7zm387 92.3h-19.2a9.6 9.6 0 1 1 0 19.3H258.7a9.6 9.6 0 1 1 0-19.2H278a9.6 9.6 0 0 1 0-19.3h-13.8a9.6 9.6 0 0 1 0-19.3h111.5a9.6 9.6 0 0 1 0 19.3h13.8a9.6 9.6 0 0 1 0 19.3zM1096.6 137.3l-1068.5 26A426.3 426.3 0 0 0 2.5 273.6H1078a457.4 457.4 0 0 0 15.5-70.3c3.2-23 4.5-45.3 3.2-66zm-877.1 85.1h-19.3a9.6 9.6 0 1 1 0 19.3H88.7a9.6 9.6 0 0 1 0-19.3H108a9.6 9.6 0 0 1 0-19.2H94.2a9.6 9.6 0 0 1 0-19.3h111.5a9.6 9.6 0 0 1 0 19.3h13.8a9.6 9.6 0 0 1 0 19.2z" fill="#5d97f7" opacity=".1"/><g opacity=".1"><path d="M583.3 593.6s28.2-69.5 80.9-95.3a113.6 113.6 0 0 0 51.5-50 191.3 191.3 0 0 0 13-32.5" fill="none" stroke="#535461" stroke-miterlimit="10" stroke-width="2"/><path d="M761.8 399.3c-5.5 7-34 17-34 17s3.5-30 9-36.8a16 16 0 1 1 25 19.9zM752 454c-8.4 2.8-37.7-4.2-37.7-4.2s19.2-23.3 27.5-26A16 16 0 1 1 752 454zM699.1 518.6c-8.6-1.8-30.4-22.6-30.4-22.6s28.3-10.5 37-8.7a16 16 0 0 1-6.6 31.3zM648.1 558.5c-8.8-.3-33.8-17.2-33.8-17.2s26.2-15 35-14.7a16 16 0 1 1-1.2 31.9zM687 430.3c1.1 8.7 20.2 32 20.2 32s12.6-27.3 11.5-36a16 16 0 1 0-31.7 4zM628 477.7c3.7 8 28.9 24.5 28.9 24.5s3.8-29.9 0-37.9a16 16 0 0 0-29 13.4zM576.9 531.6c2.3 8.5 24.3 29.1 24.3 29.1s8.8-28.8 6.5-37.4a16 16 0 0 0-30.8 8.3z" fill="#5d97f7"/><path d="M761.8 399.3c-5.5 7-34 17-34 17s3.5-30 9-36.8a16 16 0 1 1 25 19.9zM752 454c-8.4 2.8-37.7-4.2-37.7-4.2s19.2-23.3 27.5-26A16 16 0 1 1 752 454zM699.1 518.6c-8.6-1.8-30.4-22.6-30.4-22.6s28.3-10.5 37-8.7a16 16 0 0 1-6.6 31.3zM648.1 558.5c-8.8-.3-33.8-17.2-33.8-17.2s26.2-15 35-14.7a16 16 0 1 1-1.2 31.9zM687 430.3c1.1 8.7 20.2 32 20.2 32s12.6-27.3 11.5-36a16 16 0 1 0-31.7 4zM628 477.7c3.7 8 28.9 24.5 28.9 24.5s3.8-29.9 0-37.9a16 16 0 0 0-29 13.4zM576.9 531.6c2.3 8.5 24.3 29.1 24.3 29.1s8.8-28.8 6.5-37.4a16 16 0 0 0-30.8 8.3z" opacity=".3"/></g><g opacity=".1"><path d="M604.4 488.4s3.6-75 44.7-116.7a113.6 113.6 0 0 0 32-64.4 191.2 191.2 0 0 0 1.4-34.9" fill="none" stroke="#535461" stroke-miterlimit="10" stroke-width="2"/><path d="M708.3 246c-2.9 8.3-26.3 27.2-26.3 27.2s-6.7-29.4-3.8-37.7a16 16 0 1 1 30.1 10.4zM717.3 300.7c-7 5.4-37 8.6-37 8.6s10.4-28.4 17.3-33.8a16 16 0 0 1 19.7 25.2zM688.8 379.2c-8.7 1.2-36.2-11.3-36.2-11.3s23.2-19.2 32-20.3a16 16 0 0 1 4.2 31.6zM654 433.7c-8.5 2.7-37.7-5-37.7-5s19.7-22.8 28.1-25.5a16 16 0 1 1 9.5 30.5zM648.1 300c4 7.8 29.7 23.5 29.7 23.5s2.8-30-1.2-38a16 16 0 1 0-28.5 14.4zM608.1 364.2c6.1 6.3 35.4 13.6 35.4 13.6s-6.3-29.5-12.5-35.8a16 16 0 1 0-22.9 22.2zM577.8 432c5 7.3 32.6 19.4 32.6 19.4s-1.3-30.1-6.2-37.4a16 16 0 1 0-26.4 18z" fill="#5d97f7"/></g><path d="M988.6 622.7s5.5 7.2-2.5 18-14.7 20-12 26.8c0 0 12-20.2 22-20.5s3.4-12.2-7.5-24.3z" fill="#5d97f7"/><path d="M988.6 622.7a9 9 0 0 1 1.1 2.3c9.6 11.3 14.8 21.8 5.5 22-8.6.3-19 15.7-21.4 19.6a9.2 9.2 0 0 0 .3.9s12.1-20.1 22-20.4 3.4-12.3-7.5-24.4z" opacity=".1"/><path d="M998.8 631.8c0 2.6-.3 4.6-.6 4.6s-.7-2-.7-4.6.4-1.3.7-1.3.6-1.2.6 1.3z" fill="#ffd037"/><path d="M1002.3 634.9c-2.2 1.2-4.1 1.9-4.3 1.6s1.5-1.5 3.7-2.7 1.4-.4 1.5 0 1.3-.1-.9 1z" fill="#ffd037"/><path d="M959.5 622.7s-5.5 7.2 2.6 18 14.6 20 12 26.8c0 0-12.1-20.2-22-20.5s-3.4-12.2 7.4-24.3z" fill="#5d97f7"/><path d="M959.5 622.7a9 9 0 0 0-1 2.3c-9.7 11.3-14.8 21.8-5.6 22 8.6.3 19 15.7 21.4 19.6a7.2 7.2 0 0 1-.3.9s-12-20.1-22-20.4-3.3-12.3 7.5-24.4z" opacity=".1"/><path d="M949.4 631.8c0 2.6.3 4.6.6 4.6s.6-2 .6-4.6-.3-1.3-.7-1.3-.5-1.2-.5 1.3z" fill="#ffd037"/><path d="M945.9 634.9c2.2 1.2 4.1 1.9 4.3 1.6s-1.5-1.5-3.7-2.7-1.4-.4-1.5 0-1.4-.1.9 1z" fill="#ffd037"/><path d="M951.1 666.5s15.4-.4 20-3.7 23.6-7.3 24.8-2 23 26.3 5.7 26.4-40.3-2.7-44.9-5.5-5.6-15.2-5.6-15.2z" fill="#a8a8a8"/><path d="M1002 685.4c-17.4.2-40.3-2.7-45-5.5-3.5-2.1-4.9-9.8-5.4-13.4h-.5s1 12.4 5.6 15.2 27.6 5.7 45 5.5c5 0 6.7-1.8 6.6-4.4-.8 1.6-2.6 2.6-6.4 2.6z" opacity=".2"/><path d="M.8 718.5c20.7 7.5 46 3 69.4 3.5 3.2 0 6.6.3 9.2 1.6s3.9 3.4 5.6 5.1c6.6 6.7 20 8.9 31.8 7.7s22.6-4.8 33.7-7.7c19.3-5 41.2-7.2 60.2-1.8a14.5 14.5 0 0 0 5.4.9c4.2-.5 5.4-4 8.3-6.1 5.2-3.7 16.6-2.7 19-7.6 1.3-2.8-1.8-5.7-5.2-7.7-13-7.4-31.5-8.7-48.4-7.5s-33.6 4.3-50.7 4.3c-21.2 0-41.7-4.8-62.7-6.8a119.4 119.4 0 0 0-44.1 2.8c-14.8 4.4-18 14.3-31.5 19.3z" fill="#5d97f7" opacity=".1"/><path d="M234.6 699a11.6 11.6 0 0 0 3.9-5.9c.5-2.3-.5-5-2.7-5.9-2.5-.9-5 .8-7 2.5s-4.4 3.7-7 3.4a10.5 10.5 0 0 0 3.3-9.9 4.1 4.1 0 0 0-1-2c-1.3-1.4-3.8-.8-5.4.4-5.2 3.6-6.7 10.7-6.7 17-.5-2.3 0-4.6 0-7s-.7-5-2.7-6.2a8 8 0 0 0-4-1c-2.4 0-5 .2-6.6 1.9-2 2-1.4 5.7.3 8s4.4 3.8 6.8 5.4a15 15 0 0 1 4.8 4.6 4.4 4.4 0 0 1 .4.8h14.6a40.4 40.4 0 0 0 9-6.2z" fill="#5d97f7"/><path d="M118.2 714.7s-14-47.7 2.6-82.8a75.4 75.4 0 0 0 6.1-47.3 127.5 127.5 0 0 0-6.7-22.2" fill="none" stroke="#535461" stroke-miterlimit="10" stroke-width="2"/><path d="M130.6 540.2c0 5.9-10.6 22.8-10.6 22.8s-10.6-17-10.6-22.8a10.6 10.6 0 1 1 21.2 0zM148.1 572.6c-3.1 4.9-21.3 13.4-21.3 13.4s.4-20 3.5-25a10.6 10.6 0 0 1 17.8 11.6zM147.4 628c-5.3 2.6-25.2.8-25.2.8s10.4-17.1 15.6-19.8a10.6 10.6 0 1 1 9.6 19zM137.4 669.7c-4.7 3.5-24.7 5-24.7 5s7.4-18.6 12-22a10.6 10.6 0 1 1 12.6 17zM104.6 587.1c4.2 4 23.7 8.3 23.7 8.3s-4.7-19.4-9-23.5a10.6 10.6 0 1 0-14.7 15.2zM93.5 636c5.3 2.7 25.2.9 25.2.9s-10.4-17-15.6-19.7a10.6 10.6 0 0 0-9.5 18.9zM89.3 685.2c4.7 3.4 24.6 5 24.6 5s-7.3-18.6-12-22.1a10.6 10.6 0 1 0-12.6 17z" fill="#5d97f7"/><path d="M130.6 540.2c0 5.9-10.6 22.8-10.6 22.8s-10.6-17-10.6-22.8a10.6 10.6 0 1 1 21.2 0zM148.1 572.6c-3.1 4.9-21.3 13.4-21.3 13.4s.4-20 3.5-25a10.6 10.6 0 0 1 17.8 11.6zM147.4 628c-5.3 2.6-25.2.8-25.2.8s10.4-17.1 15.6-19.8a10.6 10.6 0 1 1 9.6 19zM137.4 669.7c-4.7 3.5-24.7 5-24.7 5s7.4-18.6 12-22a10.6 10.6 0 1 1 12.6 17zM104.6 587.1c4.2 4 23.7 8.3 23.7 8.3s-4.7-19.4-9-23.5a10.6 10.6 0 1 0-14.7 15.2zM93.5 636c5.3 2.7 25.2.9 25.2.9s-10.4-17-15.6-19.7a10.6 10.6 0 0 0-9.5 18.9zM89.3 685.2c4.7 3.4 24.6 5 24.6 5s-7.3-18.6-12-22.1a10.6 10.6 0 1 0-12.6 17z" fill="#5d97f7"/><path d="M85 711.7s17.1-3.4 21.7-8 25-12.4 27.3-6.7 30.8 24.9 11.5 28.3-45.7 4.5-51.4 2.3-9.1-16-9.1-16z" fill="#a8a8a8"/><path d="M145.5 723.2c-19.4 3.4-45.7 4.5-51.4 2.2-4.3-1.7-7.3-10-8.5-13.8H85s3.4 13.7 9.1 16 32 1 51.4-2.3c5.5-1 7.1-3.3 6.5-6.2-.5 1.9-2.4 3.3-6.5 4z" opacity=".2"/><path d="M343.8 813.2c39.3 13.2 87.3 5.2 132 6.1 6 .2 12.5.6 17.4 2.8s7.3 6 10.7 9.2c12.5 11.8 38 15.6 60.5 13.6s42.9-8.6 64-13.7c36.5-8.7 78.2-12.7 114.3-3.2 3.3.9 6.8 1.9 10.3 1.6 7.9-.8 10.2-7.1 15.8-10.8 10-6.5 31.6-4.7 36-13.3 2.5-5-3.4-10.2-9.8-13.6-24.6-13.2-59.8-15.4-92-13.3s-64 7.6-96.3 7.6c-40.4 0-79.4-8.6-119.3-12.1-27.7-2.5-58-2.1-83.9 5-28 7.8-34.3 25.3-59.7 34.1z" fill="#5d97f7" opacity=".1"/><path d="M761.4 739.8l.9-5.7c1.5-8.2-.8-16-2-19.3l-.6-1.5c-6.1-1.7-30 16.8-38.7 23.8-3 0-6.3.2-9.9.4l-4.7.1h-5.7c-8-6.5-33.1-26-39.3-24.4l-.7 1.6c-1.1 3.2-3.4 11-2 19.3l1 5.7c.4 4.2 2.1 12.2 8.5 17.6 1.4 10 6.5 23 10.4 30.8a22.4 22.4 0 0 0 1.3 4.4 67.3 67.3 0 0 0-3 17s-8.4-2-9.3 8.2v.3c-3 1.4-6.9 4.6-2.6 11.4a4.4 4.4 0 0 0 2.2 1.8c.8.2 1.5.2 1.4-.8l5.3 6s9.6 1 9.7-4.5h.6c1.3.3 2.6.4 4 .6l.6 2.2s-7.1-.2-5.2 4.2c0 0 1.8 1.7 2.4 1.1 0 0-.9 3 2.8 3 0 0 4 2 5.6.5s4.9-3.8 5.2-4.7l.1-5.6h.6c8 .2 16.6-.1 24.3-.5h.7l.1 6.1c.3 1 3.6 3.2 5.1 4.8s5.6-.7 5.6-.7c3.8 0 2.8-2.9 2.8-2.9.6.6 2.5-1 2.5-1 2-4.5-5.3-4.3-5.3-4.3l.9-2.8 4-.4h.6c-.4 6 9.7 4.9 9.7 4.9l5.3-6c-.1 1 .6 1 1.4.8a4.4 4.4 0 0 0 2.2-1.8c6.5-10.2-5.5-12.3-5.5-12.3a5.6 5.6 0 0 0-1.1-.2v-.5a22.6 22.6 0 0 0 0-4c-.4-1.8-3.4-4.7-7-5.2-2.5-.3-2.6-11.5-2.3-19.3a22.7 22.7 0 0 0 .4-4.4 23.6 23.6 0 0 0-1-7c4.7-8.1 8.6-16.6 9-19.1a27 27 0 0 0 8.7-17.7z" transform="translate(-51.5 -27.3)" fill="url(#a)"/><path d="M700.7 789.7c-.4 5.3-1.4 13.7-1.4 13.7l-10.8 1.1-4.4.4-11.3.8a307.5 307.5 0 0 1-34.5-.2l-4.5-.5c-8.9-1.3-15.2-3.9-15.8-8.3a25.6 25.6 0 0 1-.2-5.7c.9-10 9-8 9-8a70.4 70.4 0 0 1 3-17.5l1.9-7 57.2-3.7h.2a2.8 2.8 0 0 1 2.8 2.9c-.3 6.9-.8 22.6 2 23 3.6.4 6.5 3.2 6.9 5a21.7 21.7 0 0 1 0 4zM652.1 714.3s-21.6 26-32 18.8l-.7-.5c-7-5.3-8.9-13.8-9.3-18.1-.2-2-.5-3.8-.9-5.7a39 39 0 0 1 2-19c.2-1 .5-1.4.5-1.4 7.2-2 40.4 26 40.4 26z" fill="#d3899b"/><path d="M640.5 716.7s-6.8 4.8-16.3 12.6a34.2 34.2 0 0 1-4.8 3.3c-7-5.3-8.8-13.8-9.3-18.1l-.8-5.7a39 39 0 0 1 1.9-19c13.3 1 29.3 27 29.3 27z" fill="#eec5cd"/><path d="M633.1 714.2s-3.6 2.5-8.7 6.7a19.5 19.5 0 0 1-2.6 1.8 14.3 14.3 0 0 1-5-9.7c0-1-.2-2-.4-3a20.8 20.8 0 0 1 1-10.1c7.2.5 15.7 14.3 15.7 14.3z" opacity=".1"/><path d="M666 714.3s21.7 26 32 18.8l.8-.5c7-5.3 8.8-13.8 9.3-18.1.2-2 .5-3.8.9-5.7a39 39 0 0 0-2-19l-.5-1.4c-7.2-2-40.4 26-40.4 26z" fill="#d3899b"/><path d="M677.7 716.7s6.8 4.8 16.4 12.6a34.9 34.9 0 0 0 4.7 3.3c7-5.3 8.8-13.8 9.3-18.1l.8-5.7a39 39 0 0 0-1.9-19c-13.4 1-29.3 27-29.3 27z" fill="#eec5cd"/><path d="M685.1 714.2s3.6 2.5 8.7 6.6a18.6 18.6 0 0 0 2.5 1.8c3.7-2.8 4.7-7.4 5-9.6 0-1 .2-2 .4-3a20.8 20.8 0 0 0-1-10.1c-7.1.5-15.6 14.3-15.6 14.3zM689 754.8a51 51 0 0 1-8.3 10.5c-8.6 7.6-45.6 4.6-48 4.2-.5 0-1.6-1.6-2.9-4l1.9-6.9z" opacity=".1"/><path d="M659.7 712.2H655c-7.7 0-33.7.3-36.6 10.8-3.4 12.3 11.8 45.5 14.2 45.9s39.4 3.4 48-4.2 19.8-31.4 19.2-33.6c0 0 10.6-22.5-40.2-19z" fill="#d3899b"/><path d="M658.8 732.2s-19-2.9-28 15.8a22.8 22.8 0 0 0 1.7 23c3 4.2 7.4 7.3 13.4 4.8 13.5-5.5 13-43.6 13-43.6z" opacity=".1"/><path d="M658.3 731s-19-2.9-28 15.8a22.8 22.8 0 0 0 1.6 23c3 4.2 7.4 7.3 13.4 4.8 13.5-5.5 13-43.6 13-43.6z" opacity=".1"/><path d="M658.3 731.6s-19-2.9-28 15.8a22.8 22.8 0 0 0 1.6 23c3 4.2 7.4 7.3 13.4 4.8 13.5-5.5 13-43.6 13-43.6z" fill="#eec5cd"/><path d="M637.7 748s-2.6 2.4-1.6 3 1.6-3 1.6-3zM640.5 751s-1.4 3.2-.4 3.6 1.6-2.3 1.6-2.3zM634.2 755.8s-1.4 3.7 0 3.7 0-3.7 0-3.7z" fill="#3f2b3b"/><path d="M632.5 765.7s2.8 7 10 6.6M639 767.8s3 2.8 6 .8" fill="none" stroke="#3f2b3b" stroke-miterlimit="10"/><path d="M661.3 732.2s19-2.9 28 15.8a22.8 22.8 0 0 1-1.7 23c-3 4.2-7.4 7.3-13.4 4.8-13.6-5.5-13-43.6-13-43.6z" opacity=".1"/><path d="M661.8 731s19-2.9 28 15.8a22.8 22.8 0 0 1-1.6 23c-3 4.2-7.4 7.3-13.4 4.8-13.5-5.5-13-43.6-13-43.6z" opacity=".1"/><path d="M661.8 731.6s19-2.9 28 15.8a22.8 22.8 0 0 1-1.6 23c-3 4.2-7.4 7.3-13.4 4.8-13.5-5.5-13-43.6-13-43.6z" fill="#eec5cd"/><path d="M682.4 748s2.6 2.4 1.6 3-1.6-3-1.6-3zM679.5 751s1.5 3.2.5 3.6-1.7-2.3-1.7-2.3zM685.9 755.8s1.3 3.7 0 3.7 0-3.7 0-3.7z" fill="#3f2b3b"/><path d="M687.5 765.7s-2.7 7-10 6.6M681 767.8s-2.8 2.8-6 .8" fill="none" stroke="#3f2b3b" stroke-miterlimit="10"/><path d="M651 785.9c.5-.1 10-4.2 19.8 0z" fill="#3f2b3b"/><path d="M633.8 805c-8.9-1.3-15.2-3.9-15.8-8.3a25.6 25.6 0 0 1-.2-5.7 13 13 0 0 1 3.4-1.2c1.6-.5 3.6-.2 7.8 1s4 6.1 4.8 12.6a5 5 0 0 1 0 1.6z" opacity=".1"/><path d="M620.6 790.4s-11.5 2.1-5.3 12a4.2 4.2 0 0 0 2.2 1.8c.7.3 1.4.3 1.3-.8l5.1 5.9s10.2 1.2 9.3-5.3-.6-11.4-4.8-12.6-6.2-1.5-7.8-1z" fill="#d3899b"/><path d="M623.4 797s2.4 5.7 5.8 1M617.8 799.3s1.2 5.3 6 1.3" fill="none" stroke="#3f2b3b" stroke-miterlimit="10"/><path d="M700.7 789.7c-.4 5.3-1.4 13.7-1.4 13.7l-10.8 1.1a6 6 0 0 1 0-1c1-6.5.6-11.5 4.8-12.7 3.9-1 5.9-1.4 7.4-1.1z" opacity=".1"/><path d="M701.8 790.4s11.5 2.1 5.3 12a4.3 4.3 0 0 1-2.2 1.8c-.7.3-1.4.3-1.3-.8l-5.1 5.9s-10.2 1.2-9.3-5.3.6-11.4 4.8-12.6 6.2-1.5 7.8-1z" fill="#d3899b"/><path d="M699 797s-2.4 5.7-5.8 1M704.6 799.3s-1.2 5.3-6 1.3" fill="none" stroke="#3f2b3b" stroke-miterlimit="10"/><path d="M649.4 806.2c-3.9-.1-7.6-.3-11.1-.7l-3.5-11.6a7.4 7.4 0 1 1 14.5-2.2v14.5z" opacity=".1"/><path d="M634.2 793.9l4.1 13.7s-7-.1-5 4.2c0 0 1.8 1.7 2.4 1 0 0-1 2.9 2.7 2.9 0 0 3.8 2 5.3.6s4.7-3.8 5-4.7c.2-.6.2-12 .1-20a7.4 7.4 0 0 0-7.4-7.3 7.4 7.4 0 0 0-7.2 9.6z" fill="#d3899b"/><path d="M639.7 811.2s-3 2.9-1.4 4.5M638.4 809.4s-2.8.9-2.8 3.5" fill="none" stroke="#3f2b3b" stroke-miterlimit="10"/><path d="M687.7 791.8a7.4 7.4 0 0 1-.3 2l-3.3 11c-3.4.4-7.2.6-11.3.9v-14a7.4 7.4 0 0 1 14.9 0z" opacity=".1"/><path d="M688 793.9l-4.1 13.7s7-.1 5 4.2c0 0-1.8 1.7-2.4 1 0 0 1 2.9-2.7 2.9 0 0-3.8 2-5.4.6s-4.6-3.8-5-4.7c-.2-.6 0-12 0-20a7.4 7.4 0 0 1 7.4-7.3 7.4 7.4 0 0 1 7.1 9.6z" fill="#d3899b"/><path d="M682.4 811.2s3 2.9 1.5 4.5M683.8 809.4s2.8.9 2.8 3.5" fill="none" stroke="#3f2b3b" stroke-miterlimit="10"/><path d="M658.3 728.6s-14.1-.4-14.6 10.5 22 6.3 22 6.3 9.5-1.2 7.8-7.9-5-8.3-15.3-8.9z" opacity=".1"/><path d="M658.3 727.4s-14.1-.4-14.6 10.5 22 6.3 22 6.3 9.5-1.3 7.8-7.9-5-8.3-15.3-8.9z" opacity=".1"/><path d="M658.3 728s-14.1-.4-14.6 10.5 22 6.3 22 6.3 9.5-1.2 7.8-7.9-5-8.3-15.3-8.9z" fill="#3f2b3b"/><path d="M626.8 783s4.7 1.7 5.7 5M694 780.7s-3.5 1.4-3.2 7.3" opacity=".1"/><ellipse cx="678.3" cy="831.8" rx="2.2" ry="3.6" transform="rotate(-30 601.6 914.2)" fill="#eec5cd"/><ellipse cx="747.2" cy="831.8" rx="3.6" ry="2.2" transform="rotate(-60.1 693.4 859)" fill="#eec5cd"/><path d="M682.3 433.4c-3.2-1-22.4-15.9-23.8-22.6s10-69.2 10-69.2l-2.7-.2v-1l2.4-82.1s9.7-55-8.7-52-6.8 52-6.8 52-2.1 24.7-3.6 32.1c-1.4 7.2-7.8 36.3-3.5 45.3a6.9 6.9 0 0 0 .6 1s.7 31-7.2 35.3c-7.6 4-10.8 24.3-11 26.2l-.4-.2a22 22 0 0 1-6-5.3c0-.2-.2-.4-.4-.6a29.9 29.9 0 0 0-.8-41.2l-.7-.7a5.3 5.3 0 0 0 1.3-2.2c1.4-4.2-3.4-7.6-6-10.3-5.8-6.1-11-13.7-19.1-17.2a32.4 32.4 0 0 1 6.4 4.8 27.3 27.3 0 0 0-8.3-5c-8.5-3-18.2-.5-25.6 4.6s-12.9 12.4-17.9 19.7l-2.4 3.6a59 59 0 0 0-6.9-6.6c-4.7-3.5-14-15.2-14-15.2s-29.3-29.6-31.5-37.7-31.4-56.9-37.9-48.4 22.4 45.5 22.4 45.5 5.4 13.4 9.8 18 36.4 50.5 36.4 50.5l2.7 5.5.5 1-.3-.2v6.7l3 .3a28.4 28.4 0 0 0-3.6 3.9 25.1 25.1 0 0 0-3.6 7.8 73 73 0 0 0 3.3 47.9c1.2 3 2.7 6.2 3 9.5.6 4.7-1 9.3-1.9 14a28.1 28.1 0 0 0 2 19.2 22.6 22.6 0 0 0 23 10.2 26 26 0 0 0 11-4.7 29.7 29.7 0 0 0 9.8-11.3c1.7-3.4 2.7-7 4.3-10.4l1-1.9 7.1 8s8 38.2 1.1 48.7a65.3 65.3 0 0 1-13.1 14.2 25.6 25.6 0 0 0-3.5 3.5l-1 .7s-.3.5-.5 1.3a23.6 23.6 0 0 0-3.5 7.8 5.1 5.1 0 0 0-.2 2.2c.5 1-3.5 5-2.4 6.7-10 11.5-11.9 29-11.9 29L534.5 601c-9.4 24.2-23.5 26.7-23.5 26.7s-33-21.7-33.9-22.8-13.5-6.3-13.5-6.3a14.2 14.2 0 0 0-6.5-5.9c-4.3-1.7-4.7-8.2-4.7-8.2-.5-15.4-9.8-16.6-9.8-16.6-7.4-.7-13 .6-17.4 3l-1.3.1-22.6 1.6c-23.4 1.5-29 16.4-29 16.4s-3 3.2.9 6.7 28 0 29-.1a15.7 15.7 0 0 1-5.5-.4l13.5-.3h1a55.4 55.4 0 0 0-.3 7c0 4.4 12.4 7.3 12.4 7.3l38 33s23.7 10.4 39 25.4 28.4 2.1 28.4 2.1c16-3.9 62.2-58.5 62.3-58.6 0 1.7 1 54.8 2.8 65.4a7 7 0 0 0 .4 1.6c2.2 4.6-.7 17.2-2 22.5s-.9 13.4-.9 13.4-17.3 64.9-15.8 70.5-9.4 32.2-9.4 32.2v22h1.9a10.4 10.4 0 0 0-.7 1 2 2 0 0 0-.1.3s11.5 2.4 19.3 1.7 21.1 5.9 21.1 5.9 4.5 2 18.4 3 13.9-6 13.9-6c-1.6-9.4-23.5-12.5-24.2-12.6-1.8-1.1-3.5-2.3-4.8-3.3l-.3-.3a3.5 3.5 0 0 0 .3-.6c2.3-9.3-10.7-13.4-10.7-13.4v-2.3c8.5-4.2 10.1-33.4 10.1-33.4s12.6-36 14.4-42 0-15 0-15l1.3-7.7s2.7-5.3 2.7-6.4a15.6 15.6 0 0 1 3-7.4c2-2.3-2-7.8-2-7.8l3.5-9.1V673l8.5-36.5s8.9-42.5 5.8-56.5 3.6-21 3.6-21a18.7 18.7 0 0 1-1.9.8 50.1 50.1 0 0 0 2.2-5.8l19 2.3v.2h6.9s-2.2-26-2.2-36.7 7.2-48.4 7.2-48.4 3.3-37 0-38zm-84.3-31v.4l-.1 3.2-.4.6-.7-.6-.9 1.3a5.1 5.1 0 0 1 1.5-4.6 5.5 5.5 0 0 1 .6-.3zm63.2 122.3h.4l-.7 1.8.3-1.8zm-69.3 312.4l-2.6-.6 1.4-.2 1.3.8.2.1zm26.4-3.7l-2.6-1.4 2.6 1.4z" transform="translate(-51.5 -27.3)" fill="url(#b)"/><path fill="#f1d2d7" d="M616 471l-16.5 43.1-2.3-1.9-9.3 14.3L616 530v-59z"/><path opacity=".1" d="M616 471l-16.5 43.1-4.2-1.1-7.4 13.5L616 530v-59z"/><path fill="#f1d2d7" d="M590 498.6h26l9.5-78.4h-35.4v78.4z"/><path opacity=".1" d="M590 498.6h26l9.5-78.4h-35.4v78.4z"/><path d="M539.4 438.8l5.6-1 12.9-2.1s38.6-8.7 46.6-9.4c5-.4 10.6-2.5 14-4l3.5-1.6-14-25.4-21.6-16s-13.6-3-19.4-10.9a12.8 12.8 0 0 1-1.8-12.1c3.5-11-21 10.4-21 10.4s.2 5.2 0 11.7l-.3 4-.2 2.7a44.3 44.3 0 0 1-4.3 17.2c-5.9 9.7 0 36.5 0 36.5z" fill="#ffbec7"/><path d="M544.1 378.9h.6c1 0 1.7-2.1 2.7-2.2 7.7-.7 14.7-2.4 19.6-7.8a12.9 12.9 0 0 1-1.8-12.1c3.5-11-21 10.4-21 10.4s.2 5.1 0 11.7z" opacity=".1"/><path d="M514.2 347.9a30 30 0 0 0 30 30 28.3 28.3 0 0 0 3-.2 30 30 0 1 0-33-29.8z" fill="#ffbec7"/><path d="M514.2 347.9a30 30 0 0 0 30 30 28.3 28.3 0 0 0 3-.2 3.6 3.6 0 0 0 1.3-1 4.4 4.4 0 0 0 .5-3.7c-1.2-5.8-6.5-10-8.4-15.7-1.7-5-.4-10.6 2.2-15.3s6.4-8.4 10.1-12.1a6.2 6.2 0 0 1 2.4-1.7c3.2-1 8 1.8 10.5-1a30 30 0 0 0-51.6 20.7z" opacity=".1"/><path d="M554.2 327.7a6 6 0 0 0-2.4 1.7c-3.7 3.7-7.5 7.5-10.1 12.1s-3.8 10.3-2.2 15.3c2 5.7 7.3 9.9 8.4 15.7a4.4 4.4 0 0 1-.5 3.7c-1 1.2-3 1.3-4.2 2.2-1.7 1.3-2 3.7-1.5 5.6a23.9 23.9 0 0 0 2.7 5.5c2.8 5 4 11.4 1 16.2a25.7 25.7 0 0 1-5 5.2 76.8 76.8 0 0 0-8.7 9.2 45 45 0 0 0-5.8 8.9c-1.6 3.3-2.6 6.9-4.2 10.2-3.7 7.8-11 14-19.6 15.4s-18-2.5-22.1-10a28.1 28.1 0 0 1-2-19c1-4.6 2.4-9.2 2-13.8-.5-3.2-1.8-6.3-3-9.4a73.6 73.6 0 0 1-3.3-47.2 25.2 25.2 0 0 1 3.5-7.7 46.5 46.5 0 0 1 5.5-5.7c6.2-6 10.8-13.6 15.6-20.9s10.1-14.4 17.2-19.4 16.6-7.5 24.8-4.5c8.5 3.1 13.8 11.1 19.8 17.5 2.4 2.7 7 6 5.7 10.2-2 5.8-7.9 1.8-11.6 3z" fill="#493545"/><path d="M500.6 453.2a27.4 27.4 0 0 0 19.5-15.4c1.6-3.4 2.6-7 4.2-10.3a45 45 0 0 1 5.8-8.9 77.8 77.8 0 0 1 8.8-9.1 25.4 25.4 0 0 0 5-5.2c3-4.8 1.8-11.3-1-16.2a24.4 24.4 0 0 1-2.7-5.5c-.6-2-.2-4.4 1.5-5.6 1.3-1 3.1-1 4.2-2.2a4.4 4.4 0 0 0 .5-3.7c-1.2-5.8-6.5-10-8.4-15.7-1.7-5-.4-10.7 2.2-15.3s6.3-8.4 10-12.2a6.2 6.2 0 0 1 2.4-1.6c3.7-1.2 9.7 2.8 11.6-3 1.4-4.3-3.3-7.6-5.7-10.2-5.1-5.5-9.8-12.2-16.4-16 7.8 3.4 12.8 10.9 18.5 17 2.4 2.6 7 6 5.7 10.1-2 6-7.9 1.9-11.6 3a6.2 6.2 0 0 0-2.3 1.7c-3.8 3.8-7.6 7.6-10.2 12.2s-3.8 10.3-2.1 15.3c1.9 5.7 7.2 9.9 8.4 15.7a4.4 4.4 0 0 1-.6 3.6c-1 1.3-2.9 1.4-4.2 2.3-1.7 1.2-2 3.6-1.5 5.6a23.5 23.5 0 0 0 2.8 5.5c2.8 5 4 11.4 1 16.2a25.7 25.7 0 0 1-5 5.2 78.5 78.5 0 0 0-8.8 9.1 45.3 45.3 0 0 0-5.8 9c-1.6 3.3-2.6 6.8-4.2 10.2-3.7 7.8-11 14-19.6 15.4a22.6 22.6 0 0 1-14.6-2.7 22.6 22.6 0 0 0 12.6 1.7z" opacity=".1"/><path d="M532.3 802.7l5.2 3.4.8.6h.2l6.1 4.2 14.5 2.4 12.7-.9s3.7-7.6-2-7.4a12 12 0 0 1-5.3-1.5l-.8-.5-2.5-1.4c-1.7-1-3.3-2.3-4.6-3.3-2-1.4-3.2-2.6-3.2-2.6z" fill="#ffbec7"/><path d="M537.5 806.2l.8.5.2.1 6.2 4 14.4 2.5 12.7-.8s3.7-7.7-2-7.5a12 12 0 0 1-5.3-1.5 4.6 4.6 0 0 1 2 2.3c.2 2-9.4 5.5-9.4 5.5l-13.6-3.5-5.5-1.5-.3-.1z" opacity=".1"/><path d="M514.3 809.5s11.2 2.4 18.7 1.7 20.3 5.8 20.3 5.8 4.4 2 17.8 3 13.4-6 13.4-6c-1.5-9.2-22.7-12.3-23.3-12.4l2.4 1.4c1.5 1 3.2 2.3 3.3 3.3.2 2-9.4 5.5-9.4 5.5l-13.6-3.5-5.5-1.5-.3-.1a117.6 117.6 0 0 0-14.2-3c-5.9-.6-8.9 4.4-9.5 5.5v.3z" fill="#bd577a"/><path d="M338.8 563.8l6 4.5 4.2-.1h.8c3.7-.2 8.8-.3 13.1-.3 4 0 7.3.1 8.3.5 3 1 8.2-17 8.2-17l-6-1.3-2-.5-1.3-.3-4.8-1.1-14.7 1.6-10.2 6.6z" fill="#ffbec7"/><path d="M338.8 563.8l6 4.5 4.2-.1a5.2 5.2 0 0 1-2.7-2.5c-3.8-10.6 15.2-15.1 15.2-15.1l8.8-.4h1.7l1.5-.2-2-.4-1.4-.3-4.8-1.2-14.7 1.7-10.2 6.6z" opacity=".1"/><path d="M327.2 568.6c3.5 3.3 27 0 28 0a14.6 14.6 0 0 1-5.4-.5c-3.2-.9-4-2.9-4-2.9-3.8-10.6 15.1-15.2 15.1-15.2l8.9-.3 1.7-.1 21.5-1 1-5.9-18 1.6-21.7 1.6c-22.6 1.5-28 16.2-28 16.2s-2.8 3.1.9 6.5z" fill="#bd577a"/><path d="M590.1 312.1a7.3 7.3 0 0 0 .5 1l5.2 7.6 13.6 1.4.2-5.4 2.2-81s9.5-54.3-8.3-51.1-6.6 51.2-6.6 51.2-2 24.3-3.5 31.6c-1.3 7.1-7.5 35.8-3.3 44.8zM559.6 513.3l3.9 6.6 8.6 14.8s15.7 5.8 19.7 1.4a56.6 56.6 0 0 0 6.3-17.7c1.4-5.7 2.3-10.5 2.3-10.5z" fill="#ffbec7"/><path d="M559.6 513.3l3.9 6.6a5 5 0 0 0 .7-.7c4.3-5.6 23.6-1.2 33.9-.8l2.3-10.5zM362.9 567.9c4 0 7.3 0 8.3.4 3 1 8.2-16.8 8.2-16.8l-7.8-2 21.4-.8 1-6-17.9 1.6a22.2 22.2 0 0 0-6 5l-.3.4a35.9 35.9 0 0 0-6.9 18.2zM532.3 802.7l6 4c9-1.6 17.2-4.2 18.2-8.2a1.8 1.8 0 0 0 0-.2c-2-1.4-3.2-2.6-3.2-2.6zM514.5 809.3a204.9 204.9 0 0 0 23.7-2.6 117.6 117.6 0 0 0-14.3-3c-5.8-.6-8.8 4.4-9.4 5.6z" opacity=".1"/><path d="M363.6 574.8c0 4.3 12 7.1 12 7.1l36.5 32.6s23 10.3 37.6 25 27.6 2.2 27.6 2.2c15.5-3.8 60-57.8 60-57.8s1 61.6 3.2 66.2-.7 16.8-2 22-.8 13.3-.8 13.3-16.7 63.9-15.3 69.5-9.1 31.7-9.1 31.7v21.7s41-1.5 43.2-10.8-10.3-13.2-10.3-13.2V782c8.2-4.2 9.8-33 9.8-33s12.1-35.4 13.9-41.3 0-14.8 0-14.8l1.2-7.7s2.6-5.2 2.6-6.2a15.6 15.6 0 0 1 3-7.4c2-2.2-2-7.6-2-7.6l3.4-9v-10l8.2-36s8.5-42 5.6-55.7 3.5-20.7 3.5-20.7c-14 7.3-21-9-23.4-16l-.9-3s-19.1-7-37-5.4a43.5 43.5 0 0 0-10.7 2.3c-19.8 7.1-23 36.7-23 36.7L482.8 574c-9 23.9-22.6 26.3-22.6 26.3S428.3 579 427.5 578s-13-6.3-13-6.3a13.8 13.8 0 0 0-6.4-5.8c-4.1-1.7-4.5-8.1-4.5-8.1-.5-15.2-9.4-16.4-9.4-16.4-30.8-2.7-30.6 29.1-30.6 33.5z" fill="#e7aeb8"/><path fill="#f1d2d7" d="M559.6 489.6h-18.8v-58.3h18.8z"/><path opacity=".1" d="M557.9 487.3h-18.8v-58.4h18.8zM590 312a1.2 1.2 0 0 0 0 .1 7.3 7.3 0 0 0 .6 1l5.2 7.6 13.6 1.4.2-5.4A55.2 55.2 0 0 1 590 312z"/><path d="M590.6 313s.7 30.7-7 34.9-10.6 26-10.6 26 23.1 15.3 28.4 22 17 22.7 14.6 26.6 6 21.2 6 21.2-15.4 31.3-11.9 43.2S614 530 614 530h6.6s-2-25.8-2-36.3 7-47.7 7-47.7 3-36.5 0-37.6-21.6-15.7-23-22.3 9.7-68.2 9.7-68.2-14.3-.8-21.6-5z" fill="#f1d2d7"/><path d="M540.5 425.9a29.7 29.7 0 0 0 4.5 12l12.9-2.2s38.6-8.7 46.6-9.4c5-.4 10.6-2.5 14-4a61.5 61.5 0 0 0-17.3-28.3l-4.9-4.6a83.2 83.2 0 0 0-24.7-15.8c.6.5 41.1 35 32.3 41.9s-32.8-9.8-32.8-9.8l-27.2-23.4-1-.8-1.6 2.4a23.6 23.6 0 0 1 2.4 1.1 40 40 0 0 1 19 23.8c5.6 18.8-22.2 17.1-22.2 17.1zM532.1 513s25.8 14.2 32 6.2c1.4-1.7 4.2-2.5 7.8-2.7-.6-1.8-.8-3-.8-3s-19.2-7-37.1-5.4l-1.9 4.9z" opacity=".1"/><path d="M544 381.5l28.1 24.2s23.8 16.6 32.8 9.8-32.2-42-32.2-42a83 83 0 0 1 24.7 15.9l4.9 4.5c12.9 12 15.8 12 16.2 29.5.1 4.4-1.3 10.6-2.5 11.7-4.1 4.1-7 33.9-6.4 37.3s-7.8 33.6-5 42-34.2-4.2-40.4 3.8-32-6.3-32-6.3 14.3-36.6 17.7-39 7.7-21.2 0-30-8.4-17-8.4-17 28 1.7 22.3-17a39.5 39.5 0 0 0-21.4-25z" fill="#e8e8f0"/><path d="M581.5 443.1s-10.8 20.4-24.7 25.7l-1.4.5c-14.6 4.4 27.2-19.9 26.1-26.2z" opacity=".1"/><path d="M430.4 263s5.2 13.2 9.4 17.7 35.2 49.8 35.2 49.8l2.6 5.4 2.3 4.7 19.8-2.1 1.4-8-.8-1a94 94 0 0 0-11-11.5c-4.5-3.5-13.6-15-13.6-15s-28.2-29.3-30.3-37.3-30.3-56-36.6-47.7 21.6 45 21.6 45z" fill="#ffbec7"/><path d="M477.6 336l2.3 4.6 19.8-2.1 1.4-8-.7-1c-2.2 1.1-18 8.7-22.8 6.4z" opacity=".1"/><path d="M551 388.3s-5-7.7-7.8-5.6-3.8-6.2-5.4-4.9-6.2 5.3-8.1-.1c-1.5-4.3-18-31.6-24.7-42.6l-2.8-4.6s-18.8 9.4-23.4 6.3v6.6l3.9.3 20.5 38.3s6.5 10.3 6 13.9 8.3 19.2 9.7 20.3 16.3 18.4 16.3 18.4 7.7 37.6 1 48-18 18.2-18 18.2-3.5 10-3 11.1-4 5.6-2 7 4.9 11.2 4.9 11.2 9.7-15.7 15-18.1 12-34.5 12-34.5 1.9-19 2-31.1-.4-58.1 3.8-58.1z" opacity=".1"/><path d="M549.9 388.3s-5-7.7-7.7-5.6-3.9-6.2-5.4-4.9-6.3 5.3-8.2-.1a699.7 699.7 0 0 0-27.5-47.2s-18.8 9.4-23.3 6.3v6.6l3.8.3 20.6 38.3s6.4 10.3 6 13.9 8.2 19.2 9.6 20.3 16.4 18.4 16.4 18.4 7.7 37.6 1 48a63.8 63.8 0 0 1-12.7 14 24.4 24.4 0 0 0-8.1 13.1 5.2 5.2 0 0 0-.2 2.2c.5 1-4 5.6-2 7s4.9 11.2 4.9 11.2 9.7-15.7 15-18.1 12-34.5 12-34.5 1.9-19 2-31.1-.4-58.1 3.8-58.1z" fill="#f1d2d7"/><path d="M502.2 546.7s14.6 2.8 20.5 7-22.3-6.6-22.3-6.6zM537.3 583.8s15.3 12.7 12.6 24.2l-9.8 40.4zM403.9 559.4s-21.5 2.3-20.1 5.1 20-2.6 20-2.6zM569 665.2s1.4 1.7-6.6 0-2-7.1-2-7.1zM566.2 689.2s-11 1.7-16.8 0 16.8 0 16.8 0zM543.8 783.2s-2-2-11.5 1.8-13.4 4-16.2 2.7 27.7-4.5 27.7-4.5zM554.4 556.4l-13.6 18.9s7.3-16.5 13.6-18.9zM528 382.7s-.7 6.3-9.4 8.7-10.4 4.4-10.4 4.4M505.2 337.3s-11.5 8.2-23.6 6.4M514 512.8s3.4 2.1 11.5-7.2M598.2 414.6c.3-1.7-.9-3.3-2-4.6l-2.3-2.7a10.7 10.7 0 0 0-1.5-1.6c-1.3-1-3-1.3-4.5-2.3" opacity=".1"/><path d="M633.8 76h-149a19 19 0 0 0-19.1 18.9v147.3a19 19 0 0 0 19.1 18.9h149a19 19 0 0 0 19.2-19V95a19 19 0 0 0-19.2-19z" transform="translate(-51.5 -27.3)" fill="url(#c)"/><rect x="415.6" y="48.6" width="185.2" height="185.2" rx="18.9" ry="18.9" fill="#5d97f7"/><path d="M476.3 166.9a11 11 0 1 0 7.8 3.2 10.7 10.7 0 0 0-7.8-3.2zM473.9 143.7a12.3 12.3 0 1 0-3.6 8.6 11.8 11.8 0 0 0 3.6-8.6zM544.9 115.5a6.1 6.1 0 1 0-4.4-1.8 6 6 0 0 0 4.4 1.8zM476.3 95.9a13.4 13.4 0 1 0 9.6 4 13 13 0 0 0-9.6-4zM564.8 138.4a7.4 7.4 0 1 0 2.1 5.2 7 7 0 0 0-2.1-5.2zM544.9 169.3a8.6 8.6 0 1 0 6 2.6 8.3 8.3 0 0 0-6-2.6zM510.6 182.8a9.8 9.8 0 1 0 7 2.9 9.5 9.5 0 0 0-7-2.9zM510.6 80a14.6 14.6 0 1 0 10.4 4.3 14.2 14.2 0 0 0-10.4-4.3z" fill="#eaeaf3"/></svg>