<svg data-name="Layer 1" xmlns="http://www.w3.org/2000/svg" width="1145.7" height="817.6"><defs><linearGradient id="a" x1="625" y1="842.8" x2="625" y2="429.8" gradientUnits="userSpaceOnUse"><stop offset="0" stop-color="gray" stop-opacity=".3"/><stop offset=".5" stop-color="gray" stop-opacity=".1"/><stop offset="1" stop-color="gray" stop-opacity=".1"/></linearGradient></defs><path d="M1145.7 454.1a268 268 0 0 1-310.5 264.5H410.5A364 364 0 0 1 361 722 361.1 361.1 0 0 1 16.8 470 360.8 360.8 0 0 1 0 361a361 361 0 0 1 704.5-111.2 266.8 266.8 0 0 1 173.3-63.6c148 0 267.9 120 267.9 267.9z" fill="#4285f4" opacity=".1"/><path d="M1042.8 665.2a268.3 268.3 0 0 1-207.6 53.4H410.5A364 364 0 0 1 361 722 361.1 361.1 0 0 1 16.8 470c34.5-73.8 123.4-126.4 227.5-126.4 101.5 0 188.5 50 224.9 120.9a301.8 301.8 0 0 1 54.1-4.9c105.2 0 194.8 53.7 228.6 128.7a295.6 295.6 0 0 1 86.4-12.7c85.8 0 161.3 35.7 204.5 89.6z" fill="#4285f4" opacity=".1"/><path fill="#fff" d="M275.4 317.6h474v37h-474zM275.4 397.6h474v37h-474zM275.4 477.6h474v37h-474z"/><path d="M845 333.2l-2.5 2.5 8 8.1 18-18-2.5-2.5-15.4 15.4-5.6-5.5zm21.8 3.4a14.3 14.3 0 1 1-10.5-13.8l2.8-2.8a16.7 16.7 0 0 0-6.8-1.3 18 18 0 1 0 18 18zM845 413.2l-2.5 2.5 8 8.1 18-18-2.5-2.5-15.4 15.4-5.6-5.5zm21.8 3.4a14.3 14.3 0 1 1-10.5-13.8l2.8-2.8a16.7 16.7 0 0 0-6.8-1.3 18 18 0 1 0 18 18z" fill="#3acc6c"/><ellipse cx="573.4" cy="792.1" rx="510" ry="25.5" fill="#4285f4" opacity=".1"/><path d="M908.4 249.5a7.5 7.5 0 0 1-1.4-4.2c0-9.1 18.6-16.5 41.5-16.5s41.5 7.4 41.5 16.5a7.8 7.8 0 0 1-1.7 4.7c25.5 2.8 42.7 8.1 42.7 14.3 0 9-38 16.5-85 16.5s-85-7.4-85-16.5c0-6.5 19.3-12.1 47.4-14.8zM759.3 74.5a6.2 6.2 0 0 1-1.1-3.5c0-7.4 15.2-13.4 33.8-13.4S826 63.6 826 71a6.4 6.4 0 0 1-1.4 3.8c20.8 2.4 34.9 6.7 34.9 11.7 0 7.4-31 13.5-69.4 13.5s-69.3-6-69.3-13.5c0-5.3 15.7-9.9 38.6-12zM305.6 139a7.5 7.5 0 0 1-2.2-3.7c-2-9 14.5-20.2 36.9-25.2s42.1-1.8 44 7.1a7.8 7.8 0 0 1-.6 5c25.6-2.8 43.5-1.3 44.8 4.6 2 9-33.5 24.4-79.3 34.6s-84.6 11.3-86.6 2.4c-1.4-6.3 16.3-16 43-24.7z" fill="#4285f4" opacity=".1"/><path d="M204.6 130.6c-2.4-1.3-5.5 0-7.1 2.1s-2 5-2.5 7.7c-.8 5.9-1.5 12.7 2.5 17.1a55.8 55.8 0 0 0-46-37.1M407.6 223.9c-1.5-.9-3.5 0-4.5 1.3a10.8 10.8 0 0 0-1.6 5c-.6 3.7-1 8.1 1.6 11a35.9 35.9 0 0 0-29.6-24M738.1 164.6c-1.5-.9-3.5 0-4.5 1.4a10.8 10.8 0 0 0-1.6 4.9c-.6 3.8-1 8.1 1.6 11a35.9 35.9 0 0 0-29.6-24" fill="none" stroke="#4285f4" stroke-miterlimit="10" stroke-width="3" opacity=".1"/><path d="M204.5 767a37 37 0 0 1-.8 7.8l-.3 1.4c-2.9 11.4-10.9 19.7-20.4 20.3h-1c-10.1 0-18.7-8.8-21.5-20.8l-.2-1a37 37 0 0 1-.8-7.7c0-16.3 10-29.5 22.5-29.5s22.5 13.3 22.5 29.5z" fill="#3f3d56"/><path d="M204.5 767a37 37 0 0 1-.8 7.8l-.3 1.4h-1a45.8 45.8 0 0 1-7.4-1 45 45 0 0 1-6.5 1.5 45.9 45.9 0 0 1-5.2.5h-1.7a46.4 46.4 0 0 1-6.2-.4 45.2 45.2 0 0 1-9.7-2.4 45.6 45.6 0 0 1-5.2 1.4l-.2-1a37 37 0 0 1-.8-7.8c0-16.2 10-29.4 22.5-29.4s22.5 13.2 22.5 29.4z" opacity=".1"/><path d="M252.5 712.2a45.5 45.5 0 0 0-4.9-20.6l-26.5 8.2 23.3-13.6a45.7 45.7 0 0 0-34.4-19.6 45.6 45.6 0 0 0-3.6-4.7l-38 11.8 31.2-18.3a45.7 45.7 0 0 0-72 24.3l32.6 37.5-35.4-25.5a45.7 45.7 0 0 0 41 80.7 46 46 0 0 0 29.3.8 45.8 45.8 0 0 0 55.6-44.7l-.1-3a45.6 45.6 0 0 0 1.9-13.3z" fill="#4285f4"/><path d="M251.7 720.7a121.9 121.9 0 0 0-42.3-.6c-16 2.7-32.2 8.4-47.7 4.2-9.1-2.5-17-8.2-26-11.4a49.2 49.2 0 0 0-26.7-1.6 45.8 45.8 0 0 0 56.7 61 46 46 0 0 0 29.3.9 45.8 45.8 0 0 0 55.6-44.7v-3a45.2 45.2 0 0 0 1.1-4.8z" opacity=".1"/><path d="M1013.9 716.9l40.7-24a98.3 98.3 0 0 0-20.8-25l-77 24 60.3-35.4a98 98 0 0 0-145 86c0 54 43.8 56 98 56s98-2 98-56a97.7 97.7 0 0 0-8.5-39.8z" fill="#4285f4"/><path d="M1024.2 769.5a75 75 0 0 0-14.5-11.3c-7.4-5-15-10-23.8-11.6-7.6-1.5-15.5-.3-23.3-.7a54.6 54.6 0 0 1-35.8-16.4c-5.6-5.8-10-12.9-16.7-17.3a36.5 36.5 0 0 0-25-4.5 66.1 66.1 0 0 0-7.3 1.5 97.7 97.7 0 0 0-5.8 33.2c0 54.1 43.9 56 98 56 26.3 0 50.1-.4 67.7-7l-3-5.6c-3-5.7-6.1-11.5-10.5-16.3z" opacity=".1"/><path d="M696.3 834.2a7.3 7.3 0 0 0-2.8-4l-.5-.3a12.3 12.3 0 0 0-4.4-1 30 30 0 0 1-16.1-5.7c-1.3-1-2.3-2.4-3.5-3.5a62 62 0 0 0-8-6.4 2.8 2.8 0 0 0-2-.8 10 10 0 0 1-2.6-3.1 12 12 0 0 1-.9-5c-.5-17-4.2-34.4-.1-51a10 10 0 0 0-.4-5.5l2.4-1.2a59.6 59.6 0 0 0 17.8-14.3 27.7 27.7 0 0 0 5.4-8.5c1.5-4.2 1.3-8.9.8-13.3a204.2 204.2 0 0 0-4.7-23.4l-4.6-19c-1-4.1-2.2-8.4-4.4-12h.2c-.1-2.2-.3-4.3-.6-6.4a89 89 0 0 0-2.7-11.2l-1.2-5.3c.9-8.5 4.2-16.8 4.8-25.3l.5.7c1.4 1.8 3.3 3 4.7 4.7 2.6 3.2 3.2 7.5 3.7 11.5a18.8 18.8 0 0 0 1.6 6.2 20.1 20.1 0 0 1 1.3 2.5c.5 1.7.1 3.6-.2 5.4-.5 2.5-.7 5.5 1.1 7.4a5.9 5.9 0 0 0 3.7 1.6 8.2 8.2 0 0 0 7-3c1.9-2.5 2.2-5.8 2-8.9a20.3 20.3 0 0 0-1-6.8 35.5 35.5 0 0 0-3.9-6.5c-2.7-4.1-4.6-8.7-6.8-13a74.6 74.6 0 0 0-6.1-10.4c-1.3-1.7-2.6-3.4-3.7-5.2-.4-.6-2.3-5-4-9.5 1-.2 1.8-.6 2-1.4a2.6 2.6 0 0 0-.1-1.4 86.2 86.2 0 0 1-2-39.8c.7-3.6 1.5-7.1 1.5-10.8s-1-7.4-3.6-10c-1.7-1.5-3.8-2.5-5.5-4-3.3-3-4.6-7.4-5.4-11.6a16.6 16.6 0 0 0-1.9-5.7 8.7 8.7 0 0 0-.9-1.2 57 57 0 0 0 3.6-19.9 58.1 58.1 0 0 0-2-15l1.5 4c-4.2-21.8-20.6-38-40.1-38h-.6c-22.1 0-40.2 20.9-41 47a27 27 0 0 0-12.3 26.8 26.9 26.9 0 0 0-7.8 19 27.4 27.4 0 0 0 27.6 27.2 27.8 27.8 0 0 0 13.3-3.4 45.9 45.9 0 0 0 1.2 6.7c1 3.5 2.3 6.8 3 10.3s.6 7.5-1.3 10.5a26.6 26.6 0 0 0-3.5 7.7 37 37 0 0 0-.6 10l.3 9.2c.3 12 .7 24-1.8 35.8-1 5.3-3.8 10.4-3.2 15.8a22.6 22.6 0 0 0 1.7 5.7c1 2.6 2.3 5.4 4.8 6.7a9.8 9.8 0 0 0 4 .9 27.4 27.4 0 0 0 5-.3c1-.1 2.3-.8 2-1.7a1.9 1.9 0 0 0-.7-.8 11 11 0 0 1-4.2-8.6c0-4.8 3.1-9.3 2.1-14-.6-3-2.7-5.7-1.8-8.5 2-6.3 2.3-13.1 4-19.5l1.7-6.3 2.9-11.3a121.2 121.2 0 0 0 3-27.5 30.1 30.1 0 0 1 3.3 9.6c.3 2.4.1 5 1.3 7.1s3.3 3.8 4.7 5.9a33.6 33.6 0 0 1-1.9 3.7 51.2 51.2 0 0 0-3.9 5.7c-1 2-1.7 4-2.5 6-2.9 6.9-7.7 13-8.5 20.4-.5 6 1.7 11.7 4 17.2l4.1 9.8.3.6.6 5h3.7c1.5 2 3.2 4 4 6.4a20.4 20.4 0 0 1 1 5.6c.8 9 .7 18.2 4 26.6 1 2.5 2 5 2.2 7.5a29.3 29.3 0 0 0 1 6.2 31.6 31.6 0 0 1 .8 6.8 105.3 105.3 0 0 1-.3 11.6c-8 5-14.7 12.2-21.9 18.5a120.3 120.3 0 0 1-33.3 20.5v-.6c-3.5-.2-6.7 1-9.8 2.6-1.1.5-2.2 1-3.2 1.7a5.3 5.3 0 0 0-1.6 1c-1.4 1.7-.3 4.2.7 6l10.7 18.7c.8 1.5 1.7 3 2.3 4.4 1.2 2.6 2 5.3 3.2 7.8a38.6 38.6 0 0 0 5.6 7.4l7 8a9.3 9.3 0 0 0 2.6 2.3 3.3 3.3 0 0 0 3.4-.2 3.4 3.4 0 0 0 1-1.2 7.4 7.4 0 0 0 .7-3.6 7.7 7.7 0 0 0-2.6-5.3c-1-.9-2.2-1.6-2.6-2.8a4.9 4.9 0 0 1-.1-2c.5-5.8 1-11.8 2.8-17.4 1.3-4.3 3.3-8.6 2.3-12.9a12 12 0 0 0-2-.4 29.4 29.4 0 0 1 2.2-2.3c3.6-3.3 7.9-5.7 12.1-8.1l18.8-10.5L632 775l.9 5 4.2 23a50.9 50.9 0 0 1 .8 5.6v5.6a41.4 41.4 0 0 1-.4 6.2 26.3 26.3 0 0 1-.9 3.4 2.2 2.2 0 0 0-.9 1.2 31 31 0 0 0-2.3 8.6 11 11 0 0 0 1.4 6.8 2.7 2.7 0 0 0 1 1.1 3.3 3.3 0 0 0 1.6.3l24.7-.6a54.3 54.3 0 0 1 9 .4c2.5.3 4.9 1 7.3 1.2 5.6.3 11-2.2 16-4.7a4 4 0 0 0 2-1.5 3.2 3.2 0 0 0 0-2.4z" transform="translate(-27.1 -41.2)" fill="url(#a)"/><path d="M537 464.9a27.8 27.8 0 0 1-.2-4 27 27 0 0 1 12.2-22.5c.9-26 18.6-46.8 40.3-46.8 22.2 0 40.2 21.8 40.2 48.7s-18 48.8-40.2 48.8a34.1 34.1 0 0 1-6.3-.6 27 27 0 1 1-46-23.6z" fill="#3f3d56"/><path d="M591.4 398c-21.7 0-39.4 20.7-40.3 46.7a27 27 0 0 0-12.2 22.6 28 28 0 0 0 .3 4 27 27 0 0 0-7.7 18.8 28.4 28.4 0 0 0 .2 3.4 27 27 0 0 1 6-28.6 27.8 27.8 0 0 1-.4-4 27 27 0 0 1 12.2-22.5c.9-26 18.6-46.8 40.3-46.8 19.1 0 35.1 16.1 39.2 37.8-5.7-18.4-20.4-31.5-37.6-31.5z" opacity=".1"/><path d="M614 450.5a10.3 10.3 0 0 0 .6 4.7c.9 2.1 3.2 4 2.5 6.3-.4 1.5-2 2.3-3.4 2.7-6.7 2.3-14.1 1-21.3 1.3a68.3 68.3 0 0 1-7.1.2 11.4 11.4 0 0 1-6.6-2.3 57 57 0 0 0 10.4-6.6 11.8 11.8 0 0 0 2.1-2c1.5-2 1.8-4.7 1.8-7.2v-7.4l15.4-.1c1.6 0 6.6-.4 7.2 1.4.3.9-.8 3.4-1 4.4-.3 1.5-.5 3-.6 4.6z" fill="#a0616a"/><path d="M614 450.5a10.3 10.3 0 0 0 .6 4.7c.9 2.1 3.2 4 2.5 6.3-.4 1.5-2 2.3-3.4 2.7-6.7 2.3-14.1 1-21.3 1.3a68.3 68.3 0 0 1-7.1.2 11.4 11.4 0 0 1-6.6-2.3 57 57 0 0 0 10.4-6.6 11.8 11.8 0 0 0 2.1-2c1.5-2 1.8-4.7 1.8-7.2v-7.4l15.4-.1c1.6 0 6.6-.4 7.2 1.4.3.9-.8 3.4-1 4.4-.3 1.5-.5 3-.6 4.6z" opacity=".1"/><path d="M639.5 543a34.4 34.4 0 0 1-2 16.8 320.2 320.2 0 0 0-33.1-1.7 18.6 18.6 0 0 0 3.5-8.7 48.1 48.1 0 0 0 0-9h21.5a19.9 19.9 0 0 1 4.7.3c2.1.5 3.3 2 5.4 2.3z" fill="#a0616a"/><path d="M645.5 554.8c1 1.8 2.4 3.5 3.6 5.2a74 74 0 0 1 6 10.2c2.2 4.4 4.1 8.9 6.7 13a35.4 35.4 0 0 1 3.8 6.5 20.8 20.8 0 0 1 1 6.8c.2 3-.1 6.3-2 8.7a8 8 0 0 1-6.8 3 5.6 5.6 0 0 1-3.6-1.5c-1.8-1.8-1.6-4.8-1.2-7.3.4-1.8.8-3.7.2-5.4a19 19 0 0 0-1.2-2.5 19.1 19.1 0 0 1-1.5-6c-.6-4-1.1-8.4-3.7-11.5-1.4-1.7-3.2-3-4.6-4.7l-2-2.7c-1-1.2-2.5-2.2-3.2-3.7a14.6 14.6 0 0 1-.5-3 22.2 22.2 0 0 0-1.8-4.6 59.4 59.4 0 0 1-3.7-18 25.4 25.4 0 0 0 7.7-1.5c-.9.2 6 17.7 6.8 19z" fill="#a0616a"/><path d="M645.5 554.8c1 1.8 2.4 3.5 3.6 5.2a74 74 0 0 1 6 10.2c2.2 4.4 4.1 8.9 6.7 13a35.4 35.4 0 0 1 3.8 6.5 20.8 20.8 0 0 1 1 6.8c.2 3-.1 6.3-2 8.7a8 8 0 0 1-6.8 3 5.6 5.6 0 0 1-3.6-1.5c-1.8-1.8-1.6-4.8-1.2-7.3.4-1.8.8-3.7.2-5.4a19 19 0 0 0-1.2-2.5 19.1 19.1 0 0 1-1.5-6c-.6-4-1.1-8.4-3.7-11.5-1.4-1.7-3.2-3-4.6-4.7l-2-2.7c-1-1.2-2.5-2.2-3.2-3.7a14.6 14.6 0 0 1-.5-3 22.2 22.2 0 0 0-1.8-4.6 59.4 59.4 0 0 1-3.7-18 25.4 25.4 0 0 0 7.7-1.5c-.9.2 6 17.7 6.8 19z" opacity=".1"/><circle cx="603.6" cy="430.3" r="18" fill="#a0616a"/><path d="M639.5 613.9a34 34 0 0 1 6 14.5l4.4 18.8a203.3 203.3 0 0 1 4.6 23.2c.6 4.4.8 9-.7 13.2a27.5 27.5 0 0 1-5.3 8.5 58.5 58.5 0 0 1-17.4 14.1c-3.5 1.9-7.3 3.3-10.9 4.9-5.4 2.4-10.6 5.4-15.7 8.3l-19.4 11a58.6 58.6 0 0 0-11.9 8 29.3 29.3 0 0 0-7.3 11 5.5 5.5 0 0 1-1.7 2.9c-1 .7-2.6.5-3.8 0a22.7 22.7 0 0 1-15.5-22.6 117.5 117.5 0 0 0 38.8-22.7c8.6-7.7 16.5-16.8 27-21.4 4.7-2 10.2-3.6 12.4-8.1a16.7 16.7 0 0 0 1.1-6.7c.2-6.3.4-12.6-.8-18.8-1-5.2-3-10.2-4.5-15.2-3-10.2-4-20.9-5-31.5a176.8 176.8 0 0 1 20.8-1.2 2.4 2.4 0 0 1 1.8.5 2.5 2.5 0 0 1 .5 1.3c.6 2.8.7 6 2.5 8z" fill="#a0616a"/><path d="M639.5 613.9a34 34 0 0 1 6 14.5l4.4 18.8a203.3 203.3 0 0 1 4.6 23.2c.6 4.4.8 9-.7 13.2a27.5 27.5 0 0 1-5.3 8.5 58.5 58.5 0 0 1-17.4 14.1c-3.5 1.9-7.3 3.3-10.9 4.9-5.4 2.4-10.6 5.4-15.7 8.3l-19.4 11a58.6 58.6 0 0 0-11.9 8 29.3 29.3 0 0 0-7.3 11 5.5 5.5 0 0 1-1.7 2.9c-1 .7-2.6.5-3.8 0a22.7 22.7 0 0 1-15.5-22.6 117.5 117.5 0 0 0 38.8-22.7c8.6-7.7 16.5-16.8 27-21.4 4.7-2 10.2-3.6 12.4-8.1a16.7 16.7 0 0 0 1.1-6.7c.2-6.3.4-12.6-.8-18.8-1-5.2-3-10.2-4.5-15.2-3-10.2-4-20.9-5-31.5a176.8 176.8 0 0 1 20.8-1.2 2.4 2.4 0 0 1 1.8.5 2.5 2.5 0 0 1 .5 1.3c.6 2.8.7 6 2.5 8z" opacity=".1"/><path d="M537.5 738l10.5 18.5 2.3 4.4c1.1 2.5 1.8 5.3 3.1 7.7a38.5 38.5 0 0 0 5.4 7.3l6.8 8a9.2 9.2 0 0 0 2.7 2.3 3.1 3.1 0 0 0 3.3-.2 3.6 3.6 0 0 0 .9-1.2 7.3 7.3 0 0 0 .7-3.6 7.7 7.7 0 0 0-2.5-5.3c-1-.8-2.2-1.5-2.6-2.7a5 5 0 0 1 0-2c.4-5.8 1-11.7 2.6-17.3 1.3-4.2 3.3-8.5 2.4-12.8-1.9-.6-4.2-1-5.3.6-2.1 3-2.3 2-5.5 1.5s-6.4-.7-8.8-3.3c-3.1-3.3-2.9-8.6-2.4-13.2-3.4-.1-6.5 1-9.6 2.6l-3.1 1.7a5.2 5.2 0 0 0-1.5 1c-1.4 1.7-.4 4.1.6 6zM638.1 598.9a86.3 86.3 0 0 1 2.7 11.1l.6 6.3c-7.1 1.7-14.5 1.8-21.8 1.9l-30.5.3a65.5 65.5 0 0 1-.8-12.4c.4-6.9 3-13.5 2.6-20.4a188.6 188.6 0 0 1 25.3-2.7 11.8 11.8 0 0 1 4.6.4c1.3.5 2.5 1.5 3.8 2.1 3 1.5 7.5.8 10 3 2.3 2.2 2.7 7.4 3.5 10.4z" fill="#3f3d56"/><path d="M638.1 598.9a86.3 86.3 0 0 1 2.7 11.1l.6 6.3c-7.1 1.7-14.5 1.8-21.8 1.9l-30.5.3a65.5 65.5 0 0 1-.8-12.4c.4-6.9 3-13.5 2.6-20.4a188.6 188.6 0 0 1 25.3-2.7 11.8 11.8 0 0 1 4.6.4c1.3.5 2.5 1.5 3.8 2.1 3 1.5 7.5.8 10 3 2.3 2.2 2.7 7.4 3.5 10.4z" opacity=".1"/><path d="M636.4 609c2.3 10.8-.1 22-.7 33-.4 8 .2 16 .4 23.9a33 33 0 0 1-.3 6.8 34.4 34.4 0 0 1-1.8 5.8l-2.8 7.3c-2.5 6.9-5.2 14.2-2.5 21.4a10 10 0 0 1 .4 5.8c-4 16.4-.4 33.8.1 50.6a12.2 12.2 0 0 0 .9 4.8c1.4 3 4.8 4.4 6.6 7.2 2.2 3.3 1.5 8-1.1 11s-6.7 4.5-10.6 4.8c-5 .4-10-.8-14.8-1.6l-.5-.5c-.6-3.4 1.2-6.5 1.8-10a42.3 42.3 0 0 0 .4-6.1v-5.5a52.6 52.6 0 0 0-.8-5.6l-4.2-23-.8-4.9-3.8-20.6c-.7-3.9 1-8.2 1.5-12.1 1-8.1 1.9-16.3 1.6-24.5a32.3 32.3 0 0 0-.8-6.7 29.6 29.6 0 0 1-1-6.2c0-2.5-1-5-2-7.4-3.3-8.4-3.1-17.5-3.9-26.5a20.4 20.4 0 0 0-1-5.5c-1-2.7-3-4.9-4.7-7.3s-2.8-5.4-1.9-8.2c1.5-4.4 7.5-5.8 11-7.1a31.2 31.2 0 0 1 19.5-.6 66.8 66.8 0 0 1 15.8 7.5z" fill="#a0616a"/><path d="M608.8 799.3a2.7 2.7 0 0 0 1 1.1 3.4 3.4 0 0 0 1.6.2l24.2-.5a52 52 0 0 1 8.9.4c2.3.3 4.6 1 7 1.1 5.5.4 10.7-2.1 15.6-4.6a4 4 0 0 0 2-1.5 3.3 3.3 0 0 0 0-2.4 7.3 7.3 0 0 0-2.7-3.9 5 5 0 0 0-.5-.3 11.8 11.8 0 0 0-4.4-1.1 29.1 29.1 0 0 1-15.7-5.6c-1.3-1-2.3-2.3-3.5-3.5a59.3 59.3 0 0 0-7.7-6.4 2.7 2.7 0 0 0-2-.7 2.5 2.5 0 0 0-1.1.6 7.7 7.7 0 0 0-2.7 3.3 3 3 0 0 0 1.3 3.6c1 .4 2 .2 2.9.7-1.8 1.3-4.5 2-6.4 3.2a21.7 21.7 0 0 1-6.5 3.4c-2.3.6-5.1.2-6.7-1.7-.8-1-1.8-2.6-3-1.9a2.1 2.1 0 0 0-.8 1.2 31.1 31.1 0 0 0-2.2 8.6 11 11 0 0 0 1.4 6.7zM615.3 546.2a16 16 0 0 1 4.2.4 17.7 17.7 0 0 1 3.7 1.7l13.2 7.4a12.4 12.4 0 0 1 2.7 1.8c1.9 1.8 2.5 4.6 2.6 7.3.4 10.3-4.2 20.2-4.8 30.5a39.1 39.1 0 0 0 1.6 13.6c.3 1 .7 2.4-.1 3.2a3 3 0 0 1-1 .6 157.6 157.6 0 0 1-46.2 2.5 3.8 3.8 0 0 1-1.6-.4 4 4 0 0 1-1.4-2l-4-9.6a36.8 36.8 0 0 1-3.8-17.1c.7-7.3 5.5-13.4 8.3-20.2.8-2 1.5-4.1 2.5-6a50 50 0 0 1 3.7-5.7c1.1-1.6 2.1-5 3.5-6 1.6-1.3 6-1.3 8.1-1.5a69 69 0 0 1 8.8-.5z" fill="#3f3d56"/><path d="M537.5 738l10.5 18.5 2.3 4.4c1.1 2.5 1.8 5.3 3.1 7.7a38.5 38.5 0 0 0 5.4 7.3l6.8 8a9.2 9.2 0 0 0 2.7 2.3 3.1 3.1 0 0 0 3.3-.2 3.6 3.6 0 0 0 .9-1.2 7.3 7.3 0 0 0 .7-3.6 22.8 22.8 0 0 1-6.6-4.9 33.2 33.2 0 0 1-4-5.8l-2.7-5-14.5-25.4a29 29 0 0 1-3.9-10.9l-3.1 1.7a5.2 5.2 0 0 0-1.5 1.1c-1.4 1.7-.4 4.1.6 6zM608.8 799.3a2.7 2.7 0 0 0 1 1.1 3.4 3.4 0 0 0 1.6.2l24.2-.5a52 52 0 0 1 8.9.4c2.3.3 4.6 1 7 1.1 5.5.4 10.7-2.1 15.6-4.6a4 4 0 0 0 2-1.5 3.3 3.3 0 0 0 0-2.4 7.3 7.3 0 0 0-2.7-3.9l-1 .7a28.5 28.5 0 0 1-11 5 56.6 56.6 0 0 1-11.9.9c-9.1 0-18.3 0-27.4-1.6-1.8-.4-5.5-2-7.8-1.6a11 11 0 0 0 1.5 6.7z" opacity=".1"/><path d="M581.9 458.8a179.7 179.7 0 0 0 26.5 2.5c2.2 0 4.8-.2 5.8-2.2.5-.9.4-2 1-2.8 1.3-1.5 3.7-.8 5.4 0a15 15 0 0 1 6.3 4.9 16 16 0 0 1 1.8 5.7c.8 4.2 2.1 8.6 5.3 11.5 1.7 1.5 3.8 2.5 5.4 4 2.6 2.5 3.6 6.3 3.6 10s-.9 7-1.5 10.6a86.9 86.9 0 0 0 2 39.5 2.7 2.7 0 0 1 .1 1.4c-.3 1-1.4 1.3-2.3 1.4-14.7 2.4-30.4.1-44 6.4-1-2.8-3.9-4.4-5.2-7-1.1-2.2-1-4.7-1.3-7.1-.8-6.6-5-12.1-7.3-18.2-2-5.4-2.8-11.3-5.7-16.3-1-1.8-2.3-3.4-3.3-5.1a39.5 39.5 0 0 1-2.4-5.5 38.5 38.5 0 0 1-2.7-10c-.6-7 2.7-13.7 6.5-19.6 1.5-2.2 3.3-4.5 6-4z" fill="#ff6f61"/><path d="M624.4 483.7c1.7.4 2.7 2 3.4 3.6a19 19 0 0 1 1.4 3 17.3 17.3 0 0 1 .5 5.4 12.6 12.6 0 0 1-.4 3.4 4.5 4.5 0 0 1-2 2.7" fill="none" stroke="#000" stroke-miterlimit="10" opacity=".1"/><ellipse cx="626.1" cy="458.4" rx="20.1" ry="9.9" transform="rotate(-14.3 448.7 545.6)" fill="#3f3d56"/><path d="M600.4 423.2c9.6-2.5 16.7-8 17.2-12.8a5.3 5.3 0 0 1 1 1.9c1.3 5.3-6.4 11.8-17 14.6s-20.7.6-22-4.7a5 5 0 0 1-.2-1.8c3 3.9 11.6 5.2 21 2.8z" opacity=".1"/><path d="M583 605.2l-2.5 2.5 8 8.1 18-18-2.5-2.5-15.4 15.4-5.6-5.5zm21.8 3.4a14.3 14.3 0 1 1-10.5-13.8l2.8-2.8a16.7 16.7 0 0 0-6.8-1.3 18 18 0 1 0 18 18z" fill="#3acc6c"/><path d="M589.9 489a31 31 0 0 0-5-14.1 12.2 12.2 0 0 0-4.6-4.4 5.6 5.6 0 0 0-6 .5 8.7 8.7 0 0 0-2.2 4 48 48 0 0 0-3.1 20.3c0 6.3 0 12.6 1.6 18.7 1 3.5 2.3 6.8 3 10.3s.7 7.4-1.2 10.4a26.3 26.3 0 0 0-3.4 7.7 37.3 37.3 0 0 0-.6 9.9l.3 9.1c.3 11.9.6 23.9-1.8 35.5-1 5.3-3.8 10.4-3.1 15.7a22.6 22.6 0 0 0 1.6 5.7c1 2.6 2.3 5.4 4.8 6.7a9.4 9.4 0 0 0 3.8.8 26.3 26.3 0 0 0 5-.2c1-.1 2.2-.8 2-1.8a2 2 0 0 0-.8-.8 11 11 0 0 1-4-8.5c0-4.7 3-9.2 2-13.9-.5-2.8-2.6-5.6-1.8-8.4 2-6.3 2.3-13 4-19.4l1.7-6.2c1-3.7 2-7.4 2.8-11.2a122.6 122.6 0 0 0 2.7-31.7c0-1.6.9-3.5 1-5.2.2-2 0-3.9 0-5.9 0-8 2-15.6 1.3-23.6z" fill="#a0616a"/></svg>