<svg data-name="Layer 1" xmlns="http://www.w3.org/2000/svg" xmlns:xlink="http://www.w3.org/1999/xlink" width="1064.6" height="799"><defs><linearGradient id="a" x1="552.7" y1="633.9" x2="552.7" y2="359.9" gradientUnits="userSpaceOnUse"><stop offset="0" stop-color="gray" stop-opacity=".3"/><stop offset=".5" stop-color="gray" stop-opacity=".1"/><stop offset="1" stop-color="gray" stop-opacity=".1"/></linearGradient><linearGradient id="b" x1="567.7" y1="564.9" x2="567.7" y2="200" xlink:href="#a"/></defs><path d="M42 186c-21.2 36.3-6.8 81.5-3.3 123.3a226.7 226.7 0 0 1-6.6 76C22.9 420.5 5.3 453.5.8 489.5s9.4 78.4 44 91c8.5 3 17.8 4 26.1 7.7 22.6 10 32.7 36.8 33.4 61.2s-5.3 48.7-4.2 73.1c.7 13.8 4 28.1 13.4 38.2 8.7 9.3 21.3 13.8 33.5 17.7 38.4 12.6 78.6 23.7 119 19.8s81.2-25.7 96.7-62.6c5.6-13.4 7.7-28 13.3-41.3s16.4-26.1 30.9-28.2c8.5-1.3 17 1.3 25.2 3.9l117.2 36.5c18 5.6 38.2 11 55.1 2.7a73.1 73.1 0 0 0 21.6-19C676.1 633 728.3 571 737.5 495.8c3.2-26.4.9-53.3 4.5-79.7s14.5-53.8 37.3-68c17.6-11 39.4-12.7 60.1-14.9 33.6-3.6 67.3-9.7 97.7-24s57.5-37.9 70.5-68.6a48 48 0 0 0 4.2-28.7c-3.8-17.1-21-27.6-37.2-35-48.2-22-100.5-33.8-152.7-44.2a352 352 0 0 0-72.4-9c-21 .3-42 4-62.8 7.6-178 30.6-370.4 50-549 12.7A87.8 87.8 0 0 0 42 186z" fill="#4285f4" opacity=".1"/><path d="M296.8 115.8S512 47.3 596.6 97.6c58.2 34.6 189.3 24.6 265.5 15a271.5 271.5 0 0 1 125 13.6c38.6 13.8 79.1 30.4 77.4 38.8-3.2 16.1-767.7 6.5-767.7 6.5z" fill="#4285f4" opacity=".4"/><path d="M873.1 477.8h-.8l.3-.6-1 .4 1-2.6-9.3 3.5c-147.8 6.8-457.1-118.6-457.1-118.6L235 383.4a36 36 0 0 1-2.8-3l.7 3.2-.7-.9.3 1h-.3l.4.7 19.6 79.4s349.1 192.4 559.2 168l59.8-151.2z" transform="translate(-67.7 -50.5)" fill="url(#a)"/><path d="M343.9 314.5s311.6 126.3 449.8 113.4L701.6 565l-333-103.9-162.8-73.9 76-51.3z" fill="#4285f4"/><path d="M343.9 314.5s311.6 126.3 449.8 113.4L701.6 565l-333-103.9-162.8-73.9 76-51.3z" opacity=".1"/><path fill="#fff" opacity=".1" d="M331.6 352.4l83 18.8-169.2 30-39.6-35.4 125.8-13.4zM368.5 429l98-35.9 69 23-121 45-46-32zM503.4 469.7l107.7-29.4 95.8 26.2-101.7 34.3-101.8-31.1z"/><path fill="#4285f4" d="M176.3 337.5l167.6-23V355l-140.3 20.4-27.3-38z"/><path fill="#fff" opacity=".1" d="M177.4 339.6l166.5-25.2v40.7l-140.3 20.4-26.2-35.9z"/><path d="M28 203.6a73 73 0 0 1 56-70.9c69.7-16.7 186.7-37 243.9-3 84.6 50.4 323.4 6.4 323.4 6.4s147.7 45 144.5 61S28 203.6 28 203.6z" fill="#4285f4"/><path d="M618.7 146.6c1.9-1.7 3.6-3.8 4.1-6.2s-.5-5.4-2.8-6.3c-2.7-1-5.5.8-7.6 2.6s-4.6 4-7.4 3.6a11.2 11.2 0 0 0 3.5-10.5 4.4 4.4 0 0 0-1-2.2c-1.5-1.5-4.1-.8-5.9.4-5.6 4-7.1 11.5-7.1 18.3-.6-2.5-.1-5-.1-7.6s-.7-5.3-2.9-6.6a8.5 8.5 0 0 0-4.3-1c-2.5-.1-5.3.2-7 2-2 2.3-1.5 6 .3 8.6s4.7 4 7.3 5.8a16 16 0 0 1 5.1 5 4.9 4.9 0 0 1 .4.8H609a43.7 43.7 0 0 0 9.7-6.7zM274 112.3c1.8-1.7 3.5-3.7 4-6.2s-.5-5.4-2.8-6.3c-2.7-1-5.5.8-7.6 2.7s-4.6 4-7.4 3.5a11.2 11.2 0 0 0 3.5-10.5 4.4 4.4 0 0 0-1-2.2c-1.5-1.5-4.1-.8-5.9.4-5.6 3.9-7.1 11.5-7.1 18.3-.6-2.5-.1-5-.1-7.6s-.7-5.3-2.9-6.6a8.5 8.5 0 0 0-4.3-1c-2.5-.1-5.3.1-7 2-2 2.3-1.5 6 .3 8.6s4.7 4 7.3 5.8a16 16 0 0 1 5.1 5 4.9 4.9 0 0 1 .4.8h15.7a43.7 43.7 0 0 0 9.7-6.7zM785.8 186.2c1.8-1.7 3.6-3.7 4-6.2s-.4-5.4-2.8-6.3c-2.6-1-5.4.8-7.6 2.7s-4.6 3.9-7.3 3.5a11.2 11.2 0 0 0 3.4-10.5 4.4 4.4 0 0 0-1-2.1c-1.4-1.6-4-1-5.8.3-5.6 4-7.2 11.5-7.2 18.3-.5-2.5 0-5 0-7.5s-.8-5.3-3-6.7a8.5 8.5 0 0 0-4.2-1c-2.5 0-5.3.2-7 2-2.1 2.3-1.6 6.1.3 8.6s4.6 4 7.2 5.8a16 16 0 0 1 5.2 5 4.9 4.9 0 0 1 .4.8H776a43.7 43.7 0 0 0 9.8-6.7z" fill="#4285f4"/><path d="M656.7 558c-10-9.9-18-21.6-22.1-35-3.2-10.2-6-20.3-6-23.5a82.7 82.7 0 0 0-18.8-38.5c-1.7-6.7-5-23.6.8-34.2a48.6 48.6 0 0 0 3.6-8 95.6 95.6 0 0 1 16-29.8 35.6 35.6 0 0 0 3.7-5.4c2.5.4 4-.3 3.6-2.7v-.3c1.2-.2 1.8-1 1.6-2.7-1.5-11.8 4.4-48.9 4.4-48.9a142.2 142.2 0 0 0 7.4-52c-1.5-28.2-31.3-34.1-31.3-34.1l-2.5 2.5-6.5-4.1a3.8 3.8 0 0 0 2-2c2.6-5.5 2.7-12.8 3-18.6a17.5 17.5 0 0 0-.2-5.7 13 13 0 0 0-2.3-4.3 26 26 0 0 0-19.5-10.3l-7.5.2c-4.5 0-9-1-13.6-.5s-9.4 2.3-11.4 6.4c-1.2 2.6-1.3 5.6-2.7 8-1.8 2.8-5.1 4.2-7 6.9a8.6 8.6 0 0 0-1.7 5 3.5 3.5 0 0 0 .4 1.7 6.7 6.7 0 0 0 1.7 1.6 6.5 6.5 0 0 1 1.2 8 8 8 0 0 1 6.4 6.2 2.5 2.5 0 0 0 .5 1.4 2 2 0 0 0 1 .4c3 .5 5.9-.8 8-2.8l.6 1a21 21 0 0 0 26.1 8.4l1.3 1.6a33.8 33.8 0 0 1 4 7.4l-2.3 2.3a89.9 89.9 0 0 0-5.4 9.9A87.7 87.7 0 0 0 585 296c-5.5 5.4-13.8 15-14.8 24 0 0-38.9 19.2-49.3 8.9s-24 7.4-21 10.3 12 9 22.5 3h41.8a47.4 47.4 0 0 0 18-6.2 71 71 0 0 1-7.5 14.8l-2.6 2.1-19 8a30.1 30.1 0 0 0-10.8 4.6c-16.2 7-30.8 13.8-30.4 15.3-1 .7-1.6 1.2-1.5 1.5l.5 1.1c-1.1 4.3-1.3 13 1 30 6 43-7.4 50.4-7.4 50.4s-10.5 13.4-22.4 11.9-1.5 10.4 9 8.9c7-1 22.2-2 31.4-2.6a5.6 5.6 0 0 0 5-7 45 45 0 0 1-.6-20c2.3-11.2 7.9-32.4 9.9-44.2 3-3 8.6-7.2 15.5-6.2 3.6.5 10-2.9 16.9-7.5-3.6 20.5-6.4 42.5-3.5 50.5 6 16.3 12 23.7 12 23.7h6.9l1.9 3 27 41.5s23.9 34.1 1.5 38.6c0 0-18 4.4-10.5 10.3 0 0 52.3 1.5 53.8-3 .4-1.1-.4-2.4-1.7-3.7z" transform="translate(-67.7 -50.5)" fill="url(#b)"/><path d="M556.2 201.3s-20.3 40.6-21.8 20.3a32.5 32.5 0 0 0-6-16.8 40.1 40.1 0 0 0-14.3-12.2s11.6-21.8 10.2-16c-.8 3 7.6 9.3 16 14.9 8 5.3 16 9.8 16 9.8zM460.4 401.6a44.4 44.4 0 0 0 .7 19.6 5.5 5.5 0 0 1-5 7 508 508 0 0 0-30.5 2.4c-10.2 1.4-20.3-10.2-8.7-8.7s21.8-11.6 21.8-11.6 13-7.3 7.2-49.4c-2.3-16.7-2-25.2-1-29.3a6.6 6.6 0 0 1 1.4-2.9 2.2 2.2 0 0 1 1.1-.7 3.5 3.5 0 0 1 2.8 1s18.9 17.4 20.3 21.8c.4 1 .1 3.8-.5 7.6-2 11.5-7.4 32.2-9.6 43.2z" fill="#ffb9b9"/><path d="M460.4 401.6a44.4 44.4 0 0 0 .7 19.6 5.5 5.5 0 0 1-5 7 508 508 0 0 0-30.5 2.4c-10.2 1.4-20.3-10.2-8.7-8.7s21.8-11.6 21.8-11.6 13-7.3 7.2-49.4c-2.3-16.7-2-25.2-1-29.3a6.6 6.6 0 0 1 1.4-2.9 2.2 2.2 0 0 1 1.1-.7 3.5 3.5 0 0 1 2.8 1s18.9 17.4 20.3 21.8c.4 1 .1 3.8-.5 7.6-2 11.5-7.4 32.2-9.6 43.2z" opacity=".1"/><path d="M588.2 506c-1.5 4.4-52.3 3-52.3 3-7.3-5.8 10.2-10.2 10.2-10.2 21.7-4.3-1.5-37.7-1.5-37.7l-26.3-40.6-5.7-8.8s7.3-10.2 20.4-8.7c3 .3 6 2.4 8.9 5.4a81.3 81.3 0 0 1 17.2 36.7c0 3.1 2.8 13 5.9 23a84 84 0 0 0 21.5 34.3c1.3 1.3 2 2.6 1.7 3.7z" fill="#ffb9b9"/><path d="M470 358.4a25.4 25.4 0 0 0-3.8 4c-10.7-1.4-18.9-24.9-21.3-30.8l-.4-1.2c-.1-.1.5-.9 1.8-1.7l1.1-.7a3.5 3.5 0 0 1 2.8 1s19 17.4 20.4 21.8c.3 1 0 3.8-.6 7.6z" opacity=".1"/><path d="M515.6 297s-71.2 29-69.7 32 10.2 30.5 21.8 32c0 0 7.2-10.2 17.4-8.8s43.5-29 43.5-29l23.2-17.4z" fill="#4c4c78"/><path d="M515.6 297s-71.2 29-69.7 32 10.2 30.5 21.8 32c0 0 7.2-10.2 17.4-8.8s43.5-29 43.5-29l23.2-17.4zM543.2 413.2c0 6-15.4 7.2-24.9 7.3l-5.6-8.8s7.2-10.1 20.3-8.7c3 .3 6 2.4 9 5.5.6 2.9 1.2 4.7 1.2 4.7z" opacity=".1"/><path d="M509.8 304.3s-17.4 74-11.6 90 11.6 23.3 11.6 23.3 31.9 1.4 31.9-7.3c0 0-7.3-23.2 0-36.3a47.8 47.8 0 0 0 3.5-7.9 93.8 93.8 0 0 1 15.5-29.1c3.5-4.4 6.2-9.3 5.7-13.8-1.5-11.6-56.6-18.9-56.6-18.9z" fill="#4c4c78"/><path d="M521.4 242s-17.4 14.5-18.9 27.5c0 0-37.7 18.8-47.9 8.7s-23.2 7.3-20.3 10.2 11.6 8.7 21.8 2.9h40.6s27.6-3 29-24.7-4.3-24.7-4.3-24.7z" fill="#ffb9b9"/><path d="M521.4 242s-17.4 14.5-18.9 27.5c0 0-37.7 18.8-47.9 8.7s-23.2 7.3-20.3 10.2 11.6 8.7 21.8 2.9h40.6s27.6-3 29-24.7-4.3-24.7-4.3-24.7zM536.6 190.4c-.2 1 .4-.9 0 0-2.1 4.8-3.4 12.4-8.2 14.4a40.1 40.1 0 0 0-14.3-12.2s11.6-21.8 10.2-16c-.8 3 4 8.3 12.3 13.8z" opacity=".1"/><path d="M539.5 184.6a20.3 20.3 0 1 1-20.3-20.3 20.2 20.2 0 0 1 20.3 20.3z" fill="#ffb9b9"/><path d="M528.6 217.2L549 197s29 5.8 30.4 33.4a140 140 0 0 1-7.2 50.8s-5.8 36.3-4.4 47.9-37.7-17.4-37.7-17.4-32 5.8-30.5 1.4 18.9-29 16-37.7c-1.2-3.8-.9-12 0-20.3a86.2 86.2 0 0 1 13-37.8z" opacity=".1"/><path d="M573.6 278.2s-5.8 36.3-4.3 47.9-37.7-17.4-37.7-17.4-5 .9-11 1.7c-9.1 1.3-20.4 2.4-19.5-.3a13 13 0 0 1 .8-1.8c3.8-7.1 17.8-28 15.2-36-1.3-3.7-1-12-.1-20.3a86.3 86.3 0 0 1 13.1-37.7l20.3-20.3s29 5.8 30.5 33.3a140 140 0 0 1-7.3 50.9z" fill="#cbcdda"/><path d="M539.5 184.6a20.2 20.2 0 0 1-1.7 8.2 21.3 21.3 0 0 1-4.4-5 81.6 81.6 0 0 0-5.7-7.8 3.9 3.9 0 0 0-1.7-1.3c-1.4-.4-2.7.8-3.1 2.1a12.5 12.5 0 0 0 0 4.2 4.8 4.8 0 0 1-1.1 4c-1.7 1.5-4.5.4-6.5-.9s-4.4-2.8-6.5-1.7a6 6 0 0 0-2 2 49.6 49.6 0 0 1-5 6.6 20.3 20.3 0 1 1 37.7-10.4z" opacity=".1"/><path d="M546.6 172.3a17.3 17.3 0 0 0-.2-5.6 12.8 12.8 0 0 0-2.2-4.2 25.3 25.3 0 0 0-19-10c-2.5-.2-4.9 0-7.3 0-4.4 0-8.8-.8-13.2-.4s-9.1 2.3-11 6.3c-1.3 2.5-1.3 5.5-2.7 7.9-1.7 2.7-5 4.1-6.8 6.7a8.4 8.4 0 0 0-1.6 4.9 3.4 3.4 0 0 0 .3 1.6 6.5 6.5 0 0 0 1.7 1.6 6.4 6.4 0 0 1 1.2 8 7.8 7.8 0 0 1 6.2 6 2.5 2.5 0 0 0 .5 1.3 1.9 1.9 0 0 0 1 .4c2.9.5 5.8-.9 8-3s3.7-4.5 5.4-7a6 6 0 0 1 1.9-1.8c2-1.1 4.5.3 6.5 1.7s4.8 2.4 6.5.8a4.8 4.8 0 0 0 1.1-4 12.4 12.4 0 0 1 0-4.1c.4-1.4 1.7-2.6 3-2.2a3.8 3.8 0 0 1 1.8 1.4 81 81 0 0 1 5.7 7.7c1.9 3 7.5 9.8 10.2 4 2.5-5.2 2.7-12.4 3-18z" fill="#b96b6b"/><path d="M516.3 271.7s21.8-1.5 27.6 2.9 29 2.9 29 2.9" opacity=".1"/><path d="M565 263.7s-7.3 14.5-7.3 18.9-5.8 10.1-5.8 10.1-16.4 9-31.4 17.7c-9 1.3-20.3 2.4-19.4-.3a13 13 0 0 1 .8-1.7c15.5-9.5 36.9-36 36.9-36 0-13.1 7.3-36.3 7.3-36.3s17.4-8.7 23.2 0-4.4 27.6-4.4 27.6zM176.3 334.2l19.3 78.2s336.2 185.3 538.6 161.7l59-148.8S648 483.9 493.8 457a153 153 0 0 1-17.5-4.2c-46-13.8-269.4-82-300-118.6z" opacity=".1"/><path d="M176.3 336.4l19.3 78.2s336.2 185.2 538.6 161.6l59-148.8s-145.3 58.7-299.3 31.7a153 153 0 0 1-17.5-4.2c-46-13.7-269.4-82-300-118.5z" fill="#4285f4"/><path fill="#535461" d="M288 155l4.8-5.7 213 179.6-4.7 5.7z"/><path d="M543.2 233.2s-7.3 23.3-7.3 36.3c0 0-30.5 37.7-45 39.2s-23.2 10.1-17.4 13 13 7.3 21.7 0 53.7-32 53.7-32 5.9-5.7 5.9-10 7.2-19 7.2-19 10.2-18.8 4.4-27.5-23.3 0-23.3 0z" fill="#ffb9b9"/><path d="M560.6 210s-26.2-3-21.8 34.8c0 0 17.4-10.2 32 0 0 0 5.7-27.6-10.2-34.8z" opacity=".1"/><path d="M560.6 207s-26.2-2.8-21.8 35c0 0 17.4-10.2 32 0 0 0 5.7-27.7-10.2-35z" fill="#cbcdda"/><path fill="none" stroke="#535461" stroke-miterlimit="10" stroke-width="2" d="M296.8 158.9l-8.6 430.2"/><path d="M266.8 558s-32.1 19.3-11.8 62.2M281.8 565.5s-32.1 19.3-11.8 62.2M299 558s32 19.3 11.7 62.2M287.1 568.8s32.2 19.2 11.8 62" fill="none" stroke="#4285f4" stroke-miterlimit="10" opacity=".1"/><path d="M158.9 58.5h-7.4a5.2 5.2 0 0 0 0-10.4H91.8a5.2 5.2 0 1 0 0 10.4h7.4a5.2 5.2 0 0 0 0 10.3H88.9a5.2 5.2 0 0 0 0 10.3h59.7a5.2 5.2 0 0 0 0-10.3h10.3a5.2 5.2 0 1 0 0-10.3zM566.9 10.3h-7.4a5.2 5.2 0 0 0 0-10.3h-59.7a5.2 5.2 0 1 0 0 10.3h7.4a5.2 5.2 0 1 0 0 10.3h-10.3a5.2 5.2 0 1 0 0 10.4h59.6a5.2 5.2 0 0 0 0-10.4H567a5.2 5.2 0 1 0 0-10.3zM781 89.6h-7.3a5.2 5.2 0 1 0 0-10.4H714a5.2 5.2 0 1 0 0 10.4h7.3a5.2 5.2 0 0 0 0 10.3H711a5.2 5.2 0 1 0 0 10.3h59.7a5.2 5.2 0 1 0 0-10.3H781a5.2 5.2 0 0 0 0-10.4z" fill="#4285f4" opacity=".1"/></svg>