<svg data-name="Layer 1" xmlns="http://www.w3.org/2000/svg" xmlns:xlink="http://www.w3.org/1999/xlink" width="680" height="768.1"><defs><linearGradient id="a" x1="633.1" y1="807.9" x2="633.1" y2="66" gradientUnits="userSpaceOnUse"><stop offset="0" stop-color="gray" stop-opacity=".3"/><stop offset=".5" stop-color="gray" stop-opacity=".1"/><stop offset="1" stop-color="gray" stop-opacity=".1"/></linearGradient><linearGradient id="b" x1="372.7" y1="339.4" x2="372.7" y2="231.1" xlink:href="#a"/><linearGradient id="c" x1="417" y1="609.3" x2="573.5" y2="609.3" xlink:href="#a"/></defs><g opacity=".2"><path d="M505.1 701a23.3 23.3 0 0 1-2.1 3.3q-10.5-7.4-21.4-14.5l.5-1a20.5 20.5 0 0 1 7.3-7.9c4-2.4 8.5-3 12.2-1s5.8 6 6 10.7A20.6 20.6 0 0 1 505 701z" fill="#3f3d56"/><ellipse cx="763.4" cy="742.5" rx="17.1" ry="13" transform="rotate(-62.1 578.6 925.5)" fill="#3f3d56"/><ellipse cx="773.1" cy="724.1" rx="17.1" ry="13" transform="rotate(-62.1 588.4 907.1)" fill="#3f3d56"/><ellipse cx="782.9" cy="705.7" rx="17.1" ry="13" transform="rotate(-62.1 598.1 888.7)" fill="#3f3d56"/><ellipse cx="792.6" cy="687.3" rx="17.1" ry="13" transform="rotate(-62.1 607.9 870.3)" fill="#3f3d56"/><path d="M556.3 472.6a61.7 61.7 0 0 1-1-8.6l32.9 11-32.9-17a62.5 62.5 0 0 1 22.1-44.3l31.8 46-24.7-51.1A62.4 62.4 0 1 1 643 518.5a62.4 62.4 0 0 1 1 13.4l-50-.4 49.3 8a62.4 62.4 0 0 1-36.3 47 62.4 62.4 0 1 1-86.7-45.8 62.4 62.4 0 0 1 36.1-68.2z" fill="#4285f4"/><path d="M636.6 558.8a62.1 62.1 0 0 1-29.8 27.8 62.4 62.4 0 1 1-86.7-45.9c-2.4-13.3 119.8 11.9 116.5 18z" opacity=".1"/></g><g opacity=".2"><path d="M217 621.7a43.3 43.3 0 0 0 2.4 7q23.1-8.8 46.7-17l-.4-2a39.5 39.5 0 0 0-9.8-18.2c-6.3-6.4-14.5-9.6-22.3-7.7s-13.7 8.5-16.3 17.1a39.5 39.5 0 0 0-.3 20.8z" fill="#3f3d56"/><ellipse cx="491.8" cy="642.8" rx="25.1" ry="32.8" transform="rotate(-13.7 87.5 1690.2)" fill="#3f3d56"/><ellipse cx="482.3" cy="603.8" rx="25.1" ry="32.8" transform="rotate(-13.7 78 1651.2)" fill="#3f3d56"/><ellipse cx="472.8" cy="564.8" rx="25.1" ry="32.8" transform="rotate(-13.7 68.5 1612.3)" fill="#3f3d56"/><ellipse cx="463.3" cy="525.9" rx="25.1" ry="32.8" transform="rotate(-13.7 59 1573.3)" fill="#3f3d56"/><path d="M229.4 171a118.7 118.7 0 0 0 5.8-15.5l-66.6 5.1 69.4-16.4a120.3 120.3 0 0 0-20.3-93L136.6 122l70.2-83.9A120 120 0 1 0 46 215.8a119.3 119.3 0 0 0-8.1 24.5l93.6 22.9-95.8-8.1a120.1 120.1 0 0 0 45.5 105 120 120 0 1 0 183.4-44.8 120 120 0 0 0-35.2-144.2z" fill="#4285f4"/><path d="M38.7 294a119.5 119.5 0 0 0 42.5 66 120 120 0 1 0 183.4-44.8c10.8-23.6-229.1-34.3-226-21.2z" opacity=".1"/></g><path d="M820 234.3h-2.2V114c0-26.5-21.9-48-48.8-48H496c-27 0-48.8 21.5-48.8 48v49.9H446.5a2.9 2.9 0 0 0-2.9 2.8v24a2.9 2.9 0 0 0 2.9 2.8h.7V218h-1a2.8 2.8 0 0 0-2.8 2.8v46a2.9 2.9 0 0 0 2.9 2.7h.9v18h-.8a2.8 2.8 0 0 0-2.9 2.9v46.3a2.8 2.8 0 0 0 3 2.8h.7V760c0 26.5 21.8 48 48.7 48H769c27 0 48.8-21.5 48.8-48V324.2h2.2a2.9 2.9 0 0 0 2.9-2.8V237a2.9 2.9 0 0 0-2.9-2.8z" transform="translate(-260 -66)" fill="url(#a)"/><g opacity=".9"><rect x="547.2" y="171.3" width="10.8" height="88.8" rx="2.3" fill="#e5e7eb"/><rect x="189.1" y="101.7" width="6" height="29.2" rx="2.3" fill="#e5e7eb"/><rect x="188.8" y="155.2" width="6.8" height="50.9" rx="2.3" fill="#e5e7eb"/><rect x="188.9" y="223.9" width="6.5" height="51.3" rx="2.3" fill="#e5e7eb"/><rect x="192.5" y="5" width="360.5" height="732.7" rx="39" fill="#fff"/><rect x="338" y="26.9" width="50.4" height="10.2" rx="3.9" fill="#e5e7eb"/><circle cx="401.7" cy="32" r="5.8" fill="#e5e7eb"/></g><path d="M502.1 24.1h-41.3v5a23.6 23.6 0 0 1-23.5 23.6H305.7A23.6 23.6 0 0 1 282 29.1v-5h-38.7a28.6 28.6 0 0 0-28.7 28.7V690a28.6 28.6 0 0 0 28.7 28.6H502a28.6 28.6 0 0 0 28.6-28.7V52.8A28.6 28.6 0 0 0 502.1 24z" fill="#ececf3"/><ellipse cx="87.3" cy="753.5" rx="57.2" ry="9.7" fill="#4285f4"/><path d="M111 737.7c2.4-2.3 4.7-5 5.4-8.2s-.7-7.2-3.8-8.4c-3.5-1.3-7.3 1.1-10.1 3.5s-6.1 5.3-9.8 4.8a14.9 14.9 0 0 0 4.6-14 5.8 5.8 0 0 0-1.3-2.9c-2-2-5.4-1.1-7.8.5-7.4 5.2-9.4 15.2-9.5 24.3-.7-3.3-.1-6.7-.1-10s-1-7-3.8-8.9a11.4 11.4 0 0 0-5.7-1.3c-3.3-.1-7 .2-9.3 2.6-2.8 3-2 8.1.4 11.5s6.2 5.4 9.6 7.7c2.6 1.7 5.3 3.8 6.9 6.5a6 6 0 0 1 .5 1.2H98a58.4 58.4 0 0 0 13-8.9z" fill="#4285f4"/><g opacity=".4" fill="#4285f4"><ellipse cx="620" cy="700.4" rx="32.6" ry="5.5"/><path d="M633.5 691.3a9.5 9.5 0 0 0 3.1-4.7c.4-1.8-.4-4-2.2-4.8-2-.7-4 .7-5.7 2s-3.5 3-5.6 2.7a8.5 8.5 0 0 0 2.6-8 3.3 3.3 0 0 0-.7-1.6c-1.1-1.2-3.1-.7-4.4.3-4.3 3-5.4 8.7-5.5 13.8-.4-1.8 0-3.8 0-5.7s-.6-4-2.2-5a6.5 6.5 0 0 0-3.3-.8c-1.9 0-4 .1-5.3 1.5-1.6 1.7-1.1 4.6.3 6.5s3.5 3.1 5.5 4.4a12.3 12.3 0 0 1 3.9 3.8 3.4 3.4 0 0 1 .3.6h11.9a33 33 0 0 0 7.3-5z"/></g><g opacity=".4" fill="#4285f4"><ellipse cx="120.1" cy="638.3" rx="32.6" ry="5.5"/><path d="M133.6 629.3a9.4 9.4 0 0 0 3.1-4.7c.4-1.9-.4-4.1-2.2-4.8-2-.8-4.1.6-5.7 2s-3.5 3-5.6 2.7a8.5 8.5 0 0 0 2.6-8 3.4 3.4 0 0 0-.7-1.6c-1.1-1.2-3.1-.7-4.4.3-4.3 3-5.4 8.6-5.5 13.8-.4-1.9 0-3.8 0-5.7s-.6-4-2.2-5a6.5 6.5 0 0 0-3.3-.8c-1.9 0-4 .1-5.3 1.5-1.6 1.8-1.2 4.7.2 6.6s3.6 3 5.5 4.4a12 12 0 0 1 4 3.7 4.1 4.1 0 0 1 .3.7h11.8a33.3 33.3 0 0 0 7.4-5.1z"/></g><path fill="#d6d8e0" d="M239 77h51.1v51.1H239zM327.8 80.7h107v9.7h-107zM327.8 97.7h176.4v9.7H327.8zM327.8 114.8h176.4v9.7H327.8zM239.4 170.7h51.1v51.1h-51.1zM328.2 174.4h107v9.7h-107zM328.2 191.4h176.4v9.7H328.2zM328.2 208.4h176.4v9.7H328.2zM239.8 264.4h51.1v51.1h-51.1zM328.6 268h107v9.7h-107zM328.6 285H505v9.7H328.6zM328.6 302.1H505v9.7H328.6zM240.2 358h51.1v51.1h-51.1zM328.9 361.7h107v9.7h-107zM328.9 378.7h176.4v9.7H328.9zM328.9 395.7h176.4v9.7H328.9zM240.6 451.7h51.1v51.1h-51.1zM329.3 455.3h107v9.7h-107zM329.3 472.4h176.4v9.7H329.3zM329.3 489.4h176.4v9.7H329.3zM240.9 545.3H292v51.1h-51.1zM329.7 549h107v9.7h-107zM329.7 566h176.4v9.7H329.7zM329.7 583h176.4v9.7H329.7zM241.3 639h51.1v51.1h-51.1zM330.1 642.6h107v9.7h-107zM330.1 659.7h176.4v9.7H330.1zM330.1 676.7h176.4v9.7H330.1z"/><path fill="url(#b)" d="M155 231.1h435.4v108.3H155z"/><path fill="#fff" d="M157.4 233.5h431.8v103.4H157.4z"/><path fill="#4285f4" d="M240.8 259.7h51.1v51.1h-51.1z"/><g opacity=".5" fill="#4285f4"><path d="M329.6 263.3h107v9.7h-107zM329.6 280.4H506v9.7H329.6zM329.6 297.4H506v9.7H329.6z"/></g><path d="M570.2 391.5c-2.7-2.6-7.3-3.5-10.5-1.6-2.6 1.6-4 4.4-5.3 7.1-1.8 4-4.6 7.7-5.4 12-2.3 12-11.8 21.2-15.6 32.7-1.4 4.2-2 8.6-4.1 12.3a39 39 0 0 1-3.4 4.7 131.8 131.8 0 0 0-13 19.8c-2.2.4-4.1 2.3-6 3.7a20.4 20.4 0 0 1-8 3.8 7.5 7.5 0 0 0-3.2 1.2c-1.4 1.1-1.6 3.2-2.7 4.6a7.2 7.2 0 0 1-3 2v-1l-.2-5.6a21 21 0 0 0 0-27.2 41 41 0 0 1 1.1-8.6c.4-1.4.3-3-.8-4-.5-.4-1.3-.5-1.8-1a8 8 0 0 1-2-2.5 10.8 10.8 0 0 0-13.6-3.4c-3.6 1.8-5.8 5.6-9 8.2-1.7 1.3-3.6 2.3-5.2 3.7a21.5 21.5 0 0 0-6.7 10.8 62.3 62.3 0 0 0-1.8 12.9 11.6 11.6 0 0 0 .1 3.9 10.3 10.3 0 0 0 1.5 3 33.6 33.6 0 0 0 12.4 11.8 4.9 4.9 0 0 1 0 .8c0 .4 0 .8-.2 1.2l-.6-.2c-2-.4-4.4-.4-6.3-1.5-3.3-1.8-4.3-6.3-7.4-8.3a5.7 5.7 0 0 0-.9-.5 56.1 56.1 0 0 0-3.2-16.7c-1-2.5-2-5.1-1.9-7.9.1-2.5 1.3-4.8 2.4-7.1 3.8-8 6.4-16.3 9-24.6l5-15.8a24.8 24.8 0 0 0 4.4-4.2 22.3 22.3 0 0 0 5-10.9 15.5 15.5 0 0 0-2.7-11.6 6.7 6.7 0 0 0-4.7-2.8 6.1 6.1 0 0 0-4.4 2 19.5 19.5 0 0 0-3.8 6.4 28.8 28.8 0 0 0-3.1 12.1c.1 3.5 1.4 7.4-.6 10.2-6.7 9.3-11.7 20-17 30a53.8 53.8 0 0 0-3.4 7.6 42 42 0 0 0-1.8 13c0 8.3 1.1 16.5 2.2 24.7.5 3.6 1.2 7.6 3 10.8a45.3 45.3 0 0 0-1.8 12.1 7 7 0 0 0 .4 2.8 11.5 11.5 0 0 0 2.2 2.8 12.4 12.4 0 0 1 3 9.8 28 28 0 0 0 .9 9.9c2 8.9 4 17.7 5.6 26.7a17 17 0 0 1 .4 5c-.3 2.5-1.7 4.8-1.4 7.2a27 27 0 0 1 .7 3.4 8.4 8.4 0 0 1-.6 2.6c-2.3 6.6-8.5 21.8-8.4 28.8l1.6-.3c-1.6 9-5.4 17.8-7.3 26.9a90 90 0 0 0-1.9 20 74.6 74.6 0 0 1-.2 9.2c-.3 2.7-1 5.3-1.3 8a72.5 72.5 0 0 0-.5 10.8 110.6 110.6 0 0 0 1 17c1.5 9.6-1.2 19.2-1.9 28.8a173.3 173.3 0 0 1-2.3 20.3c-.6 2.8-1.2 5.6-1.6 8.4-1.1 8.5.5 17.2-1.3 25.6-.8 3.9-2.3 8.3-.1 11.6l2.4 2.9a3.7 3.7 0 0 1 .7 3.5c-.4 1-1.4 1.5-1.7 2.5-.4 1.6 1.3 2.8 2.7 3.5l.4.1a3.7 3.7 0 0 0 .8 3 6.4 6.4 0 0 0 3 1.6l19 5.8c4.1 1.2 8.7 2.5 13 1.5a3.3 3.3 0 0 0 .7 1.6 6.4 6.4 0 0 0 3 1.6l18.8 5.7c4.8 1.4 10.1 2.9 14.7.9a8.4 8.4 0 0 0 3.4-2.6 9 9 0 0 0 1.2-7.4 6 6 0 0 0-1.8-3.4 8 8 0 0 0-4.4-1.4 8.8 8.8 0 0 1-3.8-1 2.8 2.8 0 0 1-.9-1q1.7-1.5 3.2-3.2c-.8-.3-1.1-1.5-1.2-2.4-1.2-12.7 3.6-25.2 5.4-37.8a81 81 0 0 0 .5-19.2l-.6-7.2c-.5-12.6 5.5-24.7 5.3-37.4-.1-5.9 3-11.7 4.5-17.4 1.3-5 1.4-10.3 1.4-15.6l.2-41.2c0-5.6 0-11.3-1.7-16.6a21 21 0 0 1-.8-9c5.1-2.3 10-5.6 15.4-5 1.4-4-.3-16.7-1.6-20.6a88.5 88.5 0 0 1-3-47.7c1.2-5.7-.5-11.7.9-17.4a10.5 10.5 0 0 1 1.5-3.7 4 4 0 0 1 3.4-1.8c0-3.5 0-7-.3-10.5a25 25 0 0 0 5.6-6.5c3-5 4.7-10.6 6.7-16 3.7-9.6 8.7-18.6 13-28s4.5-19.7 8-29.4a22 22 0 0 1 10.7-12.4c2-1 4.1-1.7 5.6-3.3a9 9 0 0 0 1.9-4.8 12.6 12.6 0 0 0-3.2-10.7zm-117 413.2l1.2-1.4c-1.3-.2-2.8-1.1-2.9-2.4a13.3 13.3 0 0 1 .9-3.8 15 15 0 0 0 .2-6.6c-.2-1.6-.8-3-1-4.6a42.8 42.8 0 0 1-.7-5.2 85.7 85.7 0 0 0-3.6-18.3c-1.8-5.8.6-11.7 1.3-17.7.3-2.9.2-5.8 1.2-8.5.5-1.6 1.5-3 2.1-4.6 1.4-3.8.6-7.9-.3-11.8 6-10.7 8-23.5 10.1-35.6q2-10.1 3.8-20.3c.5-3 1.2-6.2 3-8.6a105.4 105.4 0 0 1 2.3 27.4 40.6 40.6 0 0 0 0 8c.5 2.9 1.7 5.6 2.4 8.5 1.6 6.3.7 13 1 19.4.2 2.6.5 5.2.6 7.9a92.2 92.2 0 0 1-7.2 33.8c-2.3 6.7-2.9 14.3-4 21.4a266 266 0 0 0-2.6 20.2l-.6 6.3a16.5 16.5 0 0 0-2-.3 8.8 8.8 0 0 1-3.8-1 4.5 4.5 0 0 1-1.4-2.2z" transform="translate(-260 -66)" fill="url(#c)"/><path d="M234.2 752.4a8.1 8.1 0 0 1 4.3 1.5 6 6 0 0 1 1.8 3.3 8.8 8.8 0 0 1-1.2 7.4 8.3 8.3 0 0 1-3.3 2.5c-4.7 2-10 .6-14.8-.9l-18.9-5.7a6.3 6.3 0 0 1-3-1.6 4.2 4.2 0 0 1-.1-4.8 9.5 9.5 0 0 1 4-3.2 45 45 0 0 1 19-3.6c2.4 0 4.8-.6 6.4 1.2.8 1 .7 2.1 2 3a8.7 8.7 0 0 0 3.8 1z" fill="#3f3d56"/><path d="M198.5 742a8 8 0 0 1 4.4 1.5 6.2 6.2 0 0 1 1.8 3.3 8.8 8.8 0 0 1-1.2 7.4 8.3 8.3 0 0 1-3.4 2.5c-4.6 2-10 .6-14.7-.9l-19-5.7a6.3 6.3 0 0 1-3-1.6 4.2 4.2 0 0 1 0-4.8 9.4 9.4 0 0 1 4-3.2 44.8 44.8 0 0 1 18.9-3.6c2.4 0 4.7-.6 6.4 1.2.8 1 .7 2.1 2 3a8.8 8.8 0 0 0 3.8 1z" fill="#3f3d56"/><path d="M214.9 537.2a232.5 232.5 0 0 0-33.5-1 6.6 6.6 0 0 0-2.2.4c-2.4 1-2.8 4.2-3 6.8-1 10.7-5.7 20.6-8 31.1a88.8 88.8 0 0 0-1.9 20 73.5 73.5 0 0 1-.2 9c-.3 2.7-1 5.3-1.3 8a71.5 71.5 0 0 0-.5 10.8 109.2 109.2 0 0 0 1 16.8c1.5 9.6-1.2 19-1.9 28.7a171.3 171.3 0 0 1-2.3 20c-.6 2.9-1.2 5.7-1.6 8.5-1.1 8.4.5 17-1.3 25.4-.8 3.8-2.3 8.2-.1 11.5l2.4 2.9a3.6 3.6 0 0 1 .7 3.5c-.4.9-1.4 1.5-1.6 2.5-.5 1.5 1.2 2.7 2.6 3.4a27.6 27.6 0 0 0 32.2-8c-1.3-.2-2.8-1-2.9-2.3a13.1 13.1 0 0 1 .8-3.8 14.8 14.8 0 0 0 .3-6.6c-.3-1.5-.8-3-1-4.5a42.1 42.1 0 0 1-.7-5.2 84.6 84.6 0 0 0-3.6-18.2c-1.8-5.8.6-11.6 1.3-17.6.3-2.8.1-5.8 1.1-8.4.6-1.6 1.6-3 2.2-4.6 1.4-3.7.6-7.8-.3-11.6 6-10.7 7.9-23.4 10.1-35.4l3.8-20.2c.5-3 1.1-6.1 3-8.5a104 104 0 0 1 2.3 27.1 40 40 0 0 0 0 8c.5 2.8 1.7 5.5 2.4 8.4 1.6 6.2.7 12.8 1 19.3l.6 7.8a91 91 0 0 1-7.2 33.6c-2.4 6.6-2.9 14.2-4 21.2-1 6.7-2.1 13.4-2.7 20.1-.4 6.2-.7 13-4.5 17.8 3.5 2.3 7.2 4.6 11.3 5.4a21 21 0 0 0 14-2.7 44 44 0 0 0 11-9.3c-1-.3-1.2-1.5-1.3-2.3-1.2-12.7 3.6-25 5.4-37.6a80 80 0 0 0 .5-19l-.6-7.3c-.5-12.5 5.5-24.5 5.3-37 0-6 3-11.7 4.5-17.4 1.3-5 1.4-10.3 1.4-15.5l.3-41c0-5.5 0-11.2-1.8-16.4-2.2-6.3.3-13.6.7-20.2a83.2 83.2 0 0 1-32.2 3.6z" fill="#3f3d56"/><path d="M250.6 419.4a130.7 130.7 0 0 1 15.3-24.2 39.4 39.4 0 0 0 3.4-4.6c2.1-3.8 2.7-8.2 4.1-12.2 3.8-11.5 13.3-20.7 15.6-32.5.8-4.3 3.6-8 5.4-12 1.3-2.7 2.7-5.5 5.3-7 3.2-2 7.8-1 10.5 1.6a12.5 12.5 0 0 1 3.2 10.6 8.8 8.8 0 0 1-2 4.7c-1.4 1.6-3.6 2.4-5.5 3.3a21.9 21.9 0 0 0-10.8 12.3c-3.3 9.7-3.7 20-8 29.2s-9.2 18.3-12.9 27.8c-2 5.4-3.7 11-6.8 16s-7.8 9.2-13.5 10a34 34 0 0 0-1.7-10.7c-1.2-4-3.5-8.6-1.7-12.3zM188.6 426.8a55.5 55.5 0 0 0-3.2-20.8c-1-2.5-2-5-2-7.8.2-2.5 1.4-4.8 2.5-7.1 3.8-7.9 6.4-16.2 9-24.5l5-15.6a25 25 0 0 0 4.4-4.2 22.1 22.1 0 0 0 5-10.8 15.3 15.3 0 0 0-2.7-11.5 6.6 6.6 0 0 0-4.7-2.9 6 6 0 0 0-4.4 2 19.3 19.3 0 0 0-3.8 6.4 28.5 28.5 0 0 0-3.1 12c.1 3.5 1.4 7.4-.6 10.2-6.7 9.2-11.7 19.8-17 29.8a53.2 53.2 0 0 0-3.4 7.5 41.5 41.5 0 0 0-1.8 13c0 8.2 1.1 16.3 2.2 24.5.7 5 1.7 10.6 5.5 14 4-5.1 8-10.1 13.1-14.2z" fill="#a0616a"/><circle cx="214.1" cy="410" r="20.8" fill="#a0616a"/><path d="M204 431.8c-.5 3.8-2.5 7.2-4.5 10.4-1.2 2-2.7 4.1-5 4.3a100 100 0 0 0 18.9 7.6 21.4 21.4 0 0 0 6.9 1.1 16.8 16.8 0 0 0 5.7-1.4 28.4 28.4 0 0 0 16.1-19 37.5 37.5 0 0 1-7.7-.6c-1.4-.3-3-.7-3.7-1.9a6 6 0 0 1-.8-3.3q-.2-5.2 0-10.4a41 41 0 0 0-15.1 1.8c-2 .7-4 1.5-6 2-1.3.3-4.8 0-5.7.7-1.4 1.1 1.3 6.2.9 8.7z" fill="#a0616a"/><path d="M213.1 444.4a13 13 0 0 0-9.9-11.5c-2.1-.5-4.4-.4-6.3-1.5-3.3-1.8-4.3-6.3-7.5-8.3s-7.6-1-10.3 1.6-4.1 6.3-5.3 10a49.8 49.8 0 0 0-2.7 15 6.9 6.9 0 0 0 .5 2.8 11.7 11.7 0 0 0 2.2 2.8 12.3 12.3 0 0 1 3 9.8 27.6 27.6 0 0 0 .9 9.8c2 8.8 4 17.6 5.6 26.5a16.9 16.9 0 0 1 .4 5c-.3 2.4-1.7 4.7-1.4 7.1a27 27 0 0 1 .6 3.4 8.3 8.3 0 0 1-.6 2.5c-2.2 6.6-8.4 21.7-8.3 28.7 10.7-2.7 26.4-3.3 37.3-3.4a78.4 78.4 0 0 1 9.1.4c7.2.8 14.6 3 21.7 1 6.5-1.9 12.2-7 19-6.4 1.4-3.8-.3-16.6-1.7-20.4a87.3 87.3 0 0 1-3-47.4c1.3-5.6-.4-11.6 1-17.2a10.4 10.4 0 0 1 1.4-3.8 4 4 0 0 1 3.5-1.8 127.4 127.4 0 0 0-2.5-26.9c-.7-3.1-2.1-6.9-5.3-7.4-2.8-.5-5.2 2-7.5 3.7a20.7 20.7 0 0 1-8 3.8 7.5 7.5 0 0 0-3.3 1.2c-1.4 1.1-1.6 3.2-2.7 4.5-2 2.5-6.5 2.3-7.9 5.2a18 18 0 0 0-.7 2.6 9.6 9.6 0 0 1-3.3 4.3 18.6 18.6 0 0 1-8 4.3z" fill="#4285f4"/><path d="M231 388c.3-1.4.2-3-.9-4-.5-.4-1.2-.6-1.8-1a8 8 0 0 1-2-2.5 10.9 10.9 0 0 0-13.6-3.4c-3.6 1.8-5.8 5.6-9 8.2-1.7 1.3-3.6 2.3-5.2 3.6a21.3 21.3 0 0 0-6.7 10.8 61.6 61.6 0 0 0-1.8 12.8 11.5 11.5 0 0 0 .2 3.9 10.2 10.2 0 0 0 1.4 3c3.3 5 7.7 9.5 13.1 12s12.1 3 17.5.3a3.1 3.1 0 0 0 1.3-1 3.8 3.8 0 0 0 .2-2.3 15.8 15.8 0 0 1 1.8-8.9c1-2 2.5-3.7 3.3-5.8a20.6 20.6 0 0 0 1-7.2c0-6.2-.4-12.5 1.1-18.6z" fill="#2d293d"/><path fill="#4285f4" d="M240.6 260.3h51.1v51.1h-51.1z"/><path d="M273 303.8a6.7 6.7 0 0 1-3.5 3.2 8.6 8.6 0 0 1-2.7.5 7.8 7.8 0 0 1-3-.4 6.9 6.9 0 0 1-3.2-2.5 16 16 0 0 1-1.8-3.7 4 4 0 0 1-.4-2 3 3 0 0 0 2-1.2 2.5 2.5 0 0 0 0-2l-.1-.6c-.2-.4-.7-1.3-.3-1.6s1.2-.4 1.5-.5a14.4 14.4 0 0 1 3.1-1.4 7.6 7.6 0 0 1 3 .2 1 1 0 0 1 .3.1.9.9 0 0 1 .3.4l.7 2.1a4.4 4.4 0 0 0 1 2 5.5 5.5 0 0 0 1.6 1l1.3.5a2 2 0 0 1 .6.4 1.7 1.7 0 0 1 .4.9 7.7 7.7 0 0 1-.8 4.6z" fill="#a0616a"/><path d="M268.8 294.5a7 7 0 0 1-8.3 1.2l-.2-.5c-.2-.5-.7-1.3-.3-1.7s1.2-.3 1.5-.5a14.4 14.4 0 0 1 3-1.4 7.6 7.6 0 0 1 3 .2 1 1 0 0 1 .4.1.9.9 0 0 1 .3.4l.6 2.2z" opacity=".1"/><circle cx="263.8" cy="289.4" r="6.9" fill="#a0616a"/><path d="M284.9 311.4h-32.7l-2.9-6.7a4.7 4.7 0 0 1 .6-1.5 1.6 1.6 0 0 1 1.4-.8c.2 0 .6.1.8 0s.1-.4.3-.6.5-.1.8-.1a1.8 1.8 0 0 0 1.5-.8 2.5 2.5 0 0 1 .4-.5 2.2 2.2 0 0 1 .8-.2c.8-.2 1.3-1 2-1.5a1.1 1.1 0 0 1 1.1-.3.7.7 0 0 1 .3.2 2.3 2.3 0 0 1 .3.8 7.4 7.4 0 0 0 2.6 4.2 6 6 0 0 0 9-2.2 11.6 11.6 0 0 0 .8-3.8v-.2a2.9 2.9 0 0 1 2.4.5 13.4 13.4 0 0 0 2 1.3c1 .4 2 .4 2.7 1 .2.3.4.6.8.8a2.3 2.3 0 0 0 .6.1 3.8 3.8 0 0 1 2.5 2.2 17.1 17.1 0 0 1 1.4 5.1z" fill="#f86d70"/><path d="M259 278.1a5.3 5.3 0 0 0-1.2 1.4 6.9 6.9 0 0 1-2.4 2.4 3 3 0 0 0-1 .7 1.9 1.9 0 0 0-.4.7 14.6 14.6 0 0 0-.3 3 3.1 3.1 0 0 0 .2 1.5c.2.4.6.7.7 1.2a3.6 3.6 0 0 1-.1 1 1 1 0 0 0 .3 1 2.5 2.5 0 0 0 .6.2c1 .2 1.3 1.4 1.5 2.4.3 0 .5-.4.6-.8l1-4.6c0-.5.3-1 .8-1.3a2.5 2.5 0 0 1 1 0c1.4.2 2.6-1 4-1.2a5.3 5.3 0 0 1 1.2 0c1.1 0 2.3.4 2.6 1.4 0 .1 0 .3.2.4a.8.8 0 0 0 .5 0c.6 0 1 .7 1.2 1.3l.7 2.3c.1.3.3.8.7.8a.7.7 0 0 0 .7-.6 2.8 2.8 0 0 0-.2-1c-.3-1.5.2-3 .5-4.5s.4-3.2-.7-4.4l-1.2-1.1c-.4-.4-.5-1-.8-1.3a8.7 8.7 0 0 0-4.9-2.2 10 10 0 0 0-5.8 1.3z" fill="#3f3d56"/><g opacity=".1"><path d="M271.4 290.8c-.3 0-.5-.4-.6-.8l-.7-2.2c-.2-.7-.6-1.4-1.3-1.4a.8.8 0 0 1-.5 0l-.2-.4c-.2-1-1.5-1.4-2.5-1.5a4.9 4.9 0 0 0-1.3.1c-1.4.3-2.5 1.4-4 1.2a3 3 0 0 0-1 0c-.5.2-.7.8-.8 1.3a203 203 0 0 0-1 4.7c0 .3-.2.7-.6.7-.1-1-.4-2.2-1.4-2.4a2 2 0 0 1-.6-.1.6.6 0 0 1-.3-.3v.4a1 1 0 0 0 .3 1 2.5 2.5 0 0 0 .5.1c1 .2 1.4 1.4 1.5 2.4.4 0 .5-.4.6-.7l1-4.7c.1-.5.3-1 .8-1.3a2.5 2.5 0 0 1 1 0c1.5.2 2.6-.9 4-1.2a5.3 5.3 0 0 1 1.3 0c1 0 2.3.4 2.5 1.4 0 .2 0 .4.2.4a.8.8 0 0 0 .5 0c.7 0 1 .7 1.3 1.4l.7 2.2c0 .4.3.8.6.8a.7.7 0 0 0 .7-.6 2 2 0 0 0 0-.8.6.6 0 0 1-.7.3zM254.6 288c0-.5-.4-.9-.6-1.3a2.5 2.5 0 0 1-.3-.9v.5a3.1 3.1 0 0 0 .3 1.5l.5 1a2.2 2.2 0 0 0 .1-.9zM272.5 284.7a13 13 0 0 0-.6 4 24.3 24.3 0 0 1 .6-2.9 7.7 7.7 0 0 0 .1-2.2 9 9 0 0 1-.1 1.1z"/></g><path d="M254.8 311.4h-7.7a24.5 24.5 0 0 1 1.8-6.1 1.4 1.4 0 0 1 .3-.5.5.5 0 0 1 .1-.1l.8-.4.5-.5a7 7 0 0 1 2.6.5 2.5 2.5 0 0 1 .6.1 2.3 2.3 0 0 1 1.1 1.3c.7 1.8.2 3.8 0 5.7z" fill="#f86d70"/></svg>