<svg data-name="Layer 1" xmlns="http://www.w3.org/2000/svg" width="970.154" height="753.564" viewBox="0 0 970.154 753.564"><path d="M718.768 430.508L526.105 189.75a64.686 64.686 0 0 1-31.159 15.733c-36.27 7.143-71.692-17.626-79.117-55.323-5.248-26.648 4.912-52.608 24.123-68.069L374.259 0 0 319.862 344.51 750.37z" fill="#f2f2f2"/><path d="M311.815 235.57l-160.526 32.803a31.041 31.041 0 0 0-22.216 42.874L312.075 728.8a40.777 40.777 0 0 0 49.302 22.617l184.96-56.941a34.84 34.84 0 0 0 20.51-49.656L360.51 256.847a46.15 46.15 0 0 0-48.696-21.277z" fill="#3f3d56"/><path d="M151.085 272.444l26.394-5.205a18.73 18.73 0 0 0 20.185 10.31l95.38-17.12a6.69 6.69 0 0 0 5.165-8.7l-2.595-7.784 26.27-5.18a26.027 26.027 0 0 1 27.904 13.109L563.47 645.12a25.937 25.937 0 0 1-15.242 37.197l-182.112 55.393a32.619 32.619 0 0 1-39.24-17.824L137.453 298.843a18.974 18.974 0 0 1 13.633-26.4z" fill="#5d97f7"/><path fill="none" stroke="#2f2e41" stroke-miterlimit="10" stroke-width="2" d="M264.654 255.064l-39 8"/><ellipse cx="215.654" cy="264.564" rx="4" ry="3.5" fill="#2f2e41"/><path fill="#fff" d="M241.654 302.064l172 369 239-65v-8l-186-347-221 48-1.05.79-2.95 2.21z"/><path opacity=".2" d="M241.654 302.064l172 369 239-65v-8l-238 67-170.05-365.21-2.95 2.21z"/><path fill="#3f3d56" stroke="#3f3d56" stroke-miterlimit="10" stroke-width="2" d="M548.654 458.064l-176 45M558.654 477.064l-177 46M535.654 503.064l-111 30"/><path fill="#5d97f7" d="M434.654 588.064l16.21 35.29.79 1.71 2.76-.7 134.24-34.3v-5l-18-34-133 36-1.19.4-1.81.6z"/><path opacity=".2" d="M434.654 588.064l16.21 35.29.79 1.71 2.76-.7 134.24-34.3v-5l-135 36-17.19-33.6-1.81.6z"/><path fill="none" stroke="#3f3d56" stroke-miterlimit="10" stroke-width="2" d="M82.154 752.564h888"/><path d="M446.553 378.98c-11.452-29.926-43.072-47.076-68.458-38.996-23.269 7.407-32.828 33.692-23.048 59.25s36.39 43.837 61.252 40.591c27.122-3.54 41.705-30.917 30.254-60.844z" fill="#3f3d56" stroke="#3f3d56" stroke-miterlimit="10" stroke-width="2"/><path d="M446.553 378.98c-11.452-29.926-43.072-47.076-68.458-38.996-23.269 7.407-32.828 33.692-23.048 59.25s36.39 43.837 61.252 40.591c27.122-3.54 41.705-30.917 30.254-60.844z" opacity=".2"/><path d="M451.553 373.98c-11.452-29.926-43.072-47.076-68.458-38.996-23.269 7.407-32.828 33.692-23.048 59.25s36.39 43.837 61.252 40.591c27.122-3.54 41.705-30.917 30.254-60.844z" fill="#3f3d56" stroke="#3f3d56" stroke-miterlimit="10" stroke-width="2"/><circle cx="619.429" cy="56.916" r="14.756" fill="none" stroke="#3f3d56" stroke-miterlimit="10" stroke-width="2"/><circle cx="814.429" cy="485.916" r="14.756" fill="none" stroke="#3f3d56" stroke-miterlimit="10" stroke-width="2"/><circle cx="170.696" cy="93.916" r="14.756" fill="none" stroke="#3f3d56" stroke-miterlimit="10" stroke-width="2"/><circle cx="479.377" cy="139.729" r="54.315" fill="#f2f2f2"/><circle cx="692.953" cy="234.917" r="36.8" fill="#2f2e41"/><path fill="#9f616a" d="M732.654 696.064l7 30h-17l-7-34 17 4zM650.654 696.064v28l-17 2v-30h17zM737.654 378.064s-2 43-4 46-20 46-20 46l-9-28s14-23 12-36-.74-28.997-.74-28.997z"/><circle cx="680.654" cy="246.064" r="28" fill="#9f616a"/><path d="M703.654 249.064s-1 40 6 46-40 1-40 1 10-28 2-34 32-13 32-13z" fill="#9f616a"/><path d="M666.654 294.064s6-11 14-10 34 3 35 5 4 9 6 11 17 5 18 17-36 85-36 85 5 17 4 21 5 16 4 21 15 35 7 74v63s27 109 19 117-35 3-40 0-26-154-26-154l-10-51-1 112s2 94-5 97-34 4-36-2c-1.56-4.68-9.203-129.189-12.491-183.767a203.905 203.905 0 0 1 4.403-56.175c4.162-18.878 10.204-41.057 17.088-50.058 13-17 21-71 21-71l-17-31s10-10 16-10 18-4 18-4z" fill="#2f2e41"/><path d="M733.654 310.064l5.273 3.59s3.727 64.41.727 68.41-23.858 2.048-25.429-1.476 19.429-70.524 19.429-70.524z" fill="#2f2e41"/><path d="M644.477 368.627c2.927 20.307 5.492 38.384-9.475 54.738a280.862 280.862 0 0 1-50.533 43.771c-1.836 4.863-28.786 40.573-30.157 26.329s7.94-25.411 21.172-37.457 31.742-38.18 42.187-52.52 6.145-23.283 5.782-35.261 16.917.545 21.024.4z" fill="#9f616a"/><path d="M633.654 707.863s-1 11.2-4 14.2-11 7-10 18 7.5 11.5 7.5 11.5l-.5-2.5 3 1 .5 1.5h28s.5-10.5-.5-15.5-1-29-4-28-11 2-13 6-8 2.6-7-6.2zM735.654 707.863s1 11.2 4 14.2 11 7 10 18-7.5 11.5-7.5 11.5l.5-2.5-3 1-.5 1.5h-28s-.5-10.5.5-15.5 1-29 4-28 11 2 13 6 8 2.6 7-6.2zM646.654 305.064l-14 3s0 22-4 31-11 30-8 31 31 15 33 7 7-72-7-72z" fill="#2f2e41"/><circle cx="732.82" cy="186.464" r="36.8" fill="#2f2e41"/><path d="M764.562 216.936a36.802 36.802 0 0 1-56.829-19.323 36.802 36.802 0 1 0 71.787-15.091 36.788 36.788 0 0 1-14.958 34.414z" fill="#2f2e41"/><circle cx="702.767" cy="241.05" r="26.987" fill="#2f2e41"/><ellipse cx="680.074" cy="230.93" rx="23.92" ry="18.707" fill="#2f2e41"/><ellipse cx="673.693" cy="250.099" rx="4.54" ry="8.032" fill="#a0616a"/></svg>