<?xml version="1.0" standalone="no"?><!DOCTYPE svg PUBLIC "-//W3C//DTD SVG 1.1//EN" "http://www.w3.org/Graphics/SVG/1.1/DTD/svg11.dtd"><svg t="1568943941068" class="icon" viewBox="0 0 1024 1024" version="1.1" xmlns="http://www.w3.org/2000/svg" p-id="1601" xmlns:xlink="http://www.w3.org/1999/xlink" width="200" height="200"><defs><style type="text/css"></style></defs><path d="M395.946667 450.56m-307.2 0a307.2 307.2 0 1 0 614.4 0 307.2 307.2 0 1 0-614.4 0Z" fill="#E9EAEB" p-id="1602"></path><path d="M935.253333 443.733333c0 105.130667-154.282667 204.8-341.333333 204.8-35.498667 0-84.650667-5.461333-109.226667-13.653333v232.106667c34.133333 10.922667 73.728 13.653333 109.226667 13.653333 187.050667 0 341.333333-86.016 341.333333-191.146667v-245.76" fill="#FFFFFF" p-id="1603"></path><path d="M592.554667 260.778667c-187.050667 0-344.064 84.650667-344.064 189.781333 0 17.749333 4.096 35.498667 12.288 51.882667L484.693333 634.88c24.576 8.192 73.728 13.653333 109.226667 13.653333 187.050667 0 341.333333-99.669333 341.333333-204.8S779.605333 260.778667 592.554667 260.778667z" fill="#FFFFFF" p-id="1604"></path><path d="M593.92 662.186667c-35.498667 0-86.016-5.461333-113.322667-15.018667l8.192-25.941333c23.210667 8.192 72.362667 12.288 105.130667 12.288 187.050667 0 327.68-101.034667 327.68-191.146667C921.6 349.525333 774.144 273.066667 592.554667 273.066667c-178.858667 1.365333-330.410667 81.92-330.410667 177.493333 0 15.018667 4.096 31.402667 10.922667 46.421333l-24.576 12.288c-9.557333-19.114667-15.018667-38.229333-15.018667-58.709333 0-111.957333 161.109333-203.434667 357.717333-203.434667 199.338667 0 356.352 86.016 356.352 196.608 1.365333 116.053333-163.84 218.453333-353.621333 218.453334z" fill="#2A5082" p-id="1605"></path><path d="M172.032 522.922667l405.504-83.285334 10.922667 5.461334L348.16 670.378667v210.261333c-32.768-1.365333-152.917333-53.248-177.493333-136.533333l1.365333-221.184z" fill="#A3D4FF" p-id="1606"></path><path d="M361.813333 895.658667l-15.018666-1.365334c-36.864-2.730667-163.84-57.344-189.781334-146.090666-1.365333-2.730667-1.365333-2.730667 0-225.28v-10.922667l420.522667-87.381333 32.768 16.384L361.813333 677.205333v218.453334zM184.32 741.376c20.48 65.536 109.226667 110.592 150.186667 122.88V664.917333l219.818666-207.530666L184.32 533.845333v207.530667zM525.653333 689.493333h27.306667v95.573334h-27.306667zM525.653333 812.373333h27.306667v27.306667h-27.306667z" fill="#2A5082" p-id="1607"></path><path d="M234.755413 450.60096l27.306667-0.08192 0.177493 55.978667-27.306666 0.08192zM593.92 894.293333c-46.421333 0-83.285333-4.096-113.322667-13.653333l-9.557333-4.096v-245.76L567.978667 436.906667l24.576 12.288L498.346667 637.610667v218.453333c25.941333 6.826667 57.344 10.922667 95.573333 10.922667 177.493333 0 327.68-81.92 327.68-177.493334v-245.76h27.306667v245.76c0 113.322667-159.744 204.8-354.986667 204.8zM345.429333 684.032c-103.765333-31.402667-173.397333-90.112-187.050666-158.378667l27.306666-5.461333c10.922667 57.344 75.093333 110.592 167.936 137.898667l-8.192 25.941333z" fill="#2A5082" p-id="1608"></path><path d="M157.013333 279.893333h27.306667v81.92h-27.306667z" fill="#BCC0C4" p-id="1609"></path><path d="M129.706667 307.2h81.92v27.306667H129.706667zM853.333333 157.013333h27.306667v81.92h-27.306667z" fill="#BCC0C4" p-id="1610"></path><path d="M826.026667 184.32h81.92v27.306667h-81.92zM266.24 143.36h27.306667v81.92h-27.306667z" fill="#BCC0C4" p-id="1611"></path><path d="M238.933333 170.666667h81.92v27.306666h-81.92z" fill="#BCC0C4" p-id="1612"></path></svg>