<?xml version="1.0" standalone="no"?><!DOCTYPE svg PUBLIC "-//W3C//DTD SVG 1.1//EN" "http://www.w3.org/Graphics/SVG/1.1/DTD/svg11.dtd"><svg t="1568944940502" class="icon" viewBox="0 0 1069 1024" version="1.1" xmlns="http://www.w3.org/2000/svg" p-id="22801" xmlns:xlink="http://www.w3.org/1999/xlink" width="208.7890625" height="200"><defs><style type="text/css"></style></defs><path d="M655.058824 384m-316.235295 0a316.235294 316.235294 0 1 0 632.470589 0 316.235294 316.235294 0 1 0-632.470589 0Z" fill="#E9EAEB" p-id="22802"></path><path d="M566.211765 912.564706c-36.141176 0-69.270588-1.505882-94.870589-12.047059-40.658824-15.058824-64.752941-31.623529-100.894117-57.223529-21.082353-15.058824-61.741176-81.317647-70.776471-94.870589l25.6-15.058823c18.070588 30.117647 49.694118 76.8 61.741177 85.835294l1.505882 1.505882c34.635294 24.094118 55.717647 39.152941 93.364706 52.705883 30.117647 10.541176 76.8 10.541176 126.494118 9.035294h46.682353c21.082353 0 45.176471-18.070588 45.17647-45.176471 0-22.588235 3.011765-31.623529 9.035294-52.705882l6.02353-24.094118c4.517647-15.058824 7.529412-30.117647 13.552941-57.223529l30.117647 6.023529c-6.023529 27.105882-10.541176 42.164706-13.552941 57.22353l-7.529412 24.094117c-4.517647 19.576471-7.529412 27.105882-7.529412 45.176471-1.505882 46.682353-39.152941 75.294118-75.294117 75.294118h-45.176471c-15.058824 1.505882-28.611765 1.505882-43.670588 1.505882z" fill="#2A5082" p-id="22803"></path><path d="M549.647059 896h30.117647v60.235294h-30.117647zM173.176471 865.882353h-30.117647v-105.411765c0-18.070588-6.023529-43.670588-13.552942-70.77647-7.529412-33.129412-16.564706-66.258824-16.564706-94.870589h30.117648c0 24.094118 7.529412 57.223529 15.058823 87.341177 7.529412 28.611765 15.058824 57.223529 15.058824 78.305882v105.411765zM143.058824 489.411765h-30.117648v-45.176471c0-168.658824 132.517647-301.176471 301.176471-301.17647h58.729412C629.458824 143.058824 752.941176 240.941176 775.529412 380.988235l-30.117647 4.517647c-19.576471-124.988235-132.517647-213.835294-272.564706-213.835294h-58.729412c-152.094118 0-271.058824 118.964706-271.058823 271.058824v46.682353z" fill="#2A5082" p-id="22804"></path><path d="M891.482353 436.705882c-7.529412-33.129412-21.082353-43.670588-69.270588-57.223529 0 0-66.258824-21.082353-152.094118-21.082353-96.376471 0-213.835294 10.541176-240.941176 18.070588-28.611765 6.023529-134.023529 69.270588-134.02353 97.882353v131.011765c0 28.611765 112.941176 84.329412 143.058824 91.858823s138.541176 19.576471 230.4 19.576471c90.352941 0 134.023529-13.552941 168.658823-28.611765 34.635294-15.058824 43.670588-76.8 51.2-108.423529 7.529412-33.129412 10.541176-103.905882 3.011765-143.058824z" fill="#A3D4FF" p-id="22805"></path><path d="M667.105882 730.352941c-88.847059 0-200.282353-10.541176-234.917647-21.082353-18.070588-4.517647-153.6-61.741176-153.6-106.917647v-131.011765c0-40.658824 118.964706-105.411765 146.070589-111.435294 31.623529-7.529412 150.588235-18.070588 245.458823-18.070588 87.341176 0 153.6 21.082353 156.611765 22.588235 48.188235 13.552941 70.776471 27.105882 79.811764 69.270589 9.035294 42.164706 6.023529 115.952941-3.011764 149.082353-1.505882 4.517647-3.011765 10.541176-4.517647 16.564705-9.035294 36.141176-19.576471 85.835294-57.22353 100.894118-34.635294 15.058824-78.305882 30.117647-174.682353 30.117647z m3.011765-358.4c-99.388235 0-212.329412 12.047059-237.929412 16.564706-30.117647 7.529412-120.470588 64.752941-123.482353 82.823529V602.352941c4.517647 18.070588 96.376471 67.764706 131.011765 76.8 28.611765 7.529412 137.035294 19.576471 227.388235 19.576471s131.011765-13.552941 162.635294-27.105883c22.588235-9.035294 31.623529-52.705882 39.152942-79.811764l4.517647-18.070589c7.529412-28.611765 10.541176-99.388235 3.011764-135.529411-4.517647-24.094118-13.552941-33.129412-58.729411-46.682353-1.505882 1.505882-66.258824-19.576471-147.576471-19.576471z" fill="#2A5082" p-id="22806"></path><path d="M338.823529 594.823529h-225.882353v-105.411764h225.882353z" fill="#E9EAEB" p-id="22807"></path><path d="M353.882353 609.882353h-256v-135.529412h256v135.529412z m-225.882353-30.117647h195.764706v-75.294118h-195.764706v75.294118z" fill="#2A5082" p-id="22808"></path></svg>